<svg width="704" height="720" viewBox="0 0 704 720" fill="none" xmlns="http://www.w3.org/2000/svg">
<rect x="0.5" y="0.5" width="703" height="719" rx="7.5" fill="white"/>
<rect x="0.5" y="0.5" width="703" height="719" rx="7.5" stroke="#EAE9E5"/>
<g clip-path="url(#clip0_2814_7002)">
<rect width="220" height="15" transform="translate(242 40)" fill="#F7F6F3"/>
<circle cx="251.5" cy="47.5" r="1.5" fill="#37352F"/>
<circle cx="257.5" cy="47.5" r="1.5" fill="#37352F"/>
<circle cx="263.5" cy="47.5" r="1.5" fill="#37352F"/>
<path d="M242 55H462" stroke="#37352F" stroke-linecap="round"/>
<rect x="242" y="55" width="220" height="97" fill="#37352F"/>
<rect x="242" y="55" width="220" height="97" stroke="#37352F" stroke-width="1.5"/>
<text fill="white" style="white-space: pre" xml:space="preserve" font-family="Inter" font-size="14" font-weight="500" letter-spacing="0em"><tspan x="292.616" y="108.591">Exception actions</tspan></text>
</g>
<rect x="242" y="40" width="220" height="112" rx="8" stroke="#37352F"/>
<rect x="100" y="216" width="200" height="56" rx="8" fill="#F7F6F3"/>
<rect x="100" y="216" width="200" height="56" rx="8" stroke="#D8D6CF" stroke-linecap="round" stroke-linejoin="round"/>
<text fill="#37352F" style="white-space: pre" xml:space="preserve" font-family="Inter" font-size="14" font-weight="500" letter-spacing="0em"><tspan x="180.436" y="249.091">Utility</tspan></text>
<path d="M97 228L56 228C47.1634 228 40 235.163 40 244L40 446C40 454.837 47.1634 462 56 462L97 462" stroke="#D8D6CF" stroke-linecap="round"/>
<path d="M100 226C101.105 226 102 226.895 102 228C102 229.105 101.105 230 100 230C98.8954 230 98 229.105 98 228C98 226.895 98.8954 226 100 226Z" fill="white" stroke="#D8D6CF" stroke-width="2"/>
<path d="M98.9106 461.46L95.1368 459.114C94.6981 458.842 94.1363 459.085 94.0212 459.543C93.993 459.655 94.0201 459.772 94.0593 459.88L94.8234 462L94.0593 464.12C94.0201 464.229 93.993 464.345 94.0212 464.457C94.1349 464.908 94.683 465.153 95.1216 464.895L98.8954 462.672C99.3615 462.398 99.3697 461.746 98.9106 461.46Z" fill="#D8D6CF"/>
<path d="M97 244L66 244C57.1634 244 50 251.163 50 260L50 378C50 386.837 57.1634 394 66 394L97 394" stroke="#D8D6CF" stroke-linecap="round"/>
<path d="M100 242C101.105 242 102 242.895 102 244C102 245.105 101.105 246 100 246C98.8954 246 98 245.105 98 244C98 242.895 98.8954 242 100 242Z" fill="white" stroke="#D8D6CF" stroke-width="2"/>
<path d="M98.9106 393.46L95.1368 391.114C94.6981 390.842 94.1363 391.085 94.0212 391.543C93.993 391.655 94.0201 391.772 94.0593 391.88L94.8234 394L94.0593 396.12C94.0201 396.229 93.993 396.345 94.0212 396.457C94.1349 396.908 94.683 397.153 95.1216 396.895L98.8954 394.672C99.3615 394.398 99.3697 393.746 98.9106 393.46Z" fill="#D8D6CF"/>
<rect x="100.5" y="312.5" width="199" height="27" rx="13.5" fill="#F7F6F3"/>
<rect x="100.5" y="312.5" width="199" height="27" rx="13.5" stroke="#D8D6CF"/>
<rect x="104" y="316" width="20" height="20" rx="10" fill="#8D8D8D"/>
<path d="M114 321C113.132 321 112.278 321.226 111.524 321.656C110.769 322.085 110.14 322.704 109.697 323.451C109.254 324.198 109.014 325.048 108.999 325.916C108.985 326.784 109.197 327.642 109.614 328.403L109.022 330.35C108.996 330.437 108.993 330.529 109.015 330.617C109.037 330.705 109.083 330.785 109.147 330.849C109.211 330.913 109.291 330.959 109.379 330.981C109.467 331.003 109.559 331 109.646 330.974L111.591 330.382C112.259 330.749 113.003 330.959 113.764 330.994C114.526 331.03 115.285 330.891 115.985 330.589C116.685 330.286 117.306 329.827 117.801 329.247C118.296 328.667 118.652 327.982 118.842 327.244C119.032 326.505 119.05 325.733 118.895 324.986C118.741 324.24 118.417 323.538 117.95 322.936C117.483 322.333 116.884 321.846 116.199 321.51C115.515 321.175 114.763 321 114 321Z" fill="white"/>
<text fill="#37352F" style="white-space: pre" xml:space="preserve" font-family="Inter" font-size="10" font-weight="600" letter-spacing="0.05em"><tspan x="168.701" y="329.636">ADD COMMENT</tspan></text>
<path d="M114 380.5H286C293.456 380.5 299.5 386.544 299.5 394C299.5 401.456 293.456 407.5 286 407.5H114C106.544 407.5 100.5 401.456 100.5 394C100.5 386.544 106.544 380.5 114 380.5Z" fill="#F7F6F3"/>
<path d="M114 380.5H286C293.456 380.5 299.5 386.544 299.5 394C299.5 401.456 293.456 407.5 286 407.5H114C106.544 407.5 100.5 401.456 100.5 394C100.5 386.544 106.544 380.5 114 380.5Z" stroke="#D8D6CF"/>
<rect x="104" y="384" width="20" height="20" rx="10" fill="#8D8D8D"/>
<path d="M113.587 396.97C113.86 397.008 114.137 397.008 114.41 396.97C114.783 396.917 115.18 397.048 115.368 397.375C115.598 397.775 115.43 398.292 114.98 398.393C114.333 398.537 113.663 398.537 113.016 398.392C112.566 398.291 112.398 397.774 112.628 397.375C112.816 397.048 113.213 396.916 113.587 396.97ZM117.39 395C117.9 395 118.28 395.48 118.06 395.94C117.866 396.348 117.61 396.722 117.308 397.05C116.996 397.387 116.466 397.276 116.236 396.878C116.048 396.552 116.132 396.144 116.363 395.847C116.446 395.74 116.522 395.628 116.59 395.511C116.76 395.219 117.052 395 117.39 395ZM110.39 394.5C110.767 394.5 111.078 394.778 111.22 395.127C111.326 395.388 111.464 395.627 111.635 395.846C111.866 396.142 111.95 396.55 111.762 396.875C111.532 397.273 111.001 397.385 110.689 397.047C110.239 396.558 109.903 395.976 109.705 395.342C109.568 394.903 109.93 394.5 110.39 394.5ZM110.689 390.955C111 390.616 111.532 390.728 111.762 391.127C111.95 391.452 111.866 391.86 111.635 392.157C111.464 392.374 111.326 392.613 111.221 392.873C111.079 393.222 110.768 393.5 110.391 393.5C109.932 393.5 109.569 393.097 109.706 392.658C109.906 392.018 110.246 391.438 110.689 390.955ZM117.75 389C117.949 389 118.14 389.079 118.28 389.22C118.421 389.36 118.5 389.551 118.5 389.75V392.25C118.5 392.449 118.421 392.64 118.28 392.78C118.14 392.921 117.949 393 117.75 393H115.25C115.051 393 114.86 392.921 114.72 392.78C114.579 392.64 114.5 392.449 114.5 392.25C114.5 392.051 114.579 391.86 114.72 391.72C114.86 391.579 115.051 391.5 115.25 391.5H115.656C115.047 391.094 114.31 390.927 113.585 391.03C113.211 391.082 112.815 390.95 112.626 390.624C112.396 390.225 112.564 389.709 113.013 389.608C113.331 389.537 113.66 389.501 114 389.5C115.107 389.499 116.176 389.908 116.999 390.648V389.75C116.999 389.651 117.018 389.554 117.056 389.463C117.094 389.372 117.149 389.289 117.219 389.219C117.289 389.15 117.372 389.094 117.463 389.057C117.554 389.019 117.651 389 117.75 389Z" fill="white"/>
<text fill="#37352F" style="white-space: pre" xml:space="preserve" font-family="Inter" font-size="10" font-weight="600" letter-spacing="0.05em"><tspan x="187.754" y="397.636">SNOOZE</tspan></text>
<path d="M114 448.5H286C293.456 448.5 299.5 454.544 299.5 462C299.5 469.456 293.456 475.5 286 475.5H114C106.544 475.5 100.5 469.456 100.5 462C100.5 454.544 106.544 448.5 114 448.5Z" fill="#F7F6F3"/>
<path d="M114 448.5H286C293.456 448.5 299.5 454.544 299.5 462C299.5 469.456 293.456 475.5 286 475.5H114C106.544 475.5 100.5 469.456 100.5 462C100.5 454.544 106.544 448.5 114 448.5Z" stroke="#D8D6CF"/>
<rect x="104" y="452" width="20" height="20" rx="10" fill="#8D8D8D"/>
<path d="M114 457C113.47 457 112.961 457.211 112.586 457.586C112.211 457.961 112 458.47 112 459C112 459.53 112.211 460.039 112.586 460.414C112.961 460.789 113.47 461 114 461C114.53 461 115.039 460.789 115.414 460.414C115.789 460.039 116 459.53 116 459C116 458.47 115.789 457.961 115.414 457.586C115.039 457.211 114.53 457 114 457ZM116.5 462H111.5C111.102 462 110.721 462.158 110.439 462.439C110.158 462.721 110 463.102 110 463.5C110 464.616 110.459 465.51 111.212 466.115C111.953 466.71 112.947 467 114 467C115.053 467 116.047 466.71 116.788 466.115C117.54 465.51 118 464.616 118 463.5C118 463.102 117.842 462.721 117.561 462.439C117.279 462.158 116.898 462 116.5 462Z" fill="white"/>
<text fill="#37352F" style="white-space: pre" xml:space="preserve" font-family="Inter" font-size="10" font-weight="600" letter-spacing="0.05em"><tspan x="168.295" y="465.636">ASSIGN OWNER</tspan></text>
<path d="M97 260L76 260C67.1634 260 60 267.163 60 276L60 310C60 318.837 67.1634 326 76 326L97 326" stroke="#D8D6CF" stroke-linecap="round"/>
<path d="M100 258C101.105 258 102 258.895 102 260C102 261.105 101.105 262 100 262C98.8954 262 98 261.105 98 260C98 258.895 98.8954 258 100 258Z" fill="white" stroke="#D8D6CF" stroke-width="2"/>
<path d="M98.9106 325.46L95.1368 323.114C94.6981 322.842 94.1363 323.085 94.0212 323.543C93.993 323.655 94.0201 323.772 94.0593 323.88L94.8234 326L94.0593 328.12C94.0201 328.229 93.993 328.345 94.0212 328.457C94.1349 328.908 94.683 329.153 95.1216 328.895L98.8954 326.672C99.3615 326.398 99.3697 325.746 98.9106 325.46Z" fill="#D8D6CF"/>
<rect x="404" y="216" width="260" height="56" rx="8" fill="#37352F"/>
<rect x="404" y="216" width="260" height="56" rx="8" stroke="#37352F" stroke-linecap="round" stroke-linejoin="round"/>
<text fill="white" style="white-space: pre" xml:space="preserve" font-family="Inter" font-size="14" font-weight="500" letter-spacing="0em"><tspan x="495.049" y="249.091">Resolutions</tspan></text>
<path d="M401 224L340 224C331.163 224 324 231.163 324 240L324 650C324 658.837 331.163 666 340 666L401 666" stroke="#37352F" stroke-linecap="round"/>
<path d="M404 222C405.105 222 406 222.895 406 224C406 225.105 405.105 226 404 226C402.895 226 402 225.105 402 224C402 222.895 402.895 222 404 222Z" fill="white" stroke="#37352F" stroke-width="2"/>
<path d="M402.911 665.46L399.137 663.114C398.698 662.842 398.136 663.085 398.021 663.543C397.993 663.655 398.02 663.772 398.059 663.88L398.823 666L398.059 668.12C398.02 668.229 397.993 668.345 398.021 668.457C398.135 668.908 398.683 669.153 399.122 668.895L402.895 666.672C403.361 666.398 403.37 665.746 402.911 665.46Z" fill="#37352F"/>
<path d="M401 232L348 232C339.163 232 332 239.163 332 248L332 582C332 590.837 339.163 598 348 598L401 598" stroke="#37352F" stroke-linecap="round"/>
<path d="M404 230C405.105 230 406 230.895 406 232C406 233.105 405.105 234 404 234C402.895 234 402 233.105 402 232C402 230.895 402.895 230 404 230Z" fill="white" stroke="#37352F" stroke-width="2"/>
<path d="M402.911 597.46L399.137 595.114C398.698 594.842 398.136 595.085 398.021 595.543C397.993 595.655 398.02 595.772 398.059 595.88L398.823 598L398.059 600.12C398.02 600.229 397.993 600.345 398.021 600.457C398.135 600.908 398.683 601.153 399.122 600.895L402.895 598.672C403.361 598.398 403.37 597.746 402.911 597.46Z" fill="#37352F"/>
<path d="M401 240L356 240C347.163 240 340 247.163 340 256L340 514C340 522.837 347.163 530 356 530L401 530" stroke="#37352F" stroke-linecap="round"/>
<path d="M404 238C405.105 238 406 238.895 406 240C406 241.105 405.105 242 404 242C402.895 242 402 241.105 402 240C402 238.895 402.895 238 404 238Z" fill="white" stroke="#37352F" stroke-width="2"/>
<path d="M402.911 529.46L399.137 527.114C398.698 526.842 398.136 527.085 398.021 527.543C397.993 527.655 398.02 527.772 398.059 527.88L398.823 530L398.059 532.12C398.02 532.229 397.993 532.345 398.021 532.457C398.135 532.908 398.683 533.153 399.122 532.895L402.895 530.672C403.361 530.398 403.37 529.746 402.911 529.46Z" fill="#37352F"/>
<path d="M401 248L364 248C355.163 248 348 255.163 348 264L348 446C348 454.837 355.163 462 364 462L401 462" stroke="#37352F" stroke-linecap="round"/>
<path d="M404 246C405.105 246 406 246.895 406 248C406 249.105 405.105 250 404 250C402.895 250 402 249.105 402 248C402 246.895 402.895 246 404 246Z" fill="white" stroke="#37352F" stroke-width="2"/>
<path d="M402.911 461.46L399.137 459.114C398.698 458.842 398.136 459.085 398.021 459.543C397.993 459.655 398.02 459.772 398.059 459.88L398.823 462L398.059 464.12C398.02 464.229 397.993 464.345 398.021 464.457C398.135 464.908 398.683 465.153 399.122 464.895L402.895 462.672C403.361 462.398 403.37 461.746 402.911 461.46Z" fill="#37352F"/>
<path d="M401 256L372 256C363.163 256 356 263.163 356 272L356 378C356 386.837 363.163 394 372 394L401 394" stroke="#37352F" stroke-linecap="round"/>
<path d="M404 254C405.105 254 406 254.895 406 256C406 257.105 405.105 258 404 258C402.895 258 402 257.105 402 256C402 254.895 402.895 254 404 254Z" fill="white" stroke="#37352F" stroke-width="2"/>
<path d="M402.911 393.46L399.137 391.114C398.698 390.842 398.136 391.085 398.021 391.543C397.993 391.655 398.02 391.772 398.059 391.88L398.823 394L398.059 396.12C398.02 396.229 397.993 396.345 398.021 396.457C398.135 396.908 398.683 397.153 399.122 396.895L402.895 394.672C403.361 394.398 403.37 393.746 402.911 393.46Z" fill="#37352F"/>
<rect x="404" y="312" width="260" height="28" rx="14" fill="#37352F"/>
<rect x="408" y="316" width="20" height="20" rx="10" fill="#C07D0A"/>
<path d="M421.765 323.205C421.91 323.341 421.994 323.53 422 323.729C422.005 323.927 421.932 324.12 421.795 324.265L417.545 328.765C417.476 328.838 417.393 328.896 417.302 328.936C417.21 328.976 417.111 328.998 417.011 328.999C416.911 329.001 416.811 328.982 416.718 328.944C416.625 328.907 416.541 328.851 416.47 328.78L414.22 326.53C414.088 326.388 414.015 326.2 414.019 326.005C414.022 325.811 414.101 325.626 414.238 325.488C414.376 325.351 414.561 325.272 414.756 325.269C414.95 325.265 415.138 325.337 415.28 325.47L416.985 327.174L420.705 323.235C420.842 323.09 421.03 323.006 421.229 323C421.428 322.995 421.621 323.068 421.765 323.205Z" fill="white"/>
<text fill="white" style="white-space: pre" xml:space="preserve" font-family="Inter" font-size="10" font-weight="600" letter-spacing="0.05em"><tspan x="503.456" y="329.636">APPROVE AS IS</tspan></text>
<rect x="404" y="380" width="260" height="28" rx="14" fill="#37352F"/>
<rect x="408" y="384" width="20" height="20" rx="10" fill="#8D8D8D"/>
<path d="M413.897 390.054L413.97 389.97C414.097 389.843 414.265 389.766 414.444 389.752C414.624 389.739 414.801 389.79 414.946 389.897L415.03 389.97L418 392.939L420.97 389.969C421.039 389.897 421.122 389.84 421.213 389.801C421.305 389.762 421.403 389.741 421.503 389.74C421.603 389.739 421.701 389.758 421.793 389.796C421.886 389.834 421.969 389.89 422.04 389.96C422.11 390.031 422.166 390.114 422.203 390.207C422.241 390.299 422.26 390.398 422.259 390.497C422.258 390.597 422.237 390.695 422.198 390.787C422.159 390.878 422.102 390.961 422.03 391.03L419.061 394L422.031 396.97C422.158 397.097 422.235 397.265 422.248 397.445C422.261 397.624 422.21 397.802 422.103 397.946L422.03 398.03C421.903 398.157 421.735 398.234 421.555 398.248C421.376 398.261 421.198 398.21 421.054 398.103L420.97 398.03L418 395.061L415.03 398.031C414.961 398.103 414.878 398.16 414.786 398.199C414.695 398.238 414.596 398.259 414.497 398.26C414.397 398.26 414.299 398.241 414.206 398.204C414.114 398.166 414.031 398.11 413.96 398.04C413.89 397.969 413.834 397.886 413.796 397.793C413.759 397.701 413.74 397.602 413.741 397.503C413.742 397.403 413.762 397.305 413.802 397.213C413.841 397.122 413.898 397.039 413.97 396.97L416.939 394L413.969 391.03C413.842 390.903 413.765 390.734 413.752 390.555C413.739 390.376 413.79 390.198 413.897 390.054Z" fill="white"/>
<text fill="white" style="white-space: pre" xml:space="preserve" font-family="Inter" font-size="10" font-weight="600" letter-spacing="0.05em"><tspan x="499.866" y="397.636">REJECT INVOICE</tspan></text>
<rect x="404" y="448" width="260" height="28" rx="14" fill="#37352F"/>
<rect x="408" y="452" width="20" height="20" rx="10" fill="#8D8D8D"/>
<path d="M419.423 458.925C419.479 458.87 419.523 458.803 419.553 458.73C419.583 458.658 419.599 458.58 419.599 458.501C419.599 458.422 419.583 458.344 419.553 458.271C419.523 458.198 419.479 458.132 419.423 458.076L418.173 456.826C418.06 456.714 417.908 456.65 417.748 456.65C417.589 456.65 417.437 456.714 417.324 456.826C417.211 456.939 417.148 457.092 417.148 457.251C417.148 457.41 417.211 457.563 417.324 457.675L417.572 457.922C416.837 457.999 416.136 458.273 415.543 458.716C414.951 459.159 414.49 459.754 414.208 460.437C413.926 461.121 413.834 461.868 413.942 462.599C414.051 463.331 414.354 464.019 414.822 464.592C414.923 464.716 415.068 464.794 415.226 464.81C415.385 464.826 415.543 464.778 415.666 464.678C415.79 464.577 415.868 464.432 415.884 464.273C415.9 464.115 415.853 463.957 415.752 463.833C415.431 463.44 415.219 462.971 415.137 462.47C415.055 461.97 415.105 461.457 415.283 460.982C415.461 460.507 415.76 460.088 416.151 459.765C416.542 459.442 417.01 459.227 417.51 459.141L417.324 459.326C417.211 459.439 417.148 459.592 417.148 459.751C417.148 459.91 417.211 460.063 417.324 460.175C417.437 460.288 417.589 460.351 417.748 460.351C417.908 460.351 418.06 460.288 418.173 460.175L419.423 458.925ZM420.124 459.155C420.067 459.21 420.02 459.275 419.988 459.347C419.956 459.419 419.938 459.497 419.936 459.576C419.934 459.655 419.948 459.733 419.976 459.807C420.005 459.881 420.047 459.948 420.102 460.005C420.464 460.386 420.715 460.858 420.829 461.371C420.944 461.884 420.916 462.418 420.751 462.917C420.585 463.415 420.287 463.859 419.888 464.202C419.49 464.544 419.006 464.772 418.488 464.86L418.673 464.675C418.786 464.563 418.849 464.41 418.849 464.251C418.849 464.092 418.786 463.939 418.673 463.826C418.56 463.714 418.408 463.65 418.248 463.65C418.089 463.65 417.937 463.714 417.824 463.826L416.574 465.076C416.518 465.132 416.474 465.198 416.444 465.271C416.413 465.344 416.398 465.422 416.398 465.501C416.398 465.58 416.413 465.658 416.444 465.73C416.474 465.803 416.518 465.87 416.574 465.925L417.824 467.175C417.937 467.288 418.089 467.351 418.248 467.351C418.408 467.351 418.56 467.288 418.673 467.175C418.786 467.063 418.849 466.91 418.849 466.751C418.849 466.592 418.786 466.439 418.673 466.326L418.425 466.078C419.186 465.999 419.91 465.707 420.514 465.238C421.118 464.768 421.579 464.138 421.844 463.42C422.109 462.702 422.168 461.924 422.014 461.175C421.86 460.425 421.499 459.733 420.972 459.178C420.862 459.063 420.711 458.996 420.552 458.992C420.393 458.988 420.239 459.046 420.124 459.155Z" fill="white"/>
<text fill="white" style="white-space: pre" xml:space="preserve" font-family="Inter" font-size="10" font-weight="600" letter-spacing="0.05em"><tspan x="496.506" y="465.636">UPDATE PO PRICE</tspan></text>
<rect x="404" y="516" width="260" height="28" rx="14" fill="#37352F"/>
<rect x="408" y="520" width="20" height="20" rx="10" fill="#8D8D8D"/>
<path d="M413 530C413 528.674 413.527 527.402 414.464 526.464C415.402 525.527 416.674 525 418 525C419.326 525 420.598 525.527 421.536 526.464C422.473 527.402 423 528.674 423 530C423 531.326 422.473 532.598 421.536 533.536C420.598 534.473 419.326 535 418 535C416.674 535 415.402 534.473 414.464 533.536C413.527 532.598 413 531.326 413 530ZM414.5 530H421.5C421.5 529.54 421.409 529.085 421.234 528.661C421.058 528.236 420.8 527.85 420.475 527.525C420.15 527.2 419.764 526.942 419.339 526.766C418.915 526.591 418.46 526.5 418 526.5C417.54 526.5 417.085 526.591 416.661 526.766C416.236 526.942 415.85 527.2 415.525 527.525C415.2 527.85 414.942 528.236 414.766 528.661C414.591 529.085 414.5 529.54 414.5 530Z" fill="white"/>
<text fill="white" style="white-space: pre" xml:space="preserve" font-family="Inter" font-size="10" font-weight="600" letter-spacing="0.05em"><tspan x="491.578" y="533.636">PARTIAL APPROVAL</tspan></text>
<rect x="404" y="584" width="260" height="28" rx="14" fill="#37352F"/>
<rect x="408" y="588" width="20" height="20" rx="10" fill="#C95D45"/>
<path d="M416.283 593.973C417.06 592.676 418.938 592.676 419.715 593.973L422.712 598.978C423.509 600.31 422.549 602.005 420.996 602.005H415.003C413.449 602.005 412.489 600.311 413.287 598.978L416.283 593.973ZM418 598.75C417.801 598.75 417.61 598.829 417.47 598.97C417.329 599.111 417.25 599.301 417.25 599.5C417.25 599.699 417.329 599.89 417.47 600.031C417.61 600.171 417.801 600.25 418 600.25C418.199 600.25 418.39 600.171 418.53 600.031C418.671 599.89 418.75 599.699 418.75 599.5C418.75 599.301 418.671 599.111 418.53 598.97C418.39 598.829 418.199 598.75 418 598.75ZM418 595.5C417.867 595.5 417.74 595.553 417.647 595.647C417.553 595.74 417.5 595.868 417.5 596V597.5C417.5 597.633 417.553 597.76 417.647 597.854C417.74 597.948 417.867 598 418 598C418.133 598 418.26 597.948 418.354 597.854C418.447 597.76 418.5 597.633 418.5 597.5V596C418.5 595.868 418.447 595.74 418.354 595.647C418.26 595.553 418.133 595.5 418 595.5Z" fill="white"/>
<text fill="white" style="white-space: pre" xml:space="preserve" font-family="Inter" font-size="10" font-weight="600" letter-spacing="0.05em"><tspan x="483.489" y="601.636">FLAG VENDOR AS RISK</tspan></text>
<rect x="404" y="652" width="260" height="28" rx="14" fill="#37352F"/>
<rect x="408" y="656" width="20" height="20" rx="10" fill="#8D8D8D"/>
<path d="M415 661C414.47 661 413.961 661.211 413.586 661.586C413.211 661.961 413 662.47 413 663V667C413 667.53 413.211 668.039 413.586 668.414C413.961 668.789 414.47 669 415 669V670.5C415 670.59 415.025 670.679 415.071 670.757C415.118 670.834 415.184 670.898 415.264 670.941C415.344 670.983 415.434 671.003 415.524 670.999C415.614 670.995 415.702 670.966 415.777 670.916L418.651 669H421C421.53 669 422.039 668.789 422.414 668.414C422.789 668.039 423 667.53 423 667V663C423 662.47 422.789 661.961 422.414 661.586C422.039 661.211 421.53 661 421 661H415Z" fill="white"/>
<text fill="white" style="white-space: pre" xml:space="preserve" font-family="Inter" font-size="10" font-weight="600" letter-spacing="0.05em"><tspan x="460.798" y="669.636">REQUEST CORRECTED INVOICE</tspan></text>
<path d="M401 264L380 264C371.163 264 364 271.163 364 280L364 310C364 318.837 371.163 326 380 326L401 326" stroke="#37352F" stroke-linecap="round"/>
<path d="M404 262C405.105 262 406 262.895 406 264C406 265.105 405.105 266 404 266C402.895 266 402 265.105 402 264C402 262.895 402.895 262 404 262Z" fill="white" stroke="#37352F" stroke-width="2"/>
<path d="M402.911 325.46L399.137 323.114C398.698 322.842 398.136 323.085 398.021 323.543C397.993 323.655 398.02 323.772 398.059 323.88L398.823 326L398.059 328.12C398.02 328.229 397.993 328.345 398.021 328.457C398.135 328.908 398.683 329.153 399.122 328.895L402.895 326.672C403.361 326.398 403.37 325.746 402.911 325.46Z" fill="#37352F"/>
<path d="M534 211L534 200C534 191.163 526.837 184 518 184L216 184C207.163 184 200 191.163 200 200L200 211" stroke="#37352F" stroke-linecap="round"/>
<path d="M352 184L352 153.982" stroke="#37352F" stroke-linecap="round"/>
<path d="M534.54 214.911L536.886 211.137C537.158 210.698 536.915 210.136 536.457 210.021C536.345 209.993 536.228 210.02 536.12 210.059L534 210.823L531.88 210.059C531.771 210.02 531.655 209.993 531.543 210.021C531.092 210.135 530.847 210.683 531.105 211.122L533.328 214.895C533.602 215.361 534.254 215.37 534.54 214.911Z" fill="#37352F"/>
<path d="M200.54 214.911L202.886 211.137C203.158 210.698 202.915 210.136 202.457 210.021C202.345 209.993 202.228 210.02 202.12 210.059L200 210.823L197.88 210.059C197.771 210.02 197.655 209.993 197.543 210.021C197.092 210.135 196.847 210.683 197.105 211.122L199.328 214.895C199.602 215.361 200.254 215.37 200.54 214.911Z" fill="#37352F"/>
<path d="M350 152C350 150.895 350.895 150 352 150C353.105 150 354 150.895 354 152C354 153.105 353.105 154 352 154C350.895 154 350 153.105 350 152Z" fill="white" stroke="#37352F" stroke-width="2"/>
<defs>
<clipPath id="clip0_2814_7002">
<rect x="242" y="40" width="220" height="112" rx="8" fill="white"/>
</clipPath>
</defs>
</svg>
