<svg width="672" height="944" viewBox="0 0 672 944" fill="none" xmlns="http://www.w3.org/2000/svg">
<rect x="0.5" y="0.5" width="671" height="942.539" rx="7.5" fill="white"/>
<rect x="0.5" y="0.5" width="671" height="942.539" rx="7.5" stroke="#E0E1E6"/>
<rect x="246.088" y="40" width="180" height="64" rx="8" fill="#37352F"/>
<rect x="246.088" y="40" width="180" height="64" rx="8" stroke="#37352F" stroke-linecap="round" stroke-linejoin="round"/>
<text fill="white" style="white-space: pre" xml:space="preserve" font-family="Inter" font-size="14" font-weight="500" letter-spacing="0em"><tspan x="281.53" y="77.0909">&#x41f;&#x43e;&#x441;&#x442;&#x443;&#x43f;&#x430;&#x435;&#x442; &#x441;&#x447;&#x451;&#x442;</tspan></text>
<rect x="246.088" y="144" width="180" height="64" rx="8" fill="#F7F6F3"/>
<rect x="246.088" y="144" width="180" height="64" rx="8" stroke="#D8D6CF" stroke-linecap="round" stroke-linejoin="round"/>
<text fill="#37352F" style="white-space: pre" xml:space="preserve" font-family="Inter" font-size="14" font-weight="500" letter-spacing="0em"><tspan x="308.833" y="170.591">&#x421;&#x432;&#x435;&#x440;&#x43a;&#x430; &#10;</tspan><tspan x="294.491" y="191.591">&#x434;&#x43e;&#x43a;&#x443;&#x43c;&#x435;&#x43d;&#x442;&#x43e;&#x432;</tspan></text>
<rect x="246.088" y="248" width="180" height="64" rx="8" fill="#FFF6DD"/>
<rect x="246.088" y="248" width="180" height="64" rx="8" stroke="#EDD6A2" stroke-linecap="round" stroke-linejoin="round"/>
<text fill="#8A5A00" style="white-space: pre" xml:space="preserve" font-family="Inter" font-size="14" font-weight="500" letter-spacing="0em"><tspan x="289.036" y="274.591">&#x420;&#x430;&#x441;&#x445;&#x43e;&#x436;&#x434;&#x435;&#x43d;&#x438;&#x435; </tspan><tspan x="293.261" y="295.591">&#x43e;&#x431;&#x43d;&#x430;&#x440;&#x443;&#x436;&#x435;&#x43d;&#x43e;</tspan></text>
<path d="M336.088 106.323L336.088 139" stroke="#37352F" stroke-linecap="round"/>
<path d="M336.628 142.911L338.973 139.137C339.246 138.698 339.003 138.136 338.545 138.021C338.433 137.993 338.316 138.02 338.208 138.059L336.088 138.823L333.968 138.059C333.859 138.02 333.743 137.993 333.631 138.021C333.179 138.135 332.935 138.683 333.193 139.122L335.415 142.895C335.69 143.361 336.342 143.37 336.628 142.911Z" fill="#37352F"/>
<path d="M334.088 104C334.088 102.895 334.983 102 336.088 102C337.192 102 338.088 102.895 338.088 104C338.088 105.105 337.192 106 336.088 106C334.983 106 334.088 105.105 334.088 104Z" fill="white" stroke="#37352F" stroke-width="2"/>
<path d="M336.088 210.323L336.088 243" stroke="#D8D6CF" stroke-linecap="round"/>
<path d="M336.628 246.911L338.973 243.137C339.246 242.698 339.003 242.136 338.545 242.021C338.433 241.993 338.316 242.02 338.208 242.059L336.088 242.823L333.968 242.059C333.859 242.02 333.743 241.993 333.631 242.021C333.179 242.135 332.935 242.683 333.193 243.122L335.415 246.895C335.69 247.361 336.342 247.37 336.628 246.911Z" fill="#D8D6CF"/>
<path d="M334.088 208C334.088 206.895 334.983 206 336.088 206C337.192 206 338.088 206.895 338.088 208C338.088 209.105 337.192 210 336.088 210C334.983 210 334.088 209.105 334.088 208Z" fill="white" stroke="#D8D6CF" stroke-width="2"/>
<path d="M446 419L446 353.472C446 344.635 438.837 337.472 430 337.472L242 337.472C233.163 337.472 226 344.635 226 353.472L226 419" stroke="#EDD6A2" stroke-linecap="round"/>
<path d="M336 337.472L336 313.982" stroke="#EDD6A2" stroke-linecap="round"/>
<path d="M446.54 422.911L448.886 419.137C449.158 418.698 448.915 418.136 448.457 418.021C448.345 417.993 448.228 418.02 448.12 418.059L446 418.823L443.88 418.059C443.771 418.02 443.655 417.993 443.543 418.021C443.092 418.135 442.847 418.683 443.105 419.122L445.328 422.895C445.602 423.361 446.254 423.37 446.54 422.911Z" fill="#EDD6A2"/>
<path d="M226.54 422.911L228.886 419.137C229.158 418.698 228.915 418.136 228.457 418.021C228.345 417.993 228.228 418.02 228.12 418.059L226 418.823L223.88 418.059C223.771 418.02 223.655 417.993 223.543 418.021C223.092 418.135 222.847 418.683 223.105 419.122L225.328 422.895C225.602 423.361 226.254 423.37 226.54 422.911Z" fill="#EDD6A2"/>
<path d="M334 312C334 310.895 334.895 310 336 310C337.105 310 338 310.895 338 312C338 313.105 337.105 314 336 314C334.895 314 334 313.105 334 312Z" fill="white" stroke="#EDD6A2" stroke-width="2"/>
<path d="M136 431.539C136 427.121 139.582 423.539 144 423.539H308C312.418 423.539 316 427.121 316 431.539V479.539C316 483.957 312.418 487.539 308 487.539H144C139.582 487.539 136 483.957 136 479.539V431.539Z" fill="#FDF0ED"/>
<path d="M136 431.539C136 427.121 139.582 423.539 144 423.539H308C312.418 423.539 316 427.121 316 431.539V479.539C316 483.957 312.418 487.539 308 487.539H144C139.582 487.539 136 483.957 136 479.539V431.539Z" stroke="#F2C8BD"/>
<text fill="#9F341F" style="white-space: pre" xml:space="preserve" font-family="Inter" font-size="14" font-weight="500" letter-spacing="0em"><tspan x="172.283" y="450.13">&#x41a;&#x43e;&#x43c;&#x43c;&#x443;&#x43d;&#x438;&#x43a;&#x430;&#x446;&#x438;&#x44f; &#10;</tspan><tspan x="173.924" y="471.13">&#x443;&#x445;&#x43e;&#x434;&#x438;&#x442; &#x43d;&#x430;&#x440;&#x443;&#x436;&#x443;</tspan></text>
<path d="M356 431.539C356 427.121 359.582 423.539 364 423.539H528C532.418 423.539 536 427.121 536 431.539V479.539C536 483.957 532.418 487.539 528 487.539H364C359.582 487.539 356 483.957 356 479.539V431.539Z" fill="#FFF6DD"/>
<path d="M356 431.539C356 427.121 359.582 423.539 364 423.539H528C532.418 423.539 536 427.121 536 431.539V479.539C536 483.957 532.418 487.539 528 487.539H364C359.582 487.539 356 483.957 356 479.539V431.539Z" stroke="#EDD6A2" stroke-linecap="round" stroke-linejoin="round"/>
<text fill="#8A5A00" style="white-space: pre" xml:space="preserve" font-family="Inter" font-size="14" font-weight="500" letter-spacing="0em"><tspan x="393.596" y="450.13">&#x418;&#x441;&#x43a;&#x43b;&#x44e;&#x447;&#x435;&#x43d;&#x438;&#x435; &#x2014; </tspan><tspan x="372.015" y="471.13">&#x443;&#x43f;&#x440;&#x430;&#x432;&#x43b;&#x44f;&#x435;&#x43c;&#x44b;&#x439; &#x43e;&#x431;&#x44a;&#x435;&#x43a;&#x442;</tspan></text>
<rect x="356" y="527.539" width="180" height="64" rx="8" fill="#F7F6F3"/>
<rect x="356" y="527.539" width="180" height="64" rx="8" stroke="#D8D6CF" stroke-linecap="round" stroke-linejoin="round"/>
<text fill="#37352F" style="white-space: pre" xml:space="preserve" font-family="Inter" font-size="14" font-weight="500" letter-spacing="0em"><tspan x="401.149" y="564.63">&#x414;&#x438;&#x430;&#x433;&#x43d;&#x43e;&#x441;&#x442;&#x438;&#x43a;&#x430;</tspan></text>
<rect x="356" y="631.539" width="180" height="64" rx="8" fill="#F7F6F3"/>
<rect x="356" y="631.539" width="180" height="64" rx="8" stroke="#D8D6CF" stroke-linecap="round" stroke-linejoin="round"/>
<text fill="#37352F" style="white-space: pre" xml:space="preserve" font-family="Inter" font-size="14" font-weight="500" letter-spacing="0em"><tspan x="389.241" y="668.63">&#x41c;&#x430;&#x440;&#x448;&#x440;&#x443;&#x442;&#x438;&#x437;&#x430;&#x446;&#x438;&#x44f;</tspan></text>
<rect x="356" y="735.539" width="180" height="64" rx="8" fill="#EDF7EF"/>
<rect x="356" y="735.539" width="180" height="64" rx="8" stroke="#C6DFCA" stroke-linecap="round" stroke-linejoin="round"/>
<text fill="#2F6B3F" style="white-space: pre" xml:space="preserve" font-family="Inter" font-size="14" font-weight="500" letter-spacing="0em"><tspan x="384.982" y="772.63">&#x420;&#x435;&#x448;&#x435;&#x43d;&#x438;&#x435; &#x43f;&#x440;&#x438;&#x43d;&#x44f;&#x442;&#x43e;</tspan></text>
<rect x="356" y="839.539" width="180" height="64" rx="8" fill="#37352F"/>
<rect x="356" y="839.539" width="180" height="64" rx="8" stroke="#37352F" stroke-linecap="round" stroke-linejoin="round"/>
<text fill="white" style="white-space: pre" xml:space="preserve" font-family="Inter" font-size="14" font-weight="500" letter-spacing="0em"><tspan x="381.817" y="876.63">&#x418;&#x441;&#x442;&#x43e;&#x440;&#x438;&#x44f; &#x434;&#x435;&#x439;&#x441;&#x442;&#x432;&#x438;&#x439;</tspan></text>
<rect x="395.5" y="363" width="101" height="32" rx="16" fill="white"/>
<rect x="395.5" y="363" width="101" height="32" rx="16" stroke="#D8D6CF" stroke-linecap="round" stroke-linejoin="round"/>
<text fill="#37352F" style="white-space: pre" xml:space="preserve" font-family="Inter" font-size="14" font-weight="500" letter-spacing="0em"><tspan x="407.917" y="384.091">Matchpoint</tspan></text>
<path d="M446 489.862L446 522.539" stroke="#EDD6A2" stroke-linecap="round"/>
<path d="M446.54 526.45L448.886 522.676C449.158 522.237 448.915 521.675 448.457 521.56C448.345 521.532 448.228 521.559 448.12 521.598L446 522.363L443.88 521.598C443.771 521.559 443.655 521.532 443.543 521.56C443.092 521.674 442.847 522.222 443.105 522.661L445.328 526.434C445.602 526.901 446.254 526.909 446.54 526.45Z" fill="#EDD6A2"/>
<path d="M444 487.539C444 486.434 444.895 485.539 446 485.539C447.105 485.539 448 486.434 448 487.539C448 488.644 447.105 489.539 446 489.539C444.895 489.539 444 488.644 444 487.539Z" fill="white" stroke="#EDD6A2" stroke-width="2"/>
<path d="M446 593.862L446 626.539" stroke="#D8D6CF" stroke-linecap="round"/>
<path d="M446.54 630.45L448.886 626.676C449.158 626.237 448.915 625.675 448.457 625.56C448.345 625.532 448.228 625.559 448.12 625.598L446 626.363L443.88 625.598C443.771 625.559 443.655 625.532 443.543 625.56C443.092 625.674 442.847 626.222 443.105 626.661L445.328 630.434C445.602 630.901 446.254 630.909 446.54 630.45Z" fill="#D8D6CF"/>
<path d="M444 591.539C444 590.434 444.895 589.539 446 589.539C447.105 589.539 448 590.434 448 591.539C448 592.644 447.105 593.539 446 593.539C444.895 593.539 444 592.644 444 591.539Z" fill="white" stroke="#D8D6CF" stroke-width="2"/>
<path d="M446 697.862L446 730.539" stroke="#D8D6CF" stroke-linecap="round"/>
<path d="M446.54 734.45L448.886 730.676C449.158 730.237 448.915 729.675 448.457 729.56C448.345 729.532 448.228 729.559 448.12 729.598L446 730.363L443.88 729.598C443.771 729.559 443.655 729.532 443.543 729.56C443.092 729.674 442.847 730.222 443.105 730.661L445.328 734.434C445.602 734.901 446.254 734.909 446.54 734.45Z" fill="#D8D6CF"/>
<path d="M444 695.539C444 694.434 444.895 693.539 446 693.539C447.105 693.539 448 694.434 448 695.539C448 696.644 447.105 697.539 446 697.539C444.895 697.539 444 696.644 444 695.539Z" fill="white" stroke="#D8D6CF" stroke-width="2"/>
<path d="M446 801.862L446 834.539" stroke="#C6DFCA" stroke-linecap="round"/>
<path d="M446.54 838.45L448.886 834.676C449.158 834.237 448.915 833.675 448.457 833.56C448.345 833.532 448.228 833.559 448.12 833.598L446 834.363L443.88 833.598C443.771 833.559 443.655 833.532 443.543 833.56C443.092 833.674 442.847 834.222 443.105 834.661L445.328 838.434C445.602 838.901 446.254 838.909 446.54 838.45Z" fill="#C6DFCA"/>
<path d="M444 799.539C444 798.434 444.895 797.539 446 797.539C447.105 797.539 448 798.434 448 799.539C448 800.644 447.105 801.539 446 801.539C444.895 801.539 444 800.644 444 799.539Z" fill="white" stroke="#C6DFCA" stroke-width="2"/>
<rect x="145" y="363" width="163" height="32" rx="16" fill="white"/>
<rect x="145" y="363" width="163" height="32" rx="16" stroke="#D8D6CF" stroke-linecap="round" stroke-linejoin="round"/>
<text fill="#37352F" style="white-space: pre" xml:space="preserve" font-family="Inter" font-size="14" font-weight="500" letter-spacing="0em"><tspan x="157.054" y="384.091">&#x422;&#x440;&#x430;&#x434;&#x438;&#x446;&#x438;&#x43e;&#x43d;&#x43d;&#x44b;&#x439; &#x43f;&#x443;&#x442;&#x44c;</tspan></text>
</svg>
