<svg width="1264" height="2136" viewBox="0 0 1264 2136" fill="none" xmlns="http://www.w3.org/2000/svg">
<rect x="0.5" y="0.5" width="1263" height="2135" rx="7.5" fill="white"/>
<rect x="0.5" y="0.5" width="1263" height="2135" rx="7.5" stroke="#EAE9E5"/>
<rect x="520" y="120" width="224" height="128" rx="8" fill="#F7F6F3"/>
<rect x="520" y="120" width="224" height="128" rx="8" stroke="#D8D6CF" stroke-linecap="round" stroke-linejoin="round"/>
<text fill="#37352F" style="white-space: pre" xml:space="preserve" font-family="Inter" font-size="14" font-weight="500" letter-spacing="0em"><tspan x="549.326" y="168.091">&#x421;&#x447;&#x451;&#x442; &#x43f;&#x43e;&#x441;&#x442;&#x443;&#x43f;&#x430;&#x435;&#x442;: &#x440;&#x443;&#x447;&#x43d;&#x430;&#x44f; </tspan><tspan x="554.46" y="189.091">&#x437;&#x430;&#x433;&#x440;&#x443;&#x437;&#x43a;&#x430;, OCR, &#x440;&#x443;&#x447;&#x43d;&#x43e;&#x439; </tspan><tspan x="603.61" y="210.091">&#x442;&#x435;&#x433; &#x43a; PO</tspan></text>
<rect x="992" y="41" width="16" height="16" rx="8" fill="#FDF0ED"/>
<rect x="992" y="41" width="16" height="16" rx="8" stroke="#F2C8BD" stroke-dasharray="4 4"/>
<text fill="#37352F" style="white-space: pre" xml:space="preserve" font-family="Inter" font-size="13" letter-spacing="0em"><tspan x="1094.33" y="53.7273"> </tspan></text>
<text fill="#37352F" style="white-space: pre" xml:space="preserve" font-family="Inter" font-size="12" font-weight="600" letter-spacing="0em"><tspan x="1016" y="53.7273">&#x422;&#x43e;&#x447;&#x43a;&#x430; &#x43e;&#x442;&#x43a;&#x430;&#x437;&#x430;</tspan></text>
<text fill="#37352F" style="white-space: pre" xml:space="preserve" font-family="Inter" font-size="12" letter-spacing="0em"><tspan x="1097.98" y="53.7273">&#x2014; &#x448;&#x430;&#x433; &#x433;&#x434;&#x435; &#x43f;&#x440;&#x43e;&#x446;&#x435;&#x441;&#x441; </tspan><tspan x="1016" y="71.7273">&#x43b;&#x43e;&#x43c;&#x430;&#x435;&#x442;&#x441;&#x44f; &#x438;&#x43b;&#x438; &#x443;&#x445;&#x43e;&#x434;&#x438;&#x442; &#x432;&#x43d;&#x435; &#x441;&#x438;&#x441;&#x442;&#x435;&#x43c;&#x44b; </tspan><tspan x="1016" y="89.7273">&#x438;&#x437;-&#x437;&#x430; &#x43e;&#x442;&#x441;&#x443;&#x442;&#x441;&#x442;&#x432;&#x438;&#x44f; &#x43a;&#x43e;&#x43d;&#x442;&#x435;&#x43a;&#x441;&#x442;&#x430; &#x438;&#x43b;&#x438; </tspan><tspan x="1016" y="107.727">&#x438;&#x43d;&#x441;&#x442;&#x440;&#x443;&#x43c;&#x435;&#x43d;&#x442;&#x43e;&#x432;</tspan></text>
<rect x="992" y="130" width="16" height="16" rx="8" fill="#FFF6DD"/>
<rect x="992" y="130" width="16" height="16" rx="8" stroke="#EDD6A2" stroke-linecap="round" stroke-linejoin="round"/>
<text fill="#37352F" style="white-space: pre" xml:space="preserve" font-family="Inter" font-size="13" letter-spacing="0em"><tspan x="1135.51" y="142.727"> </tspan></text>
<text fill="#37352F" style="white-space: pre" xml:space="preserve" font-family="Inter" font-size="12" font-weight="600" letter-spacing="0em"><tspan x="1016" y="142.727">&#x421;&#x43a;&#x440;&#x44b;&#x442;&#x43e;&#x435; &#x441;&#x43e;&#x441;&#x442;&#x43e;&#x44f;&#x43d;&#x438;&#x435;</tspan></text>
<text fill="#37352F" style="white-space: pre" xml:space="preserve" font-family="Inter" font-size="12" letter-spacing="0em"><tspan x="1139.16" y="142.727">&#x2014; &#x448;&#x430;&#x433;, &#x43d;&#x435; </tspan><tspan x="1016" y="160.727">&#x434;&#x430;&#x44e;&#x449;&#x438;&#x439; &#x432;&#x438;&#x434;&#x438;&#x43c;&#x43e;&#x433;&#x43e; &#x441;&#x438;&#x433;&#x43d;&#x430;&#x43b;&#x430; </tspan><tspan x="1016" y="178.727">&#x43f;&#x43e;&#x43b;&#x44c;&#x437;&#x43e;&#x432;&#x430;&#x442;&#x435;&#x43b;&#x44e;; &#x43e;&#x448;&#x438;&#x431;&#x43a;&#x430; &#x43f;&#x440;&#x43e;&#x44f;&#x432;&#x438;&#x442;&#x441;&#x44f; </tspan><tspan x="1016" y="196.727">&#x43f;&#x43e;&#x437;&#x436;&#x435;, &#x431;&#x435;&#x437; &#x43f;&#x440;&#x435;&#x434;&#x443;&#x43f;&#x440;&#x435;&#x436;&#x434;&#x435;&#x43d;&#x438;&#x44f;</tspan></text>
<path d="M632 250.323L632 307" stroke="#D8D6CF" stroke-linecap="round"/>
<path d="M632.54 310.911L634.886 307.137C635.158 306.698 634.915 306.136 634.457 306.021C634.345 305.993 634.228 306.02 634.12 306.059L632 306.823L629.88 306.059C629.771 306.02 629.655 305.993 629.543 306.021C629.092 306.135 628.847 306.683 629.105 307.122L631.328 310.895C631.602 311.361 632.254 311.37 632.54 310.911Z" fill="#D8D6CF"/>
<path d="M630 248C630 246.895 630.895 246 632 246C633.105 246 634 246.895 634 248C634 249.105 633.105 250 632 250C630.895 250 630 249.105 630 248Z" fill="white" stroke="#D8D6CF" stroke-width="2"/>
<text fill="#9A988F" style="white-space: pre" xml:space="preserve" font-family="Inter" font-size="12" letter-spacing="0.05em"><tspan x="476" y="57.3636">&#x410;&#x41d;&#x410;&#x41b;&#x418;&#x417; &#x422;&#x415;&#x41a;&#x423;&#x429;&#x415;&#x413;&#x41e; &#x41f;&#x420;&#x41e;&#x426;&#x415;&#x421;&#x421;&#x410;: &#x422;&#x41e;&#x427;&#x41a;&#x418; &#x41e;&#x422;&#x41a;&#x410;&#x417;&#x410;</tspan></text>
<path d="M627.757 316.428C630.1 314.085 633.899 314.085 636.242 316.428L727.571 407.757C729.914 410.1 729.914 413.899 727.571 416.242L636.242 507.571C633.899 509.914 630.1 509.914 627.757 507.571L536.428 416.242C534.085 413.899 534.085 410.1 536.428 407.757L627.757 316.428Z" fill="#F7F6F3" stroke="#D8D6CF" stroke-linecap="round" stroke-linejoin="round"/>
<text fill="#37352F" style="white-space: pre" xml:space="preserve" font-family="Inter" font-size="14" font-weight="500" letter-spacing="0em"><tspan x="573.122" y="417.591">&#x421;&#x43e;&#x432;&#x43f;&#x430;&#x434;&#x430;&#x435;&#x442; &#x441; PO?</tspan></text>
<path d="M669.469 475.999H940C948.837 475.999 956 483.162 956 491.999L956 571" stroke="#D8D6CF" stroke-linecap="round"/>
<path d="M956.54 574.911L958.886 571.137C959.158 570.698 958.915 570.136 958.457 570.021C958.345 569.993 958.228 570.02 958.12 570.059L956 570.823L953.88 570.059C953.771 570.02 953.655 569.993 953.543 570.021C953.092 570.135 952.847 570.683 953.105 571.122L955.328 574.895C955.602 575.361 956.254 575.37 956.54 574.911Z" fill="#D8D6CF"/>
<path d="M668 478C666.895 478 666 477.105 666 476C666 474.895 666.895 474 668 474C669.105 474 670 474.895 670 476C670 477.105 669.105 478 668 478Z" fill="white" stroke="#D8D6CF" stroke-width="2"/>
<rect x="520" y="576" width="224" height="128" rx="56" fill="#FFF6DD"/>
<rect x="520" y="576" width="224" height="128" rx="56" stroke="#EDD6A2" stroke-linecap="round" stroke-linejoin="round"/>
<text fill="#8A5A00" style="white-space: pre" xml:space="preserve" font-family="Inter" font-size="14" font-weight="500" letter-spacing="0em"><tspan x="561.098" y="634.591">&#x41f;&#x440;&#x43e;&#x445;&#x43e;&#x434;&#x438;&#x442; &#x434;&#x430;&#x43b;&#x44c;&#x448;&#x435; &#x2014; </tspan><tspan x="546.92" y="655.591">&#x43e;&#x448;&#x438;&#x431;&#x43a;&#x430; &#x432;&#x441;&#x43f;&#x43b;&#x44b;&#x432;&#x451;&#x442; &#x43f;&#x43e;&#x437;&#x436;&#x435;</tspan></text>
<rect x="844" y="576" width="224" height="128" rx="8" fill="#F7F6F3"/>
<rect x="844" y="576" width="224" height="128" rx="8" stroke="#D8D6CF" stroke-linecap="round" stroke-linejoin="round"/>
<text fill="#37352F" style="white-space: pre" xml:space="preserve" font-family="Inter" font-size="14" font-weight="500" letter-spacing="0em"><tspan x="868.274" y="634.591">&#x41f;&#x440;&#x435;&#x434;&#x443;&#x43f;&#x440;&#x435;&#x436;&#x434;&#x435;&#x43d;&#x438;&#x435;: &#x441;&#x443;&#x43c;&#x43c;&#x430; </tspan><tspan x="870.448" y="655.591">&#x441;&#x447;&#x451;&#x442;&#x430; &#x43d;&#x435; &#x441;&#x43e;&#x432;&#x43f;&#x430;&#x434;&#x430;&#x435;&#x442; &#x441; PO</tspan></text>
<rect x="520" y="768" width="224" height="128" rx="8" fill="#F7F6F3"/>
<rect x="520" y="768" width="224" height="128" rx="8" stroke="#D8D6CF" stroke-linecap="round" stroke-linejoin="round"/>
<text fill="#37352F" style="white-space: pre" xml:space="preserve" font-family="Inter" font-size="14" font-weight="500" letter-spacing="0em"><tspan x="546.599" y="816.091">AP &#x440;&#x430;&#x441;&#x441;&#x43b;&#x435;&#x434;&#x443;&#x435;&#x442; &#x432;&#x440;&#x443;&#x447;&#x43d;&#x443;&#x44e;: </tspan><tspan x="568.713" y="837.091">PO + &#x441;&#x447;&#x451;&#x442; + goods </tspan><tspan x="574.523" y="858.091">receipt &#x432; 3 &#x43e;&#x43a;&#x43d;&#x430;&#x445;</tspan></text>
<path d="M627.757 1676.43C630.1 1674.09 633.899 1674.09 636.242 1676.43L727.571 1767.76C729.914 1770.1 729.914 1773.9 727.571 1776.24L636.242 1867.57C633.899 1869.91 630.1 1869.91 627.757 1867.57L536.428 1776.24C534.085 1773.9 534.085 1770.1 536.428 1767.76L627.757 1676.43Z" fill="#F7F6F3" stroke="#D8D6CF" stroke-linecap="round" stroke-linejoin="round"/>
<text fill="#37352F" style="white-space: pre" xml:space="preserve" font-family="Inter" font-size="14" font-weight="500" letter-spacing="0em"><tspan x="574.571" y="1766.59">&#x421;&#x443;&#x43c;&#x43c;&#x430; &#x432;&#x44b;&#x440;&#x43e;&#x441;&#x43b;&#x430; &#10;</tspan><tspan x="568.439" y="1787.59">&#x43e;&#x442;&#x43d;&#x43e;&#x441;&#x438;&#x442;&#x435;&#x43b;&#x44c;&#x43d;&#x43e; PO?</tspan></text>
<g clip-path="url(#clip0_1085_9112)">
<rect x="289" y="1188" width="224" height="128" rx="8" fill="#F7F6F3"/>
<text fill="#37352F" style="white-space: pre" xml:space="preserve" font-family="Inter" font-size="14" font-weight="500" letter-spacing="0em"><tspan x="335.744" y="1236.09">&#x41d;&#x435;&#x442; framework &#x434;&#x43b;&#x44f; </tspan><tspan x="336.1" y="1257.09">&#x43f;&#x440;&#x438;&#x43d;&#x44f;&#x442;&#x438;&#x44f; &#x440;&#x435;&#x448;&#x435;&#x43d;&#x438;&#x44f; </tspan><tspan x="344.426" y="1278.09">&#x432;&#x43d;&#x443;&#x442;&#x440;&#x438; &#x441;&#x438;&#x441;&#x442;&#x435;&#x43c;&#x44b;</tspan></text>
</g>
<rect x="289" y="1188" width="224" height="128" rx="8" stroke="#D8D6CF"/>
<rect x="40" y="1480" width="224" height="128" rx="8" fill="#F7F6F3"/>
<rect x="40" y="1480" width="224" height="128" rx="8" stroke="#D8D6CF" stroke-linecap="round" stroke-linejoin="round"/>
<text fill="#37352F" style="white-space: pre" xml:space="preserve" font-family="Inter" font-size="14" font-weight="500" letter-spacing="0em"><tspan x="67.4189" y="1538.59">&#x41f;&#x43b;&#x430;&#x442;&#x438;&#x442;&#x44c; &#x437;&#x430; &#x444;&#x430;&#x43a;&#x442; / &#x436;&#x434;&#x430;&#x442;&#x44c; </tspan><tspan x="124.834" y="1559.59">&#x43e;&#x441;&#x442;&#x430;&#x442;&#x43e;&#x43a;</tspan></text>
<rect x="360" y="1480" width="224" height="128" rx="8" fill="#F7F6F3"/>
<rect x="360" y="1480" width="224" height="128" rx="8" stroke="#D8D6CF" stroke-linecap="round" stroke-linejoin="round"/>
<text fill="#37352F" style="white-space: pre" xml:space="preserve" font-family="Inter" font-size="14" font-weight="500" letter-spacing="0em"><tspan x="386.954" y="1538.59">&#x417;&#x430;&#x43f;&#x440;&#x43e;&#x441; corrected invoice </tspan><tspan x="405.999" y="1559.59">&#x2192; &#x440;&#x435;&#x441;&#x442;&#x430;&#x440;&#x442; &#x441; &#x448;&#x430;&#x433;&#x430; 1</tspan></text>
<rect x="680" y="1480" width="224" height="128" rx="8" fill="#F7F6F3"/>
<rect x="680" y="1480" width="224" height="128" rx="8" stroke="#D8D6CF" stroke-linecap="round" stroke-linejoin="round"/>
<text fill="#37352F" style="white-space: pre" xml:space="preserve" font-family="Inter" font-size="14" font-weight="500" letter-spacing="0em"><tspan x="716.497" y="1549.09">&#x41e;&#x434;&#x43e;&#x431;&#x440;&#x438;&#x442;&#x44c; &#x441; &#x43f;&#x43e;&#x43c;&#x435;&#x442;&#x43a;&#x43e;&#x439;</tspan></text>
<rect x="1000" y="1480" width="224" height="128" rx="8" fill="#F7F6F3"/>
<rect x="1000" y="1480" width="224" height="128" rx="8" stroke="#D8D6CF" stroke-linecap="round" stroke-linejoin="round"/>
<text fill="#37352F" style="white-space: pre" xml:space="preserve" font-family="Inter" font-size="14" font-weight="500" letter-spacing="0em"><tspan x="1030.43" y="1538.59">Procurement &#x43e;&#x431;&#x43d;&#x43e;&#x432;&#x43b;&#x44f;&#x435;&#x442; </tspan><tspan x="1102.14" y="1559.59">PO</tspan></text>
<g clip-path="url(#clip1_1085_9112)">
<path d="M580 1912C580 1907.58 583.582 1904 588 1904H796C800.418 1904 804 1907.58 804 1912V2024C804 2028.42 800.418 2032 796 2032H588C583.582 2032 580 2028.42 580 2024V1912Z" fill="#FDF0ED"/>
<text fill="#9F341F" style="white-space: pre" xml:space="preserve" font-family="Inter" font-size="14" font-weight="500" letter-spacing="0em"><tspan x="608.759" y="1941.59">&#x41d;&#x435;&#x442; &#x438;&#x441;&#x442;&#x43e;&#x440;&#x438;&#x438; &#x438;&#x437;&#x43c;&#x435;&#x43d;&#x435;&#x43d;&#x438;&#x439; </tspan><tspan x="621.829" y="1962.59">&#x2014; &#x43f;&#x440;&#x438;&#x447;&#x438;&#x43d;&#x443; &#x440;&#x435;&#x448;&#x435;&#x43d;&#x438;&#x44f; </tspan><tspan x="648.489" y="1983.59">&#x43d;&#x435;&#x432;&#x43e;&#x437;&#x43c;&#x43e;&#x436;&#x43d;&#x43e; </tspan><tspan x="644.36" y="2004.59">&#x432;&#x43e;&#x441;&#x441;&#x442;&#x430;&#x43d;&#x43e;&#x432;&#x438;&#x442;&#x44c;</tspan></text>
</g>
<path d="M580 1912C580 1907.58 583.582 1904 588 1904H796C800.418 1904 804 1907.58 804 1912V2024C804 2028.42 800.418 2032 796 2032H588C583.582 2032 580 2028.42 580 2024V1912Z" stroke="#F2C8BD" stroke-dasharray="4 4"/>
<g clip-path="url(#clip2_1085_9112)">
<rect x="268" y="348" width="224" height="128" rx="8" fill="#FDF0ED"/>
<text fill="#9F341F" style="white-space: pre" xml:space="preserve" font-family="Inter" font-size="14" font-weight="500" letter-spacing="0em"><tspan x="304.935" y="385.591">&#x41f;&#x440;&#x435;&#x434;&#x443;&#x43f;&#x440;&#x435;&#x436;&#x434;&#x435;&#x43d;&#x438;&#x435; &#x431;&#x435;&#x437; </tspan><tspan x="294.537" y="406.591">&#x43a;&#x43e;&#x43d;&#x442;&#x435;&#x43a;&#x441;&#x442;&#x430; &#x2014; &#x43d;&#x435;&#x438;&#x437;&#x432;&#x435;&#x441;&#x442;&#x43d;&#x43e; </tspan><tspan x="312.488" y="427.591">&#x447;&#x442;&#x43e; &#x438; &#x43d;&#x430; &#x441;&#x43a;&#x43e;&#x43b;&#x44c;&#x43a;&#x43e; &#x43d;&#x435; </tspan><tspan x="351.371" y="448.591">&#x441;&#x43e;&#x432;&#x43f;&#x430;&#x43b;&#x43e;</tspan></text>
</g>
<rect x="268" y="348" width="224" height="128" rx="8" stroke="#F2C8BD" stroke-dasharray="4 4"/>
<g clip-path="url(#clip3_1085_9112)">
<path d="M268 1716C268 1711.58 271.582 1708 276 1708H484C488.418 1708 492 1711.58 492 1716V1828C492 1832.42 488.418 1836 484 1836H276C271.582 1836 268 1832.42 268 1828V1716Z" fill="#FDF0ED"/>
<text fill="#9F341F" style="white-space: pre" xml:space="preserve" font-family="Inter" font-size="14" font-weight="500" letter-spacing="0em"><tspan x="300.266" y="1756.09">&#x41a;&#x430;&#x436;&#x434;&#x430;&#x44f; &#x43d;&#x43e;&#x432;&#x430;&#x44f; &#x446;&#x435;&#x43f;&#x43e;&#x447;&#x43a;&#x430; </tspan><tspan x="332.333" y="1777.09">&#x441;&#x43e;&#x433;&#x43b;&#x430;&#x441;&#x43e;&#x432;&#x430;&#x43d;&#x438;&#x44f; </tspan><tspan x="307.997" y="1798.09">&#x441;&#x43e;&#x431;&#x438;&#x440;&#x430;&#x435;&#x442;&#x441;&#x44f; &#x432;&#x440;&#x443;&#x447;&#x43d;&#x443;&#x44e;</tspan></text>
</g>
<path d="M268 1716C268 1711.58 271.582 1708 276 1708H484C488.418 1708 492 1711.58 492 1716V1828C492 1832.42 488.418 1836 484 1836H276C271.582 1836 268 1832.42 268 1828V1716Z" stroke="#F2C8BD" stroke-dasharray="4 4"/>
<rect x="236" y="1904" width="224" height="128" rx="8" fill="#F7F6F3"/>
<rect x="236" y="1904" width="224" height="128" rx="8" stroke="#D8D6CF" stroke-linecap="round" stroke-linejoin="round"/>
<text fill="#37352F" style="white-space: pre" xml:space="preserve" font-family="Inter" font-size="14" font-weight="500" letter-spacing="0em"><tspan x="278.103" y="1952.09">AP &#x441;&#x43e;&#x437;&#x434;&#x430;&#x451;&#x442; approval </tspan><tspan x="287.796" y="1973.09">request, Approver </tspan><tspan x="314.839" y="1994.09">&#x43e;&#x434;&#x43e;&#x431;&#x440;&#x44f;&#x435;&#x442;</tspan></text>
<rect x="844" y="1904" width="224" height="128" rx="8" fill="#F7F6F3"/>
<rect x="844" y="1904" width="224" height="128" rx="8" stroke="#D8D6CF" stroke-linecap="round" stroke-linejoin="round"/>
<text fill="#37352F" style="white-space: pre" xml:space="preserve" font-family="Inter" font-size="14" font-weight="500" letter-spacing="0em"><tspan x="898.127" y="1962.59">&#x41e;&#x43f;&#x43b;&#x430;&#x442;&#x430; + &#x440;&#x443;&#x447;&#x43d;&#x43e;&#x435; </tspan><tspan x="885.945" y="1983.59">&#x43e;&#x431;&#x43d;&#x43e;&#x432;&#x43b;&#x435;&#x43d;&#x438;&#x435; &#x441;&#x442;&#x430;&#x442;&#x443;&#x441;&#x430;</tspan></text>
<path d="M633 706.323L633 763" stroke="#EDD6A2" stroke-linecap="round"/>
<path d="M633.54 766.911L635.886 763.137C636.158 762.698 635.915 762.136 635.457 762.021C635.345 761.993 635.228 762.02 635.12 762.059L633 762.823L630.88 762.059C630.771 762.02 630.655 761.993 630.543 762.021C630.092 762.135 629.847 762.683 630.105 763.122L632.328 766.895C632.602 767.361 633.254 767.37 633.54 766.911Z" fill="#EDD6A2"/>
<path d="M631 704C631 702.895 631.895 702 633 702C634.105 702 635 702.895 635 704C635 705.105 634.105 706 633 706C631.895 706 631 705.105 631 704Z" fill="white" stroke="#EDD6A2" stroke-width="2"/>
<path d="M632 514.323L632 571" stroke="#D8D6CF" stroke-linecap="round"/>
<path d="M632.54 574.911L634.886 571.137C635.158 570.698 634.915 570.136 634.457 570.021C634.345 569.993 634.228 570.02 634.12 570.059L632 570.823L629.88 570.059C629.771 570.02 629.655 569.993 629.543 570.021C629.092 570.135 628.847 570.683 629.105 571.122L631.328 574.895C631.602 575.361 632.254 575.37 632.54 574.911Z" fill="#D8D6CF"/>
<path d="M630 512C630 510.895 630.895 510 632 510C633.105 510 634 510.895 634 512C634 513.105 633.105 514 632 514C630.895 514 630 513.105 630 512Z" fill="white" stroke="#D8D6CF" stroke-width="2"/>
<rect x="620" y="532" width="24" height="24" rx="12" fill="#4F8A5F"/>
<path fill-rule="evenodd" clip-rule="evenodd" d="M637.483 540.293C637.849 540.673 637.837 541.276 637.456 541.642L630.81 548L626.544 543.919C626.163 543.554 626.151 542.95 626.517 542.57C626.884 542.191 627.491 542.179 627.872 542.544L630.81 545.354L636.128 540.266C636.509 539.901 637.116 539.913 637.483 540.293Z" fill="white"/>
<rect x="776" y="464" width="24" height="24" rx="12" fill="#C95D45"/>
<path fill-rule="evenodd" clip-rule="evenodd" d="M783.74 471.74C784.059 471.42 784.577 471.42 784.897 471.74L788 474.843L791.103 471.74C791.423 471.42 791.941 471.42 792.26 471.74C792.58 472.059 792.58 472.577 792.26 472.897L789.157 476L792.26 479.103C792.58 479.423 792.58 479.941 792.26 480.26C791.941 480.58 791.423 480.58 791.103 480.26L788 477.157L784.897 480.26C784.577 480.58 784.059 480.58 783.74 480.26C783.42 479.941 783.42 479.423 783.74 479.103L786.843 476L783.74 472.897C783.42 472.577 783.42 472.059 783.74 471.74Z" fill="white"/>
<path d="M633 897.969L633 910.469C633 919.305 640.163 926.469 649 926.469L777 926.469C785.837 926.469 793 933.632 793 942.469L793 954.969" stroke="#D8D6CF" stroke-linecap="round"/>
<path d="M793.54 958.911L795.886 955.137C796.158 954.698 795.915 954.136 795.457 954.021C795.345 953.993 795.228 954.02 795.12 954.059L793 954.823L790.88 954.059C790.771 954.02 790.655 953.993 790.543 954.021C790.092 954.135 789.847 954.683 790.105 955.122L792.328 958.895C792.602 959.361 793.254 959.37 793.54 958.911Z" fill="#D8D6CF"/>
<path d="M631 896C631 894.895 631.895 894 633 894C634.105 894 635 894.895 635 896C635 897.105 634.105 898 633 898C631.895 898 631 897.105 631 896Z" fill="white" stroke="#D8D6CF" stroke-width="2"/>
<g clip-path="url(#clip4_1085_9112)">
<path d="M256 776C256 771.582 259.582 768 264 768H472C476.418 768 480 771.582 480 776V888C480 892.418 476.418 896 472 896H264C259.582 896 256 892.418 256 888V776Z" fill="#FDF0ED"/>
<text fill="#9F341F" style="white-space: pre" xml:space="preserve" font-family="Inter" font-size="14" font-weight="500" letter-spacing="0em"><tspan x="310.503" y="805.591">&#x41d;&#x435;&#x442; side-by-side </tspan><tspan x="294.384" y="826.591">&#x441;&#x440;&#x430;&#x432;&#x43d;&#x435;&#x43d;&#x438;&#x44f; &#x2014; &#x434;&#x430;&#x43d;&#x43d;&#x44b;&#x435; </tspan><tspan x="310.858" y="847.591">&#x441;&#x43e;&#x43f;&#x43e;&#x441;&#x442;&#x430;&#x432;&#x43b;&#x44f;&#x44e;&#x442;&#x441;&#x44f; </tspan><tspan x="304.207" y="868.591">&#x432;&#x440;&#x443;&#x447;&#x43d;&#x443;&#x44e; &#x432; 3 &#x43e;&#x43a;&#x43d;&#x430;&#x445;</tspan></text>
</g>
<path d="M256 776C256 771.582 259.582 768 264 768H472C476.418 768 480 771.582 480 776V888C480 892.418 476.418 896 472 896H264C259.582 896 256 892.418 256 888V776Z" stroke="#F2C8BD" stroke-dasharray="4 4"/>
<path d="M672.757 1156.43C675.1 1154.09 678.899 1154.09 681.242 1156.43L772.571 1247.76C774.914 1250.1 774.914 1253.9 772.571 1256.24L681.242 1347.57C678.899 1349.91 675.1 1349.91 672.757 1347.57L581.428 1256.24C579.085 1253.9 579.085 1250.1 581.428 1247.76L672.757 1156.43Z" fill="#F7F6F3" stroke="#D8D6CF" stroke-linecap="round" stroke-linejoin="round"/>
<text fill="#37352F" style="white-space: pre" xml:space="preserve" font-family="Inter" font-size="14" font-weight="500" letter-spacing="0em"><tspan x="645.61" y="1246.59">&#x41f;&#x440;&#x438;&#x447;&#x438;&#x43d;&#x430; &#10;</tspan><tspan x="627.037" y="1267.59">&#x440;&#x430;&#x441;&#x445;&#x43e;&#x436;&#x434;&#x435;&#x43d;&#x438;&#x44f;?</tspan></text>
<path d="M641 1317.97L641 1380.47C641 1389.31 633.837 1396.47 625 1396.47L488 1396.47C479.163 1396.47 472 1403.63 472 1412.47L472 1474.97" stroke="#D8D6CF" stroke-linecap="round"/>
<path d="M471.46 1478.91L469.114 1475.14C468.842 1474.7 469.085 1474.14 469.543 1474.02C469.655 1473.99 469.772 1474.02 469.88 1474.06L472 1474.82L474.12 1474.06C474.229 1474.02 474.345 1473.99 474.457 1474.02C474.908 1474.13 475.153 1474.68 474.895 1475.12L472.672 1478.9C472.398 1479.36 471.746 1479.37 471.46 1478.91Z" fill="#D8D6CF"/>
<path d="M643 1316C643 1314.9 642.105 1314 641 1314C639.895 1314 639 1314.9 639 1316C639 1317.1 639.895 1318 641 1318C642.105 1318 643 1317.1 643 1316Z" fill="white" stroke="#D8D6CF" stroke-width="2"/>
<path d="M609 1285.97L609 1364.47C609 1373.31 601.837 1380.47 593 1380.47L165 1380.47C156.163 1380.47 149 1387.63 149 1396.47L149 1474.97" stroke="#D8D6CF" stroke-linecap="round"/>
<path d="M148.46 1478.91L146.114 1475.14C145.842 1474.7 146.085 1474.14 146.543 1474.02C146.655 1473.99 146.772 1474.02 146.88 1474.06L149 1474.82L151.12 1474.06C151.229 1474.02 151.345 1473.99 151.457 1474.02C151.908 1474.13 152.153 1474.68 151.895 1475.12L149.672 1478.9C149.398 1479.36 148.746 1479.37 148.46 1478.91Z" fill="#D8D6CF"/>
<path d="M611 1284C611 1282.9 610.105 1282 609 1282C607.895 1282 607 1282.9 607 1284C607 1285.1 607.895 1286 609 1286C610.105 1286 611 1285.1 611 1284Z" fill="white" stroke="#D8D6CF" stroke-width="2"/>
<rect x="681" y="960" width="224" height="128" rx="8" fill="#F7F6F3"/>
<rect x="681" y="960" width="224" height="128" rx="8" stroke="#D8D6CF" stroke-linecap="round" stroke-linejoin="round"/>
<text fill="#37352F" style="white-space: pre" xml:space="preserve" font-family="Inter" font-size="14" font-weight="500" letter-spacing="0em"><tspan x="711.188" y="1008.09">&#x41a;&#x43e;&#x43c;&#x43c;&#x443;&#x43d;&#x438;&#x43a;&#x430;&#x446;&#x438;&#x44f; &#x43d;&#x430;&#x440;&#x443;&#x436;&#x443;: </tspan><tspan x="719.015" y="1029.09">email / &#x43c;&#x435;&#x441;&#x441;&#x435;&#x43d;&#x434;&#x436;&#x435;&#x440; &#x43a; </tspan><tspan x="749.879" y="1050.09">Procurement</tspan></text>
<g clip-path="url(#clip5_1085_9112)">
<path d="M417 968C417 963.582 420.582 960 425 960H633C637.418 960 641 963.582 641 968V1080C641 1084.42 637.418 1088 633 1088H425C420.582 1088 417 1084.42 417 1080V968Z" fill="#FDF0ED"/>
<text fill="#9F341F" style="white-space: pre" xml:space="preserve" font-family="Inter" font-size="14" font-weight="500" letter-spacing="0em"><tspan x="452.807" y="1008.09">&#x41e;&#x431;&#x441;&#x443;&#x436;&#x434;&#x435;&#x43d;&#x438;&#x435; &#x443;&#x445;&#x43e;&#x434;&#x438;&#x442; &#x432; </tspan><tspan x="449.648" y="1029.09">&#x43f;&#x43e;&#x447;&#x442;&#x443; &#x438; &#x43c;&#x435;&#x441;&#x441;&#x435;&#x43d;&#x434;&#x436;&#x435;&#x440;&#x44b;, </tspan><tspan x="464.688" y="1050.09">&#x43a;&#x43e;&#x43d;&#x442;&#x435;&#x43a;&#x441;&#x442; &#x442;&#x435;&#x440;&#x44f;&#x435;&#x442;&#x441;&#x44f;</tspan></text>
</g>
<path d="M417 968C417 963.582 420.582 960 425 960H633C637.418 960 641 963.582 641 968V1080C641 1084.42 637.418 1088 633 1088H425C420.582 1088 417 1084.42 417 1080V968Z" stroke="#F2C8BD" stroke-dasharray="4 4"/>
<path d="M793 1089.97L793 1102.47C793 1111.31 785.837 1118.47 777 1118.47L693 1118.47C684.163 1118.47 677 1125.63 677 1134.47L677 1146.97" stroke="#D8D6CF" stroke-linecap="round"/>
<path d="M676.46 1150.91L674.114 1147.14C673.842 1146.7 674.085 1146.14 674.543 1146.02C674.655 1145.99 674.772 1146.02 674.88 1146.06L677 1146.82L679.12 1146.06C679.229 1146.02 679.345 1145.99 679.457 1146.02C679.908 1146.13 680.153 1146.68 679.895 1147.12L677.672 1150.9C677.398 1151.36 676.746 1151.37 676.46 1150.91Z" fill="#D8D6CF"/>
<path d="M795 1088C795 1086.9 794.105 1086 793 1086C791.895 1086 791 1086.9 791 1088C791 1089.1 791.895 1090 793 1090C794.105 1090 795 1089.1 795 1088Z" fill="white" stroke="#D8D6CF" stroke-width="2"/>
<path d="M574.677 1252L518 1252" stroke="#D8D6CF" stroke-linecap="round"/>
<path d="M514.089 1252.54L517.863 1254.89C518.302 1255.16 518.864 1254.92 518.979 1254.46C519.007 1254.35 518.98 1254.23 518.941 1254.12L518.177 1252L518.941 1249.88C518.98 1249.77 519.007 1249.65 518.979 1249.54C518.865 1249.09 518.317 1248.85 517.878 1249.11L514.105 1251.33C513.639 1251.6 513.63 1252.25 514.089 1252.54Z" fill="#D8D6CF"/>
<path d="M577 1250C578.105 1250 579 1250.9 579 1252C579 1253.1 578.105 1254 577 1254C575.895 1254 575 1253.1 575 1252C575 1250.9 575.895 1250 577 1250Z" fill="white" stroke="#D8D6CF" stroke-width="2"/>
<path d="M748 1282.97L748 1362.97C748 1371.81 755.163 1378.97 764 1378.97L1100 1378.97C1108.84 1378.97 1116 1386.13 1116 1394.97L1116 1474.97" stroke="#D8D6CF" stroke-linecap="round"/>
<path d="M1116.54 1478.91L1118.89 1475.14C1119.16 1474.7 1118.92 1474.14 1118.46 1474.02C1118.35 1473.99 1118.23 1474.02 1118.12 1474.06L1116 1474.82L1113.88 1474.06C1113.77 1474.02 1113.65 1473.99 1113.54 1474.02C1113.09 1474.13 1112.85 1474.68 1113.11 1475.12L1115.33 1478.9C1115.6 1479.36 1116.25 1479.37 1116.54 1478.91Z" fill="#D8D6CF"/>
<path d="M746 1281C746 1279.9 746.895 1279 748 1279C749.105 1279 750 1279.9 750 1281C750 1282.1 749.105 1283 748 1283C746.895 1283 746 1282.1 746 1281Z" fill="white" stroke="#D8D6CF" stroke-width="2"/>
<path d="M1116 1609.97L1116 1657.47C1116 1666.31 1108.84 1673.47 1100 1673.47L719 1673.47C710.163 1673.47 703 1680.63 703 1689.47L703 1736.97" stroke="#D8D6CF" stroke-linecap="round"/>
<path d="M702.46 1740.91L700.114 1737.14C699.842 1736.7 700.085 1736.14 700.543 1736.02C700.655 1735.99 700.772 1736.02 700.88 1736.06L703 1736.82L705.12 1736.06C705.229 1736.02 705.345 1735.99 705.457 1736.02C705.908 1736.13 706.153 1736.68 705.895 1737.12L703.672 1740.9C703.398 1741.36 702.746 1741.37 702.46 1740.91Z" fill="#D8D6CF"/>
<path d="M1118 1608C1118 1606.9 1117.1 1606 1116 1606C1114.9 1606 1114 1606.9 1114 1608C1114 1609.1 1114.9 1610 1116 1610C1117.1 1610 1118 1609.1 1118 1608Z" fill="white" stroke="#D8D6CF" stroke-width="2"/>
<path d="M664 1841.97L664 1854.47C664 1863.31 671.163 1870.47 680 1870.47L940 1870.47C948.837 1870.47 956 1877.63 956 1886.47L956 1898.97" stroke="#D8D6CF" stroke-linecap="round"/>
<path d="M956.54 1902.91L958.886 1899.14C959.158 1898.7 958.915 1898.14 958.457 1898.02C958.345 1897.99 958.228 1898.02 958.12 1898.06L956 1898.82L953.88 1898.06C953.771 1898.02 953.655 1897.99 953.543 1898.02C953.092 1898.13 952.847 1898.68 953.105 1899.12L955.328 1902.9C955.602 1903.36 956.254 1903.37 956.54 1902.91Z" fill="#D8D6CF"/>
<path d="M662 1840C662 1838.9 662.895 1838 664 1838C665.105 1838 666 1838.9 666 1840C666 1841.1 665.105 1842 664 1842C662.895 1842 662 1841.1 662 1840Z" fill="white" stroke="#D8D6CF" stroke-width="2"/>
<path d="M600 1841.97L600 1854.47C600 1863.31 592.837 1870.47 584 1870.47L364 1870.47C355.163 1870.47 348 1877.63 348 1886.47L348 1898.97" stroke="#D8D6CF" stroke-linecap="round"/>
<path d="M347.46 1902.91L345.114 1899.14C344.842 1898.7 345.085 1898.14 345.543 1898.02C345.655 1897.99 345.772 1898.02 345.88 1898.06L348 1898.82L350.12 1898.06C350.229 1898.02 350.345 1897.99 350.457 1898.02C350.908 1898.13 351.153 1898.68 350.895 1899.12L348.672 1902.9C348.398 1903.36 347.746 1903.37 347.46 1902.91Z" fill="#D8D6CF"/>
<path d="M602 1840C602 1838.9 601.105 1838 600 1838C598.895 1838 598 1838.9 598 1840C598 1841.1 598.895 1842 600 1842C601.105 1842 602 1841.1 602 1840Z" fill="white" stroke="#D8D6CF" stroke-width="2"/>
<path d="M792 1609.97L792 1637.47C792 1646.31 784.837 1653.47 776 1653.47L679 1653.47C670.163 1653.47 663 1660.63 663 1669.47L663 1696.97" stroke="#D8D6CF" stroke-linecap="round"/>
<path d="M662.46 1700.91L660.114 1697.14C659.842 1696.7 660.085 1696.14 660.543 1696.02C660.655 1695.99 660.772 1696.02 660.88 1696.06L663 1696.82L665.12 1696.06C665.229 1696.02 665.345 1695.99 665.457 1696.02C665.908 1696.13 666.153 1696.68 665.895 1697.12L663.672 1700.9C663.398 1701.36 662.746 1701.37 662.46 1700.91Z" fill="#D8D6CF"/>
<path d="M794 1608C794 1606.9 793.105 1606 792 1606C790.895 1606 790 1606.9 790 1608C790 1609.1 790.895 1610 792 1610C793.105 1610 794 1609.1 794 1608Z" fill="white" stroke="#D8D6CF" stroke-width="2"/>
<path d="M473 1609.97L473 1637.97C473 1646.81 480.163 1653.97 489 1653.97L584 1653.97C592.837 1653.97 600 1661.13 600 1669.97L600 1697.97" stroke="#D8D6CF" stroke-linecap="round"/>
<path d="M600.54 1701.91L602.886 1698.14C603.158 1697.7 602.915 1697.14 602.457 1697.02C602.345 1696.99 602.228 1697.02 602.12 1697.06L600 1697.82L597.88 1697.06C597.771 1697.02 597.655 1696.99 597.543 1697.02C597.092 1697.13 596.847 1697.68 597.105 1698.12L599.328 1701.9C599.602 1702.36 600.254 1702.37 600.54 1701.91Z" fill="#D8D6CF"/>
<path d="M471 1608C471 1606.9 471.895 1606 473 1606C474.105 1606 475 1606.9 475 1608C475 1609.1 474.105 1610 473 1610C471.895 1610 471 1609.1 471 1608Z" fill="white" stroke="#D8D6CF" stroke-width="2"/>
<path d="M149 1609.97L149 1652.97C149 1661.81 156.163 1668.97 165 1668.97L554 1668.97C562.837 1668.97 570 1676.13 570 1684.97L570 1727.97" stroke="#D8D6CF" stroke-linecap="round"/>
<path d="M570.54 1731.91L572.886 1728.14C573.158 1727.7 572.915 1727.14 572.457 1727.02C572.345 1726.99 572.228 1727.02 572.12 1727.06L570 1727.82L567.88 1727.06C567.771 1727.02 567.655 1726.99 567.543 1727.02C567.092 1727.13 566.847 1727.68 567.105 1728.12L569.328 1731.9C569.602 1732.36 570.254 1732.37 570.54 1731.91Z" fill="#D8D6CF"/>
<path d="M147 1608C147 1606.9 147.895 1606 149 1606C150.105 1606 151 1606.9 151 1608C151 1609.1 150.105 1610 149 1610C147.895 1610 147 1609.1 147 1608Z" fill="white" stroke="#D8D6CF" stroke-width="2"/>
<path d="M713 1317.97L713 1380.47C713 1389.31 720.163 1396.47 729 1396.47L776 1396.47C784.837 1396.47 792 1403.63 792 1412.47L792 1474.97" stroke="#D8D6CF" stroke-linecap="round"/>
<path d="M792.54 1478.91L794.886 1475.14C795.158 1474.7 794.915 1474.14 794.457 1474.02C794.345 1473.99 794.228 1474.02 794.12 1474.06L792 1474.82L789.88 1474.06C789.771 1474.02 789.655 1473.99 789.543 1474.02C789.092 1474.13 788.847 1474.68 789.105 1475.12L791.328 1478.9C791.602 1479.36 792.254 1479.37 792.54 1478.91Z" fill="#D8D6CF"/>
<path d="M711 1316C711 1314.9 711.895 1314 713 1314C714.105 1314 715 1314.9 715 1316C715 1317.1 714.105 1318 713 1318C711.895 1318 711 1317.1 711 1316Z" fill="white" stroke="#D8D6CF" stroke-width="2"/>
<path d="M1057.5 1440C1057.5 1431.16 1064.66 1424 1073.5 1424H1158.5C1167.34 1424 1174.5 1431.16 1174.5 1440C1174.5 1448.84 1167.34 1456 1158.5 1456H1073.5C1064.66 1456 1057.5 1448.84 1057.5 1440Z" fill="white"/>
<path d="M1057.5 1440C1057.5 1431.16 1064.66 1424 1073.5 1424H1158.5C1167.34 1424 1174.5 1431.16 1174.5 1440C1174.5 1448.84 1167.34 1456 1158.5 1456H1073.5C1064.66 1456 1057.5 1448.84 1057.5 1440Z" stroke="#D8D6CF" stroke-linecap="round" stroke-linejoin="round"/>
<text fill="#37352F" style="white-space: pre" xml:space="preserve" font-family="Inter" font-size="14" font-weight="500" letter-spacing="0em"><tspan x="1069.97" y="1445.09">PO &#x43d;&#x435;&#x432;&#x435;&#x440;&#x43d;&#x44b;&#x439;</tspan></text>
<path d="M710 1440C710 1431.16 717.163 1424 726 1424H858C866.837 1424 874 1431.16 874 1440C874 1448.84 866.837 1456 858 1456H726C717.163 1456 710 1448.84 710 1440Z" fill="white"/>
<path d="M710 1440C710 1431.16 717.163 1424 726 1424H858C866.837 1424 874 1431.16 874 1440C874 1448.84 866.837 1456 858 1456H726C717.163 1456 710 1448.84 710 1440Z" stroke="#D8D6CF" stroke-linecap="round" stroke-linejoin="round"/>
<text fill="#37352F" style="white-space: pre" xml:space="preserve" font-family="Inter" font-size="14" font-weight="500" letter-spacing="0em"><tspan x="722.253" y="1445.09">&#x412; &#x43f;&#x440;&#x435;&#x434;&#x435;&#x43b;&#x430;&#x445; &#x434;&#x43e;&#x43f;&#x443;&#x441;&#x43a;&#x430;</tspan></text>
<path d="M406 1440C406 1431.16 413.163 1424 422 1424H521C529.837 1424 537 1431.16 537 1440C537 1448.84 529.837 1456 521 1456H422C413.163 1456 406 1448.84 406 1440Z" fill="white"/>
<path d="M406 1440C406 1431.16 413.163 1424 422 1424H521C529.837 1424 537 1431.16 537 1440C537 1448.84 529.837 1456 521 1456H422C413.163 1456 406 1448.84 406 1440Z" stroke="#D8D6CF" stroke-linecap="round" stroke-linejoin="round"/>
<text fill="#37352F" style="white-space: pre" xml:space="preserve" font-family="Inter" font-size="14" font-weight="500" letter-spacing="0em"><tspan x="418.344" y="1445.09">&#x421;&#x447;&#x451;&#x442; &#x43d;&#x435;&#x432;&#x435;&#x440;&#x43d;&#x44b;&#x439;</tspan></text>
<rect x="66" y="1424" width="166" height="32" rx="16" fill="white"/>
<rect x="66" y="1424" width="166" height="32" rx="16" stroke="#D8D6CF" stroke-linecap="round" stroke-linejoin="round"/>
<text fill="#37352F" style="white-space: pre" xml:space="preserve" font-family="Inter" font-size="14" font-weight="500" letter-spacing="0em"><tspan x="78.3848" y="1445.09">&#x427;&#x430;&#x441;&#x442;&#x438;&#x447;&#x43d;&#x430;&#x44f; &#x43f;&#x43e;&#x441;&#x442;&#x430;&#x432;&#x43a;&#x430;</tspan></text>
<rect x="776" y="1858" width="24" height="24" rx="12" fill="#C95D45"/>
<path fill-rule="evenodd" clip-rule="evenodd" d="M783.74 1865.74C784.059 1865.42 784.577 1865.42 784.897 1865.74L788 1868.84L791.103 1865.74C791.423 1865.42 791.941 1865.42 792.26 1865.74C792.58 1866.06 792.58 1866.58 792.26 1866.9L789.157 1870L792.26 1873.1C792.58 1873.42 792.58 1873.94 792.26 1874.26C791.941 1874.58 791.423 1874.58 791.103 1874.26L788 1871.16L784.897 1874.26C784.577 1874.58 784.059 1874.58 783.74 1874.26C783.42 1873.94 783.42 1873.42 783.74 1873.1L786.843 1870L783.74 1866.9C783.42 1866.58 783.42 1866.06 783.74 1865.74Z" fill="white"/>
<rect x="484" y="1858" width="24" height="24" rx="12" fill="#4F8A5F"/>
<path fill-rule="evenodd" clip-rule="evenodd" d="M501.483 1866.29C501.849 1866.67 501.837 1867.28 501.456 1867.64L494.81 1874L490.544 1869.92C490.163 1869.55 490.151 1868.95 490.517 1868.57C490.884 1868.19 491.491 1868.18 491.872 1868.54L494.81 1871.35L500.128 1866.27C500.509 1865.9 501.116 1865.91 501.483 1866.29Z" fill="white"/>
<path d="M348 2035L348 2080C348 2088.84 355.163 2096 364 2096L943 2096C951.837 2096 959 2088.84 959 2080L959 2035" stroke="#D8D6CF" stroke-linecap="round"/>
<path d="M346 2032C346 2030.9 346.895 2030 348 2030C349.105 2030 350 2030.9 350 2032C350 2033.1 349.105 2034 348 2034C346.895 2034 346 2033.1 346 2032Z" fill="white" stroke="#D8D6CF" stroke-width="2"/>
<path d="M958.46 2033.09L956.114 2036.86C955.842 2037.3 956.085 2037.86 956.543 2037.98C956.655 2038.01 956.772 2037.98 956.88 2037.94L959 2037.18L961.12 2037.94C961.229 2037.98 961.345 2038.01 961.457 2037.98C961.908 2037.87 962.153 2037.32 961.895 2036.88L959.672 2033.1C959.398 2032.64 958.746 2032.63 958.46 2033.09Z" fill="#D8D6CF"/>
<defs>
<clipPath id="clip0_1085_9112">
<rect x="289" y="1188" width="224" height="128" rx="8" fill="white"/>
</clipPath>
<clipPath id="clip1_1085_9112">
<path d="M580 1912C580 1907.58 583.582 1904 588 1904H796C800.418 1904 804 1907.58 804 1912V2024C804 2028.42 800.418 2032 796 2032H588C583.582 2032 580 2028.42 580 2024V1912Z" fill="white"/>
</clipPath>
<clipPath id="clip2_1085_9112">
<rect x="268" y="348" width="224" height="128" rx="8" fill="white"/>
</clipPath>
<clipPath id="clip3_1085_9112">
<path d="M268 1716C268 1711.58 271.582 1708 276 1708H484C488.418 1708 492 1711.58 492 1716V1828C492 1832.42 488.418 1836 484 1836H276C271.582 1836 268 1832.42 268 1828V1716Z" fill="white"/>
</clipPath>
<clipPath id="clip4_1085_9112">
<path d="M256 776C256 771.582 259.582 768 264 768H472C476.418 768 480 771.582 480 776V888C480 892.418 476.418 896 472 896H264C259.582 896 256 892.418 256 888V776Z" fill="white"/>
</clipPath>
<clipPath id="clip5_1085_9112">
<path d="M417 968C417 963.582 420.582 960 425 960H633C637.418 960 641 963.582 641 968V1080C641 1084.42 637.418 1088 633 1088H425C420.582 1088 417 1084.42 417 1080V968Z" fill="white"/>
</clipPath>
</defs>
</svg>
