<svg width="1128" height="500" viewBox="0 0 1128 500" fill="none" xmlns="http://www.w3.org/2000/svg">
<rect width="1128" height="500" fill="white"/>
<text fill="#6b6a64" style="white-space: pre" xml:space="preserve" font-family="Inter" font-size="12" font-weight="500" letter-spacing="0em"><tspan x="18" y="53.3636">&#x422;&#x420;&#x410;&#x414;&#x418;&#x426;&#x418;&#x41e;&#x41d;&#x41d;&#x42b;&#x419; AP</tspan></text>
<rect x="40" y="82" width="56" height="56" rx="28" fill="#eef4fb"/>
<path d="M55.5 109.5C55.3674 109.5 55.2402 109.447 55.1464 109.354C55.0527 109.26 55 109.133 55 109C55 108.867 55.0527 108.74 55.1464 108.646C55.2402 108.553 55.3674 108.5 55.5 108.5H59C59.3978 108.5 59.7794 108.342 60.0607 108.061C60.342 107.779 60.5 107.398 60.5 107C60.5 106.602 60.342 106.221 60.0607 105.939C59.7794 105.658 59.3978 105.5 59 105.5H57C56.337 105.5 55.7011 105.237 55.2322 104.768C54.7634 104.299 54.5 103.663 54.5 103C54.5 102.337 54.7634 101.701 55.2322 101.232C55.7011 100.763 56.337 100.5 57 100.5H57.5V100C57.5 99.8674 57.5527 99.7402 57.6464 99.6464C57.7402 99.5527 57.8674 99.5 58 99.5C58.1326 99.5 58.2598 99.5527 58.3536 99.6464C58.4473 99.7402 58.5 99.8674 58.5 100V100.5H60C60.1326 100.5 60.2598 100.553 60.3536 100.646C60.4473 100.74 60.5 100.867 60.5 101C60.5 101.133 60.4473 101.26 60.3536 101.354C60.2598 101.447 60.1326 101.5 60 101.5H57C56.6022 101.5 56.2206 101.658 55.9393 101.939C55.658 102.221 55.5 102.602 55.5 103C55.5 103.398 55.658 103.779 55.9393 104.061C56.2206 104.342 56.6022 104.5 57 104.5H59C59.663 104.5 60.2989 104.763 60.7678 105.232C61.2366 105.701 61.5 106.337 61.5 107C61.5 107.663 61.2366 108.299 60.7678 108.768C60.2989 109.237 59.663 109.5 59 109.5H58.5V110C58.5 110.133 58.4473 110.26 58.3536 110.354C58.2598 110.447 58.1326 110.5 58 110.5C57.8674 110.5 57.7402 110.447 57.6464 110.354C57.5527 110.26 57.5 110.133 57.5 110V109.5H55.5ZM80.5 101V118C80.5 118.398 80.342 118.779 80.0607 119.061C79.7794 119.342 79.3978 119.5 79 119.5H57C56.6022 119.5 56.2206 119.342 55.9393 119.061C55.658 118.779 55.5 118.398 55.5 118V113C55.5 112.867 55.5527 112.74 55.6464 112.646C55.7402 112.553 55.8674 112.5 56 112.5C56.1326 112.5 56.2598 112.553 56.3536 112.646C56.4473 112.74 56.5 112.867 56.5 113V118C56.5 118.133 56.5527 118.26 56.6464 118.354C56.7402 118.447 56.8674 118.5 57 118.5H72.5V113.5H62C61.8674 113.5 61.7402 113.447 61.6464 113.354C61.5527 113.26 61.5 113.133 61.5 113C61.5 112.867 61.5527 112.74 61.6464 112.646C61.7402 112.553 61.8674 112.5 62 112.5H72.5V107.5H65C64.8674 107.5 64.7402 107.447 64.6464 107.354C64.5527 107.26 64.5 107.133 64.5 107C64.5 106.867 64.5527 106.74 64.6464 106.646C64.7402 106.553 64.8674 106.5 65 106.5H79.5V101.5H64C63.8674 101.5 63.7402 101.447 63.6464 101.354C63.5527 101.26 63.5 101.133 63.5 101C63.5 100.867 63.5527 100.74 63.6464 100.646C63.7402 100.553 63.8674 100.5 64 100.5H80C80.1326 100.5 80.2598 100.553 80.3536 100.646C80.4473 100.74 80.5 100.867 80.5 101ZM73.5 112.5H79.5V107.5H73.5V112.5ZM79.5 118V113.5H73.5V118.5H79C79.1326 118.5 79.2598 118.447 79.3536 118.354C79.4473 118.26 79.5 118.133 79.5 118Z" fill="#315f8c"/>
<text fill="#315f8c" style="white-space: pre" xml:space="preserve" font-family="Inter" font-size="11" letter-spacing="0em"><tspan x="18.0811" y="162.5">&#x41f;&#x41e;&#x421;&#x422;&#x423;&#x41f;&#x410;&#x415;&#x422; &#x421;&#x427;&#x401;&#x422;</tspan></text>
<rect x="184" y="82" width="56" height="56" rx="28" fill="#f7f6f3"/>
<path d="M222.354 102.646L217.354 97.6463C217.307 97.5998 217.252 97.563 217.191 97.5379C217.131 97.5128 217.066 97.4999 217 97.5H207C206.602 97.5 206.221 97.658 205.939 97.9393C205.658 98.2206 205.5 98.6022 205.5 99V101.5H203C202.602 101.5 202.221 101.658 201.939 101.939C201.658 102.221 201.5 102.602 201.5 103V121C201.5 121.398 201.658 121.779 201.939 122.061C202.221 122.342 202.602 122.5 203 122.5H217C217.398 122.5 217.779 122.342 218.061 122.061C218.342 121.779 218.5 121.398 218.5 121V118.5H221C221.398 118.5 221.779 118.342 222.061 118.061C222.342 117.779 222.5 117.398 222.5 117V103C222.5 102.934 222.487 102.869 222.462 102.809C222.437 102.748 222.4 102.693 222.354 102.646ZM217.5 121C217.5 121.133 217.447 121.26 217.354 121.354C217.26 121.447 217.133 121.5 217 121.5H203C202.867 121.5 202.74 121.447 202.646 121.354C202.553 121.26 202.5 121.133 202.5 121V103C202.5 102.867 202.553 102.74 202.646 102.646C202.74 102.553 202.867 102.5 203 102.5H212.792L217.5 107.208V121ZM221.5 117C221.5 117.133 221.447 117.26 221.354 117.354C221.26 117.447 221.133 117.5 221 117.5H218.5V107C218.5 106.934 218.487 106.869 218.462 106.809C218.437 106.748 218.4 106.693 218.354 106.646L213.354 101.646C213.307 101.6 213.252 101.563 213.191 101.538C213.131 101.513 213.066 101.5 213 101.5H206.5V99C206.5 98.8674 206.553 98.7402 206.646 98.6464C206.74 98.5527 206.867 98.5 207 98.5H216.792L221.5 103.208V117ZM213.5 113C213.5 113.133 213.447 113.26 213.354 113.354C213.26 113.447 213.133 113.5 213 113.5H207C206.867 113.5 206.74 113.447 206.646 113.354C206.553 113.26 206.5 113.133 206.5 113C206.5 112.867 206.553 112.74 206.646 112.646C206.74 112.553 206.867 112.5 207 112.5H213C213.133 112.5 213.26 112.553 213.354 112.646C213.447 112.74 213.5 112.867 213.5 113ZM213.5 117C213.5 117.133 213.447 117.26 213.354 117.354C213.26 117.447 213.133 117.5 213 117.5H207C206.867 117.5 206.74 117.447 206.646 117.354C206.553 117.26 206.5 117.133 206.5 117C206.5 116.867 206.553 116.74 206.646 116.646C206.74 116.553 206.867 116.5 207 116.5H213C213.133 116.5 213.26 116.553 213.354 116.646C213.447 116.74 213.5 116.867 213.5 117Z" fill="#6b6a64"/>
<text fill="#6b6a64" style="white-space: pre" xml:space="preserve" font-family="Inter" font-size="11" letter-spacing="0em"><tspan x="188.824" y="162.5">&#x421;&#x412;&#x415;&#x420;&#x41a;&#x410; &#10;</tspan><tspan x="173.312" y="179.5">&#x414;&#x41e;&#x41a;&#x423;&#x41c;&#x415;&#x41d;&#x422;&#x41e;&#x412;</tspan></text>
<rect x="328" y="82" width="56" height="56" rx="28" fill="#fff6dd"/>
<path d="M369.168 117.761L358.235 98.7776C358.006 98.3885 357.68 98.066 357.288 97.8419C356.896 97.6179 356.452 97.5 356 97.5C355.549 97.5 355.105 97.6179 354.713 97.8419C354.321 98.066 353.994 98.3885 353.765 98.7776L342.833 117.761C342.614 118.135 342.499 118.56 342.499 118.993C342.499 119.426 342.614 119.851 342.833 120.225C343.058 120.617 343.384 120.942 343.777 121.166C344.17 121.39 344.616 121.505 345.068 121.5H366.933C367.385 121.505 367.83 121.389 368.222 121.165C368.614 120.941 368.94 120.617 369.165 120.225C369.384 119.852 369.5 119.427 369.5 118.994C369.501 118.561 369.386 118.135 369.168 117.761ZM368.3 119.725C368.161 119.964 367.962 120.161 367.721 120.298C367.481 120.434 367.209 120.504 366.933 120.5H345.068C344.792 120.504 344.52 120.434 344.279 120.298C344.039 120.161 343.839 119.964 343.7 119.725C343.568 119.504 343.499 119.25 343.499 118.993C343.499 118.735 343.568 118.482 343.7 118.26L354.632 99.2763C354.773 99.0397 354.974 98.8438 355.214 98.7077C355.453 98.5717 355.725 98.5002 356 98.5002C356.276 98.5002 356.547 98.5717 356.787 98.7077C357.027 98.8438 357.227 99.0397 357.369 99.2763L368.3 118.26C368.432 118.482 368.502 118.735 368.502 118.993C368.502 119.25 368.432 119.504 368.3 119.725ZM355.5 112V107C355.5 106.867 355.553 106.74 355.647 106.647C355.741 106.553 355.868 106.5 356 106.5C356.133 106.5 356.26 106.553 356.354 106.647C356.448 106.74 356.5 106.867 356.5 107V112C356.5 112.133 356.448 112.26 356.354 112.354C356.26 112.447 356.133 112.5 356 112.5C355.868 112.5 355.741 112.447 355.647 112.354C355.553 112.26 355.5 112.133 355.5 112ZM357 116.5C357 116.698 356.942 116.891 356.832 117.056C356.722 117.22 356.566 117.348 356.383 117.424C356.2 117.5 355.999 117.519 355.805 117.481C355.611 117.442 355.433 117.347 355.293 117.207C355.153 117.067 355.058 116.889 355.02 116.695C354.981 116.501 355.001 116.3 355.076 116.117C355.152 115.935 355.28 115.778 355.445 115.669C355.609 115.559 355.803 115.5 356 115.5C356.266 115.5 356.52 115.605 356.707 115.793C356.895 115.981 357 116.235 357 116.5Z" fill="#8a5a00"/>
<text fill="#8a5a00" style="white-space: pre" xml:space="preserve" font-family="Inter" font-size="11" letter-spacing="0em"><tspan x="313.692" y="162.5">&#x420;&#x410;&#x421;&#x425;&#x41e;&#x416;&#x414;&#x415;&#x41d;&#x418;&#x415; </tspan><tspan x="316.705" y="179.5">&#x41e;&#x411;&#x41d;&#x410;&#x420;&#x423;&#x416;&#x415;&#x41d;&#x41e;</tspan></text>
<rect x="464" y="82" width="56" height="56" rx="28" fill="#f7f6f3"/>
<path d="M479.7 109.4C479.753 109.439 479.812 109.468 479.876 109.484C479.94 109.501 480.006 109.504 480.071 109.495C480.136 109.486 480.198 109.464 480.255 109.43C480.311 109.397 480.361 109.353 480.4 109.3C481.052 108.431 481.898 107.725 482.87 107.239C483.841 106.753 484.913 106.5 486 106.5C487.087 106.5 488.159 106.753 489.13 107.239C490.102 107.725 490.948 108.431 491.6 109.3C491.646 109.363 491.705 109.415 491.775 109.45C491.844 109.486 491.921 109.504 491.999 109.504C492.077 109.504 492.153 109.486 492.223 109.45C492.292 109.415 492.352 109.363 492.398 109.3C493.05 108.431 493.895 107.725 494.867 107.239C495.839 106.753 496.911 106.5 497.998 106.5C499.084 106.5 500.156 106.753 501.128 107.239C502.1 107.725 502.945 108.431 503.598 109.3C503.637 109.353 503.686 109.397 503.743 109.43C503.799 109.464 503.862 109.486 503.927 109.495C503.992 109.504 504.058 109.501 504.122 109.484C504.185 109.468 504.245 109.439 504.298 109.4C504.35 109.361 504.394 109.311 504.428 109.255C504.461 109.198 504.483 109.136 504.492 109.071C504.502 109.006 504.498 108.94 504.482 108.876C504.466 108.812 504.437 108.753 504.398 108.7C503.383 107.338 501.96 106.337 500.335 105.844C501.174 105.334 501.823 104.563 502.184 103.65C502.544 102.736 502.596 101.73 502.331 100.785C502.066 99.8393 501.499 99.0064 500.717 98.413C499.934 97.8197 498.979 97.4985 497.998 97.4985C497.016 97.4985 496.061 97.8197 495.278 98.413C494.496 99.0064 493.929 99.8393 493.664 100.785C493.399 101.73 493.451 102.736 493.811 103.65C494.172 104.563 494.821 105.334 495.66 105.844C494.241 106.277 492.972 107.1 491.998 108.219C491.023 107.1 489.754 106.277 488.335 105.844C489.174 105.334 489.823 104.563 490.184 103.65C490.544 102.736 490.596 101.73 490.331 100.785C490.066 99.8393 489.499 99.0064 488.717 98.413C487.934 97.8197 486.979 97.4985 485.998 97.4985C485.016 97.4985 484.061 97.8197 483.278 98.413C482.496 99.0064 481.929 99.8393 481.664 100.785C481.399 101.73 481.451 102.736 481.811 103.65C482.172 104.563 482.821 105.334 483.66 105.844C482.037 106.338 480.614 107.339 479.6 108.7C479.561 108.753 479.532 108.812 479.516 108.876C479.499 108.94 479.496 109.006 479.505 109.071C479.514 109.136 479.536 109.198 479.57 109.255C479.603 109.311 479.647 109.361 479.7 109.4ZM494.5 102C494.5 101.308 494.705 100.631 495.09 100.056C495.474 99.48 496.021 99.0314 496.661 98.7665C497.3 98.5016 498.004 98.4323 498.683 98.5673C499.362 98.7024 499.985 99.0357 500.475 99.5252C500.964 100.015 501.298 100.638 501.433 101.317C501.568 101.996 501.498 102.7 501.234 103.339C500.969 103.979 500.52 104.526 499.944 104.91C499.369 105.295 498.692 105.5 498 105.5C497.072 105.5 496.182 105.131 495.525 104.475C494.869 103.819 494.5 102.928 494.5 102ZM482.5 102C482.5 101.308 482.705 100.631 483.09 100.056C483.474 99.48 484.021 99.0314 484.661 98.7665C485.3 98.5016 486.004 98.4323 486.683 98.5673C487.362 98.7024 487.985 99.0357 488.475 99.5252C488.964 100.015 489.298 100.638 489.433 101.317C489.568 101.996 489.498 102.7 489.234 103.339C488.969 103.979 488.52 104.526 487.944 104.91C487.369 105.295 486.692 105.5 486 105.5C485.072 105.5 484.182 105.131 483.525 104.475C482.869 103.819 482.5 102.928 482.5 102ZM500.338 118.844C501.177 118.334 501.826 117.563 502.186 116.65C502.546 115.736 502.598 114.73 502.333 113.785C502.068 112.839 501.502 112.006 500.719 111.413C499.937 110.82 498.982 110.499 498 110.499C497.018 110.499 496.063 110.82 495.281 111.413C494.498 112.006 493.932 112.839 493.667 113.785C493.402 114.73 493.454 115.736 493.814 116.65C494.174 117.563 494.823 118.334 495.663 118.844C494.244 119.275 492.975 120.096 492 121.213C491.025 120.096 489.756 119.275 488.338 118.844C489.177 118.334 489.826 117.563 490.186 116.65C490.546 115.736 490.598 114.73 490.333 113.785C490.068 112.839 489.502 112.006 488.719 111.413C487.937 110.82 486.982 110.499 486 110.499C485.018 110.499 484.063 110.82 483.281 111.413C482.498 112.006 481.932 112.839 481.667 113.785C481.402 114.73 481.454 115.736 481.814 116.65C482.174 117.563 482.823 118.334 483.663 118.844C482.038 119.338 480.614 120.339 479.6 121.7C479.52 121.806 479.486 121.939 479.505 122.071C479.524 122.202 479.594 122.32 479.7 122.4C479.806 122.48 479.939 122.514 480.071 122.495C480.202 122.476 480.32 122.406 480.4 122.3C481.052 121.431 481.898 120.725 482.87 120.239C483.841 119.753 484.913 119.5 486 119.5C487.087 119.5 488.159 119.753 489.13 120.239C490.102 120.725 490.948 121.431 491.6 122.3C491.646 122.363 491.705 122.415 491.775 122.45C491.844 122.486 491.921 122.504 491.999 122.504C492.077 122.504 492.153 122.486 492.223 122.45C492.292 122.415 492.352 122.363 492.398 122.3C493.05 121.431 493.895 120.725 494.867 120.239C495.839 119.753 496.911 119.5 497.998 119.5C499.084 119.5 500.156 119.753 501.128 120.239C502.1 120.725 502.945 121.431 503.598 122.3C503.677 122.406 503.796 122.476 503.927 122.495C504.058 122.514 504.191 122.48 504.298 122.4C504.404 122.32 504.474 122.202 504.492 122.071C504.511 121.939 504.477 121.806 504.398 121.7C503.384 120.339 501.961 119.338 500.338 118.844ZM482.5 115C482.5 114.308 482.705 113.631 483.09 113.056C483.474 112.48 484.021 112.031 484.661 111.766C485.3 111.502 486.004 111.432 486.683 111.567C487.362 111.702 487.985 112.036 488.475 112.525C488.964 113.015 489.298 113.638 489.433 114.317C489.568 114.996 489.498 115.7 489.234 116.339C488.969 116.979 488.52 117.526 487.944 117.91C487.369 118.295 486.692 118.5 486 118.5C485.072 118.5 484.182 118.131 483.525 117.475C482.869 116.819 482.5 115.928 482.5 115ZM494.5 115C494.5 114.308 494.705 113.631 495.09 113.056C495.474 112.48 496.021 112.031 496.661 111.766C497.3 111.502 498.004 111.432 498.683 111.567C499.362 111.702 499.985 112.036 500.475 112.525C500.964 113.015 501.298 113.638 501.433 114.317C501.568 114.996 501.498 115.7 501.234 116.339C500.969 116.979 500.52 117.526 499.944 117.91C499.369 118.295 498.692 118.5 498 118.5C497.072 118.5 496.182 118.131 495.525 117.475C494.869 116.819 494.5 115.928 494.5 115Z" fill="#6b6a64"/>
<rect x="552" y="82" width="56" height="56" rx="28" fill="#f7f6f3"/>
<path d="M590.8 110C591.228 109.745 591.597 109.402 591.882 108.993C592.168 108.584 592.362 108.119 592.453 107.629C592.543 107.138 592.528 106.634 592.409 106.151C592.289 105.667 592.067 105.214 591.758 104.823C591.449 104.431 591.06 104.111 590.617 103.882C590.174 103.653 589.688 103.521 589.19 103.496C588.692 103.471 588.194 103.552 587.731 103.734C587.267 103.917 586.847 104.196 586.5 104.554V101C586.499 100.235 586.248 99.4913 585.785 98.8826C585.321 98.2739 584.671 97.8339 583.934 97.6297C583.197 97.4255 582.413 97.4685 581.702 97.7521C580.992 98.0357 580.394 98.5443 580 99.2C579.745 98.7715 579.402 98.4023 578.993 98.1172C578.584 97.8322 578.119 97.6377 577.628 97.547C577.138 97.4563 576.634 97.4713 576.15 97.591C575.666 97.7108 575.214 97.9326 574.822 98.2415C574.431 98.5504 574.11 98.9394 573.882 99.3823C573.653 99.8252 573.521 100.312 573.496 100.81C573.47 101.308 573.552 101.805 573.734 102.269C573.916 102.733 574.196 103.153 574.553 103.5H571C570.235 103.501 569.491 103.752 568.882 104.215C568.274 104.679 567.834 105.329 567.629 106.066C567.425 106.803 567.468 107.587 567.752 108.297C568.035 109.008 568.544 109.606 569.2 110C568.771 110.255 568.402 110.598 568.117 111.007C567.832 111.416 567.638 111.881 567.547 112.371C567.456 112.862 567.471 113.365 567.591 113.849C567.711 114.333 567.932 114.786 568.241 115.177C568.55 115.569 568.939 115.889 569.382 116.118C569.825 116.347 570.312 116.478 570.81 116.504C571.307 116.529 571.805 116.448 572.269 116.266C572.733 116.083 573.153 115.804 573.5 115.446V119C573.5 119.765 573.751 120.509 574.214 121.118C574.678 121.727 575.328 122.167 576.065 122.371C576.802 122.576 577.586 122.533 578.297 122.249C579.008 121.966 579.606 121.457 580 120.801C580.255 121.229 580.598 121.598 581.007 121.883C581.416 122.167 581.881 122.361 582.371 122.452C582.861 122.542 583.365 122.527 583.849 122.407C584.332 122.287 584.785 122.065 585.176 121.756C585.567 121.448 585.887 121.059 586.116 120.616C586.345 120.173 586.476 119.687 586.502 119.189C586.527 118.692 586.446 118.194 586.264 117.731C586.082 117.267 585.803 116.847 585.446 116.5H589C589.765 116.499 590.508 116.248 591.117 115.785C591.726 115.321 592.166 114.671 592.37 113.934C592.574 113.197 592.531 112.413 592.248 111.702C591.964 110.992 591.455 110.394 590.8 110ZM573.5 113C573.5 113.494 573.353 113.978 573.078 114.389C572.804 114.8 572.413 115.12 571.956 115.31C571.5 115.499 570.997 115.548 570.512 115.452C570.027 115.355 569.582 115.117 569.232 114.768C568.882 114.418 568.644 113.973 568.548 113.488C568.451 113.003 568.501 112.5 568.69 112.043C568.879 111.586 569.2 111.196 569.611 110.921C570.022 110.647 570.505 110.5 571 110.5H573.5V113ZM579.5 119C579.5 119.663 579.236 120.299 578.768 120.768C578.299 121.237 577.663 121.5 577 121.5C576.337 121.5 575.701 121.237 575.232 120.768C574.763 120.299 574.5 119.663 574.5 119V113C574.5 112.337 574.763 111.701 575.232 111.232C575.701 110.763 576.337 110.5 577 110.5H579.5V119ZM579.5 109.5H571C570.337 109.5 569.701 109.237 569.232 108.768C568.763 108.299 568.5 107.663 568.5 107C568.5 106.337 568.763 105.701 569.232 105.232C569.701 104.763 570.337 104.5 571 104.5H577C577.663 104.5 578.299 104.763 578.768 105.232C579.236 105.701 579.5 106.337 579.5 107V109.5ZM579.5 103.5H577C576.505 103.5 576.022 103.353 575.611 103.079C575.2 102.804 574.879 102.414 574.69 101.957C574.501 101.5 574.451 100.997 574.548 100.512C574.644 100.027 574.882 99.5818 575.232 99.2322C575.582 98.8826 576.027 98.6445 576.512 98.548C576.997 98.4516 577.5 98.5011 577.956 98.6903C578.413 98.8795 578.804 99.1999 579.078 99.6111C579.353 100.022 579.5 100.506 579.5 101V103.5ZM586.5 107C586.5 106.506 586.646 106.022 586.921 105.611C587.196 105.2 587.586 104.879 588.043 104.69C588.5 104.501 589.003 104.452 589.487 104.548C589.972 104.644 590.418 104.883 590.768 105.232C591.117 105.582 591.355 106.027 591.452 106.512C591.548 106.997 591.499 107.5 591.309 107.957C591.12 108.414 590.8 108.804 590.389 109.079C589.978 109.353 589.494 109.5 589 109.5H586.5V107ZM580.5 101C580.5 100.337 580.763 99.7011 581.232 99.2322C581.701 98.7634 582.337 98.5 583 98.5C583.663 98.5 584.299 98.7634 584.768 99.2322C585.236 99.7011 585.5 100.337 585.5 101V107C585.5 107.663 585.236 108.299 584.768 108.768C584.299 109.237 583.663 109.5 583 109.5H580.5V101ZM585.5 119C585.5 119.663 585.236 120.299 584.768 120.768C584.299 121.237 583.663 121.5 583 121.5C582.337 121.5 581.701 121.237 581.232 120.768C580.763 120.299 580.5 119.663 580.5 119V116.5H583C583.663 116.5 584.299 116.763 584.768 117.232C585.236 117.701 585.5 118.337 585.5 119ZM589 115.5H583C582.337 115.5 581.701 115.237 581.232 114.768C580.763 114.299 580.5 113.663 580.5 113V110.5H589C589.663 110.5 590.299 110.763 590.768 111.232C591.236 111.701 591.5 112.337 591.5 113C591.5 113.663 591.236 114.299 590.768 114.768C590.299 115.237 589.663 115.5 589 115.5Z" fill="#6b6a64"/>
<rect x="640" y="82" width="56" height="56" rx="28" fill="#f7f6f3"/>
<path d="M680 100.5H656C655.867 100.5 655.74 100.553 655.646 100.646C655.553 100.74 655.5 100.867 655.5 101V118C655.5 118.398 655.658 118.779 655.939 119.061C656.221 119.342 656.602 119.5 657 119.5H679C679.398 119.5 679.779 119.342 680.061 119.061C680.342 118.779 680.5 118.398 680.5 118V101C680.5 100.867 680.447 100.74 680.354 100.646C680.26 100.553 680.133 100.5 680 100.5ZM668 111.321L657.285 101.5H678.715L668 111.321ZM665.079 110L656.5 117.864V102.136L665.079 110ZM665.819 110.679L667.663 112.375C667.755 112.459 667.875 112.506 668 112.506C668.125 112.506 668.245 112.459 668.337 112.375L670.181 110.685L678.715 118.5H657.285L665.819 110.679ZM670.921 110L679.5 102.136V117.864L670.921 110Z" fill="#6b6a64"/>
<rect x="440.5" y="58.5" width="279" height="132" rx="51.5" stroke="#eae9e5"/>
<text fill="#6b6a64" style="white-space: pre" xml:space="preserve" font-family="Inter" font-size="11" letter-spacing="0em"><tspan x="482.434" y="162.5">&#x41a;&#x41e;&#x41c;&#x41c;&#x423;&#x41d;&#x418;&#x41a;&#x410;&#x426;&#x418;&#x42f; &#x423;&#x425;&#x41e;&#x414;&#x418;&#x422; &#x41d;&#x410;&#x420;&#x423;&#x416;&#x423;</tspan></text>
<text fill="#6b6a64" style="white-space: pre" xml:space="preserve" font-family="Inter" font-size="12" font-weight="500" letter-spacing="0em"><tspan x="10" y="297.364">MATCHPOINT</tspan></text>
<rect x="32" y="326" width="56" height="56" rx="28" fill="#eef4fb"/>
<path d="M47.5 353.5C47.3674 353.5 47.2402 353.447 47.1464 353.354C47.0527 353.26 47 353.133 47 353C47 352.867 47.0527 352.74 47.1464 352.646C47.2402 352.553 47.3674 352.5 47.5 352.5H51C51.3978 352.5 51.7794 352.342 52.0607 352.061C52.342 351.779 52.5 351.398 52.5 351C52.5 350.602 52.342 350.221 52.0607 349.939C51.7794 349.658 51.3978 349.5 51 349.5H49C48.337 349.5 47.7011 349.237 47.2322 348.768C46.7634 348.299 46.5 347.663 46.5 347C46.5 346.337 46.7634 345.701 47.2322 345.232C47.7011 344.763 48.337 344.5 49 344.5H49.5V344C49.5 343.867 49.5527 343.74 49.6464 343.646C49.7402 343.553 49.8674 343.5 50 343.5C50.1326 343.5 50.2598 343.553 50.3536 343.646C50.4473 343.74 50.5 343.867 50.5 344V344.5H52C52.1326 344.5 52.2598 344.553 52.3536 344.646C52.4473 344.74 52.5 344.867 52.5 345C52.5 345.133 52.4473 345.26 52.3536 345.354C52.2598 345.447 52.1326 345.5 52 345.5H49C48.6022 345.5 48.2206 345.658 47.9393 345.939C47.658 346.221 47.5 346.602 47.5 347C47.5 347.398 47.658 347.779 47.9393 348.061C48.2206 348.342 48.6022 348.5 49 348.5H51C51.663 348.5 52.2989 348.763 52.7678 349.232C53.2366 349.701 53.5 350.337 53.5 351C53.5 351.663 53.2366 352.299 52.7678 352.768C52.2989 353.237 51.663 353.5 51 353.5H50.5V354C50.5 354.133 50.4473 354.26 50.3536 354.354C50.2598 354.447 50.1326 354.5 50 354.5C49.8674 354.5 49.7402 354.447 49.6464 354.354C49.5527 354.26 49.5 354.133 49.5 354V353.5H47.5ZM72.5 345V362C72.5 362.398 72.342 362.779 72.0607 363.061C71.7794 363.342 71.3978 363.5 71 363.5H49C48.6022 363.5 48.2206 363.342 47.9393 363.061C47.658 362.779 47.5 362.398 47.5 362V357C47.5 356.867 47.5527 356.74 47.6464 356.646C47.7402 356.553 47.8674 356.5 48 356.5C48.1326 356.5 48.2598 356.553 48.3536 356.646C48.4473 356.74 48.5 356.867 48.5 357V362C48.5 362.133 48.5527 362.26 48.6464 362.354C48.7402 362.447 48.8674 362.5 49 362.5H64.5V357.5H54C53.8674 357.5 53.7402 357.447 53.6464 357.354C53.5527 357.26 53.5 357.133 53.5 357C53.5 356.867 53.5527 356.74 53.6464 356.646C53.7402 356.553 53.8674 356.5 54 356.5H64.5V351.5H57C56.8674 351.5 56.7402 351.447 56.6464 351.354C56.5527 351.26 56.5 351.133 56.5 351C56.5 350.867 56.5527 350.74 56.6464 350.646C56.7402 350.553 56.8674 350.5 57 350.5H71.5V345.5H56C55.8674 345.5 55.7402 345.447 55.6464 345.354C55.5527 345.26 55.5 345.133 55.5 345C55.5 344.867 55.5527 344.74 55.6464 344.646C55.7402 344.553 55.8674 344.5 56 344.5H72C72.1326 344.5 72.2598 344.553 72.3536 344.646C72.4473 344.74 72.5 344.867 72.5 345ZM65.5 356.5H71.5V351.5H65.5V356.5ZM71.5 362V357.5H65.5V362.5H71C71.1326 362.5 71.2598 362.447 71.3536 362.354C71.4473 362.26 71.5 362.133 71.5 362Z" fill="#315f8c"/>
<text fill="#315f8c" style="white-space: pre" xml:space="preserve" font-family="Inter" font-size="11" letter-spacing="0em"><tspan x="10.0811" y="406.5">&#x41f;&#x41e;&#x421;&#x422;&#x423;&#x41f;&#x410;&#x415;&#x422; &#x421;&#x427;&#x401;&#x422;</tspan></text>
<rect x="168" y="326" width="56" height="56" rx="28" fill="#f7f6f3"/>
<path d="M206.354 346.646L201.354 341.646C201.307 341.6 201.252 341.563 201.191 341.538C201.131 341.513 201.066 341.5 201 341.5H191C190.602 341.5 190.221 341.658 189.939 341.939C189.658 342.221 189.5 342.602 189.5 343V345.5H187C186.602 345.5 186.221 345.658 185.939 345.939C185.658 346.221 185.5 346.602 185.5 347V365C185.5 365.398 185.658 365.779 185.939 366.061C186.221 366.342 186.602 366.5 187 366.5H201C201.398 366.5 201.779 366.342 202.061 366.061C202.342 365.779 202.5 365.398 202.5 365V362.5H205C205.398 362.5 205.779 362.342 206.061 362.061C206.342 361.779 206.5 361.398 206.5 361V347C206.5 346.934 206.487 346.869 206.462 346.809C206.437 346.748 206.4 346.693 206.354 346.646ZM201.5 365C201.5 365.133 201.447 365.26 201.354 365.354C201.26 365.447 201.133 365.5 201 365.5H187C186.867 365.5 186.74 365.447 186.646 365.354C186.553 365.26 186.5 365.133 186.5 365V347C186.5 346.867 186.553 346.74 186.646 346.646C186.74 346.553 186.867 346.5 187 346.5H196.792L201.5 351.208V365ZM205.5 361C205.5 361.133 205.447 361.26 205.354 361.354C205.26 361.447 205.133 361.5 205 361.5H202.5V351C202.5 350.934 202.487 350.869 202.462 350.809C202.437 350.748 202.4 350.693 202.354 350.646L197.354 345.646C197.307 345.6 197.252 345.563 197.191 345.538C197.131 345.513 197.066 345.5 197 345.5H190.5V343C190.5 342.867 190.553 342.74 190.646 342.646C190.74 342.553 190.867 342.5 191 342.5H200.792L205.5 347.208V361ZM197.5 357C197.5 357.133 197.447 357.26 197.354 357.354C197.26 357.447 197.133 357.5 197 357.5H191C190.867 357.5 190.74 357.447 190.646 357.354C190.553 357.26 190.5 357.133 190.5 357C190.5 356.867 190.553 356.74 190.646 356.646C190.74 356.553 190.867 356.5 191 356.5H197C197.133 356.5 197.26 356.553 197.354 356.646C197.447 356.74 197.5 356.867 197.5 357ZM197.5 361C197.5 361.133 197.447 361.26 197.354 361.354C197.26 361.447 197.133 361.5 197 361.5H191C190.867 361.5 190.74 361.447 190.646 361.354C190.553 361.26 190.5 361.133 190.5 361C190.5 360.867 190.553 360.74 190.646 360.646C190.74 360.553 190.867 360.5 191 360.5H197C197.133 360.5 197.26 360.553 197.354 360.646C197.447 360.74 197.5 360.867 197.5 361Z" fill="#6b6a64"/>
<text fill="#6b6a64" style="white-space: pre" xml:space="preserve" font-family="Inter" font-size="11" letter-spacing="0em"><tspan x="172.824" y="406.5">&#x421;&#x412;&#x415;&#x420;&#x41a;&#x410; &#10;</tspan><tspan x="157.312" y="423.5">&#x414;&#x41e;&#x41a;&#x423;&#x41c;&#x415;&#x41d;&#x422;&#x41e;&#x412;</tspan></text>
<rect x="312" y="326" width="56" height="56" rx="28" fill="#fff6dd"/>
<path d="M353.168 361.761L342.235 342.778C342.006 342.389 341.68 342.066 341.288 341.842C340.896 341.618 340.452 341.5 340 341.5C339.549 341.5 339.105 341.618 338.713 341.842C338.321 342.066 337.994 342.389 337.765 342.778L326.833 361.761C326.614 362.135 326.499 362.56 326.499 362.993C326.499 363.426 326.614 363.851 326.833 364.225C327.058 364.617 327.384 364.942 327.777 365.166C328.17 365.39 328.616 365.505 329.068 365.5H350.933C351.385 365.505 351.83 365.389 352.222 365.165C352.614 364.941 352.94 364.617 353.165 364.225C353.384 363.852 353.5 363.427 353.5 362.994C353.501 362.561 353.386 362.135 353.168 361.761ZM352.3 363.725C352.161 363.964 351.962 364.161 351.721 364.298C351.481 364.434 351.209 364.504 350.933 364.5H329.068C328.792 364.504 328.52 364.434 328.279 364.298C328.039 364.161 327.839 363.964 327.7 363.725C327.568 363.504 327.499 363.25 327.499 362.993C327.499 362.735 327.568 362.482 327.7 362.26L338.632 343.276C338.773 343.04 338.974 342.844 339.214 342.708C339.453 342.572 339.725 342.5 340 342.5C340.276 342.5 340.547 342.572 340.787 342.708C341.027 342.844 341.227 343.04 341.369 343.276L352.3 362.26C352.432 362.482 352.502 362.735 352.502 362.993C352.502 363.25 352.432 363.504 352.3 363.725ZM339.5 356V351C339.5 350.867 339.553 350.74 339.647 350.647C339.741 350.553 339.868 350.5 340 350.5C340.133 350.5 340.26 350.553 340.354 350.647C340.448 350.74 340.5 350.867 340.5 351V356C340.5 356.133 340.448 356.26 340.354 356.354C340.26 356.447 340.133 356.5 340 356.5C339.868 356.5 339.741 356.447 339.647 356.354C339.553 356.26 339.5 356.133 339.5 356ZM341 360.5C341 360.698 340.942 360.891 340.832 361.056C340.722 361.22 340.566 361.348 340.383 361.424C340.2 361.5 339.999 361.519 339.805 361.481C339.611 361.442 339.433 361.347 339.293 361.207C339.153 361.067 339.058 360.889 339.02 360.695C338.981 360.501 339.001 360.3 339.076 360.117C339.152 359.935 339.28 359.778 339.445 359.669C339.609 359.559 339.803 359.5 340 359.5C340.266 359.5 340.52 359.605 340.707 359.793C340.895 359.981 341 360.235 341 360.5Z" fill="#8a5a00"/>
<text fill="#8a5a00" style="white-space: pre" xml:space="preserve" font-family="Inter" font-size="11" letter-spacing="0em"><tspan x="297.692" y="406.5">&#x420;&#x410;&#x421;&#x425;&#x41e;&#x416;&#x414;&#x415;&#x41d;&#x418;&#x415; </tspan><tspan x="300.705" y="423.5">&#x41e;&#x411;&#x41d;&#x410;&#x420;&#x423;&#x416;&#x415;&#x41d;&#x41e;</tspan></text>
<rect x="456" y="326" width="56" height="56" rx="28" fill="#fff6dd"/>
<path d="M497.168 361.761L486.235 342.778C486.006 342.389 485.68 342.066 485.288 341.842C484.896 341.618 484.452 341.5 484 341.5C483.549 341.5 483.105 341.618 482.713 341.842C482.321 342.066 481.994 342.389 481.765 342.778L470.833 361.761C470.614 362.135 470.499 362.56 470.499 362.993C470.499 363.426 470.614 363.851 470.833 364.225C471.058 364.617 471.384 364.942 471.777 365.166C472.17 365.39 472.616 365.505 473.068 365.5H494.933C495.385 365.505 495.83 365.389 496.222 365.165C496.614 364.941 496.94 364.617 497.165 364.225C497.384 363.852 497.5 363.427 497.5 362.994C497.501 362.561 497.386 362.135 497.168 361.761ZM496.3 363.725C496.161 363.964 495.962 364.161 495.721 364.298C495.481 364.434 495.209 364.504 494.933 364.5H473.068C472.792 364.504 472.52 364.434 472.279 364.298C472.039 364.161 471.839 363.964 471.7 363.725C471.568 363.504 471.499 363.25 471.499 362.993C471.499 362.735 471.568 362.482 471.7 362.26L482.632 343.276C482.773 343.04 482.974 342.844 483.214 342.708C483.453 342.572 483.725 342.5 484 342.5C484.276 342.5 484.547 342.572 484.787 342.708C485.027 342.844 485.227 343.04 485.369 343.276L496.3 362.26C496.432 362.482 496.502 362.735 496.502 362.993C496.502 363.25 496.432 363.504 496.3 363.725ZM483.5 356V351C483.5 350.867 483.553 350.74 483.647 350.647C483.741 350.553 483.868 350.5 484 350.5C484.133 350.5 484.26 350.553 484.354 350.647C484.448 350.74 484.5 350.867 484.5 351V356C484.5 356.133 484.448 356.26 484.354 356.354C484.26 356.447 484.133 356.5 484 356.5C483.868 356.5 483.741 356.447 483.647 356.354C483.553 356.26 483.5 356.133 483.5 356ZM485 360.5C485 360.698 484.942 360.891 484.832 361.056C484.722 361.22 484.566 361.348 484.383 361.424C484.2 361.5 483.999 361.519 483.805 361.481C483.611 361.442 483.433 361.347 483.293 361.207C483.153 361.067 483.058 360.889 483.02 360.695C482.981 360.501 483.001 360.3 483.076 360.117C483.152 359.935 483.28 359.778 483.445 359.669C483.609 359.559 483.803 359.5 484 359.5C484.266 359.5 484.52 359.605 484.707 359.793C484.895 359.981 485 360.235 485 360.5Z" fill="#8a5a00"/>
<rect x="452.75" y="322.75" width="62.5" height="62.5" rx="31.25" stroke="#edd6a2" stroke-width="1.5"/>
<text fill="#8a5a00" style="white-space: pre" xml:space="preserve" font-family="Inter" font-size="11" letter-spacing="0em"><tspan x="435.504" y="406.5">&#x418;&#x421;&#x41a;&#x41b;&#x42e;&#x427;&#x415;&#x41d;&#x418;&#x415; &#x2014; &#10;</tspan><tspan x="417.726" y="423.5">&#x423;&#x41f;&#x420;&#x410;&#x412;&#x41b;&#x42f;&#x415;&#x41c;&#x42b;&#x419; &#x41e;&#x411;&#x42a;&#x415;&#x41a;&#x422;</tspan></text>
<rect x="600" y="326" width="56" height="56" rx="28" fill="#f7f6f3"/>
<path d="M640.353 365.646L633.766 359.059C635.612 357.028 636.591 354.355 636.493 351.612C636.395 348.869 635.228 346.273 633.242 344.379C631.255 342.485 628.607 341.443 625.862 341.476C623.117 341.508 620.494 342.613 618.554 344.554C616.613 346.495 615.508 349.118 615.475 351.862C615.443 354.607 616.485 357.255 618.379 359.242C620.273 361.228 622.869 362.395 625.612 362.493C628.355 362.591 631.027 361.612 633.058 359.766L639.646 366.354C639.74 366.447 639.867 366.5 640 366.5C640.132 366.5 640.26 366.447 640.353 366.354C640.447 366.26 640.5 366.133 640.5 366C640.5 365.867 640.447 365.74 640.353 365.646ZM616.5 352C616.5 350.121 617.057 348.284 618.101 346.722C619.145 345.16 620.628 343.942 622.364 343.223C624.1 342.504 626.01 342.316 627.853 342.682C629.696 343.049 631.389 343.954 632.717 345.282C634.046 346.611 634.951 348.304 635.317 350.147C635.684 351.989 635.496 353.899 634.777 355.635C634.057 357.371 632.84 358.855 631.278 359.899C629.715 360.943 627.879 361.5 626 361.5C623.481 361.497 621.066 360.496 619.285 358.714C617.504 356.933 616.502 354.519 616.5 352Z" fill="#6b6a64"/>
<text fill="#6b6a64" style="white-space: pre" xml:space="preserve" font-family="Inter" font-size="11" letter-spacing="0em"><tspan x="585.644" y="406.5">&#x414;&#x418;&#x410;&#x413;&#x41d;&#x41e;&#x421;&#x422;&#x418;&#x41a;&#x410;</tspan></text>
<rect x="744" y="326" width="56" height="56" rx="28" fill="#f7f6f3"/>
<path d="M781 359.5C780.158 359.5 779.345 359.803 778.709 360.354C778.073 360.905 777.656 361.667 777.536 362.5H765C763.807 362.5 762.662 362.026 761.818 361.182C760.974 360.338 760.5 359.193 760.5 358C760.5 356.807 760.974 355.662 761.818 354.818C762.662 353.974 763.807 353.5 765 353.5H777C778.193 353.5 779.338 353.026 780.182 352.182C781.026 351.338 781.5 350.193 781.5 349C781.5 347.807 781.026 346.662 780.182 345.818C779.338 344.974 778.193 344.5 777 344.5H765C764.867 344.5 764.74 344.553 764.646 344.646C764.553 344.74 764.5 344.867 764.5 345C764.5 345.133 764.553 345.26 764.646 345.354C764.74 345.447 764.867 345.5 765 345.5H777C777.928 345.5 778.818 345.869 779.475 346.525C780.131 347.182 780.5 348.072 780.5 349C780.5 349.928 780.131 350.818 779.475 351.475C778.818 352.131 777.928 352.5 777 352.5H765C763.541 352.5 762.142 353.079 761.111 354.111C760.079 355.142 759.5 356.541 759.5 358C759.5 359.459 760.079 360.858 761.111 361.889C762.142 362.921 763.541 363.5 765 363.5H777.536C777.632 364.164 777.917 364.786 778.356 365.293C778.796 365.8 779.372 366.17 780.016 366.359C780.66 366.547 781.344 366.547 781.988 366.358C782.631 366.169 783.207 365.798 783.646 365.291C784.085 364.784 784.37 364.161 784.465 363.497C784.56 362.833 784.463 362.156 784.184 361.545C783.905 360.935 783.457 360.418 782.892 360.055C782.328 359.693 781.671 359.5 781 359.5ZM781 365.5C780.506 365.5 780.022 365.353 779.611 365.079C779.2 364.804 778.88 364.414 778.69 363.957C778.501 363.5 778.452 362.997 778.548 362.512C778.644 362.027 778.883 361.582 779.232 361.232C779.582 360.883 780.027 360.644 780.512 360.548C780.997 360.452 781.5 360.501 781.957 360.69C782.414 360.88 782.804 361.2 783.079 361.611C783.353 362.022 783.5 362.506 783.5 363C783.5 363.663 783.237 364.299 782.768 364.768C782.299 365.237 781.663 365.5 781 365.5Z" fill="#6b6a64"/>
<text fill="#6b6a64" style="white-space: pre" xml:space="preserve" font-family="Inter" font-size="11" letter-spacing="0em"><tspan x="720.636" y="406.5">&#x41c;&#x410;&#x420;&#x428;&#x420;&#x423;&#x422;&#x418;&#x417;&#x410;&#x426;&#x418;&#x42f;</tspan></text>
<rect x="888" y="326" width="56" height="56" rx="28" fill="#edf7ef"/>
<path d="M928.354 347.354L912.354 363.354C912.308 363.4 912.252 363.437 912.192 363.462C912.131 363.487 912.066 363.5 912 363.5C911.935 363.5 911.87 363.487 911.809 363.462C911.748 363.437 911.693 363.4 911.647 363.354L904.647 356.354C904.553 356.26 904.5 356.133 904.5 356C904.5 355.867 904.553 355.74 904.647 355.646C904.74 355.552 904.868 355.5 905 355.5C905.133 355.5 905.26 355.552 905.354 355.646L912 362.293L927.647 346.646C927.74 346.552 927.868 346.5 928 346.5C928.133 346.5 928.26 346.552 928.354 346.646C928.448 346.74 928.501 346.867 928.501 347C928.501 347.133 928.448 347.26 928.354 347.354Z" fill="#2f6b3f"/>
<text fill="#2f6b3f" style="white-space: pre" xml:space="preserve" font-family="Inter" font-size="11" letter-spacing="0em"><tspan x="860.737" y="406.5">&#x420;&#x415;&#x428;&#x415;&#x41d;&#x418;&#x415; &#x41f;&#x420;&#x418;&#x41d;&#x42f;&#x422;&#x41e;</tspan></text>
<rect x="1032" y="326" width="56" height="56" rx="28" fill="#f7f6f3"/>
<path d="M1060.5 348V353.718L1065.26 356.571C1065.37 356.64 1065.45 356.75 1065.49 356.879C1065.52 357.008 1065.5 357.144 1065.43 357.258C1065.36 357.371 1065.25 357.453 1065.12 357.485C1064.99 357.517 1064.86 357.497 1064.74 357.429L1059.74 354.429C1059.67 354.384 1059.61 354.321 1059.56 354.246C1059.52 354.171 1059.5 354.086 1059.5 354V348C1059.5 347.867 1059.55 347.74 1059.65 347.646C1059.74 347.553 1059.87 347.5 1060 347.5C1060.13 347.5 1060.26 347.553 1060.35 347.646C1060.45 347.74 1060.5 347.867 1060.5 348ZM1060 342.5C1058.49 342.497 1056.99 342.793 1055.59 343.373C1054.2 343.952 1052.93 344.802 1051.87 345.875C1050.63 347.125 1049.58 348.309 1048.5 349.608V346C1048.5 345.867 1048.45 345.74 1048.35 345.646C1048.26 345.553 1048.13 345.5 1048 345.5C1047.87 345.5 1047.74 345.553 1047.65 345.646C1047.55 345.74 1047.5 345.867 1047.5 346V351C1047.5 351.133 1047.55 351.26 1047.65 351.354C1047.74 351.447 1047.87 351.5 1048 351.5H1053C1053.13 351.5 1053.26 351.447 1053.35 351.354C1053.45 351.26 1053.5 351.133 1053.5 351C1053.5 350.867 1053.45 350.74 1053.35 350.646C1053.26 350.553 1053.13 350.5 1053 350.5H1049.06C1050.2 349.125 1051.29 347.875 1052.57 346.575C1054.03 345.116 1055.89 344.119 1057.91 343.709C1059.94 343.299 1062.03 343.494 1063.95 344.27C1065.86 345.046 1067.5 346.368 1068.67 348.071C1069.83 349.774 1070.47 351.783 1070.5 353.847C1070.53 355.91 1069.95 357.937 1068.83 359.674C1067.72 361.41 1066.12 362.779 1064.23 363.61C1062.34 364.441 1060.25 364.697 1058.21 364.346C1056.18 363.995 1054.29 363.053 1052.79 361.636C1052.7 361.545 1052.57 361.496 1052.44 361.5C1052.3 361.504 1052.18 361.56 1052.09 361.656C1052 361.753 1051.95 361.881 1051.95 362.014C1051.95 362.147 1052.01 362.273 1052.11 362.364C1053.47 363.652 1055.13 364.587 1056.94 365.086C1058.75 365.585 1060.65 365.634 1062.49 365.228C1064.32 364.822 1066.02 363.973 1067.45 362.756C1068.88 361.54 1069.99 359.991 1070.69 358.247C1071.38 356.503 1071.64 354.615 1071.43 352.749C1071.23 350.883 1070.57 349.096 1069.51 347.542C1068.46 345.989 1067.04 344.718 1065.38 343.839C1063.73 342.96 1061.88 342.5 1060 342.5Z" fill="#6b6a64"/>
<text fill="#6b6a64" style="white-space: pre" xml:space="preserve" font-family="Inter" font-size="11" letter-spacing="0em"><tspan x="1000.49" y="406.5">&#x418;&#x421;&#x422;&#x41e;&#x420;&#x418;&#x42f; &#x414;&#x415;&#x419;&#x421;&#x422;&#x412;&#x418;&#x419;</tspan></text>
</svg>
