<svg xmlns="http://www.w3.org/2000/svg" viewBox="0 0 1200 750" width="1200" height="750" font-family="Inter, sans-serif">
  <!-- TEMPORARY placeholder — мок «Dashboard» для демо Carousel. Заменить реальным скриншотом. -->
  <rect width="1200" height="750" fill="#ffffff"/>
  <rect x="0" y="0" width="1200" height="64" fill="#f7f6f3"/>
  <rect x="0" y="63" width="1200" height="1" fill="#eae9e5"/>
  <circle cx="36" cy="32" r="12" fill="#4f46e5"/>
  <rect x="60" y="25" width="140" height="14" rx="7" fill="#d8d6cf"/>
  <rect x="24" y="96" width="760" height="630" rx="14" fill="#f7f6f3" stroke="#eae9e5"/>
  <rect x="48" y="124" width="200" height="16" rx="8" fill="#37352f"/>
  <g fill="#ffffff" stroke="#eae9e5">
    <rect x="48" y="170" width="712" height="80" rx="10"/>
    <rect x="48" y="262" width="712" height="80" rx="10"/>
    <rect x="48" y="354" width="712" height="80" rx="10"/>
    <rect x="48" y="446" width="712" height="80" rx="10"/>
  </g>
  <rect x="808" y="96" width="368" height="630" rx="14" fill="#f7f6f3" stroke="#eae9e5"/>
  <rect x="832" y="124" width="160" height="16" rx="8" fill="#37352f"/>
  <rect x="832" y="170" width="320" height="120" rx="12" fill="#eff6ff"/>
  <text x="992" y="240" text-anchor="middle" font-size="34" font-weight="700" fill="#2563eb">Dashboard</text>
</svg>
