<svg width="496" height="310" viewBox="0 0 496 310" fill="none" xmlns="http://www.w3.org/2000/svg">
<path d="M8 0.5H488C492.142 0.5 495.5 3.85786 495.5 8V302C495.5 306.142 492.142 309.5 488 309.5H8C3.85787 309.5 0.5 306.142 0.5 302V8C0.5 3.85787 3.85786 0.5 8 0.5Z" fill="white"/>
<path d="M8 0.5H488C492.142 0.5 495.5 3.85786 495.5 8V302C495.5 306.142 492.142 309.5 488 309.5H8C3.85787 309.5 0.5 306.142 0.5 302V8C0.5 3.85787 3.85786 0.5 8 0.5Z" stroke="#EAE9E5"/>
<mask id="path-2-inside-1_2817_11623" fill="white">
<path d="M49 81C49 78.7909 50.7909 77 53 77H148C150.209 77 152 78.7909 152 81V101C152 103.209 150.209 105 148 105H53C50.7909 105 49 103.209 49 101V81Z"/>
</mask>
<path d="M49 81C49 78.7909 50.7909 77 53 77H148C150.209 77 152 78.7909 152 81V101C152 103.209 150.209 105 148 105H53C50.7909 105 49 103.209 49 101V81Z" fill="#FFF6DD"/>
<path d="M53 77V78H148V77V76H53V77ZM152 81H151V101H152H153V81H152ZM148 105V104H53V105V106H148V105ZM49 101H50V81H49H48V101H49ZM53 105V104C51.3431 104 50 102.657 50 101H49H48C48 103.761 50.2386 106 53 106V105ZM152 101H151C151 102.657 149.657 104 148 104V105V106C150.761 106 153 103.761 153 101H152ZM148 77V78C149.657 78 151 79.3431 151 81H152H153C153 78.2386 150.761 76 148 76V77ZM53 77V76C50.2386 76 48 78.2386 48 81H49H50C50 79.3431 51.3431 78 53 78V77Z" fill="#EDD6A2" mask="url(#path-2-inside-1_2817_11623)"/>
<rect x="58" y="88" width="6" height="6" rx="3" fill="#C07D0A"/>
<text fill="#8A5A00" style="white-space: pre" xml:space="preserve" font-family="Inter" font-size="12" letter-spacing="0em"><tspan x="72" y="95.3636">Low battery</tspan></text>
<mask id="path-6-inside-2_2817_11623" fill="white">
<path d="M173 81C173 78.7909 174.791 77 177 77H316C318.209 77 320 78.7909 320 81V101C320 103.209 318.209 105 316 105H177C174.791 105 173 103.209 173 101V81Z"/>
</mask>
<path d="M173 81C173 78.7909 174.791 77 177 77H316C318.209 77 320 78.7909 320 81V101C320 103.209 318.209 105 316 105H177C174.791 105 173 103.209 173 101V81Z" fill="#FDF0ED"/>
<path d="M177 77V78H316V77V76H177V77ZM320 81H319V101H320H321V81H320ZM316 105V104H177V105V106H316V105ZM173 101H174V81H173H172V101H173ZM177 105V104C175.343 104 174 102.657 174 101H173H172C172 103.761 174.239 106 177 106V105ZM320 101H319C319 102.657 317.657 104 316 104V105V106C318.761 106 321 103.761 321 101H320ZM316 77V78C317.657 78 319 79.3431 319 81H320H321C321 78.2386 318.761 76 316 76V77ZM177 77V76C174.239 76 172 78.2386 172 81H173H174C174 79.3431 175.343 78 177 78V77Z" fill="#F2C8BD" mask="url(#path-6-inside-2_2817_11623)"/>
<rect x="182" y="88" width="6" height="6" rx="3" fill="#C95D45"/>
<text fill="#9F341F" style="white-space: pre" xml:space="preserve" font-family="Inter" font-size="12" letter-spacing="0em"><tspan x="196" y="95.3636">Communication lost</tspan></text>
<mask id="path-10-inside-3_2817_11623" fill="white">
<path d="M330 81C330 78.7909 331.791 77 334 77H442C444.209 77 446 78.7909 446 81V101C446 103.209 444.209 105 442 105H334C331.791 105 330 103.209 330 101V81Z"/>
</mask>
<path d="M330 81C330 78.7909 331.791 77 334 77H442C444.209 77 446 78.7909 446 81V101C446 103.209 444.209 105 442 105H334C331.791 105 330 103.209 330 101V81Z" fill="#F7F6F3"/>
<path d="M334 77V78H442V77V76H334V77ZM446 81H445V101H446H447V81H446ZM442 105V104H334V105V106H442V105ZM330 101H331V81H330H329V101H330ZM334 105V104C332.343 104 331 102.657 331 101H330H329C329 103.761 331.239 106 334 106V105ZM446 101H445C445 102.657 443.657 104 442 104V105V106C444.761 106 447 103.761 447 101H446ZM442 77V78C443.657 78 445 79.3431 445 81H446H447C447 78.2386 444.761 76 442 76V77ZM334 77V76C331.239 76 329 78.2386 329 81H330H331C331 79.3431 332.343 78 334 78V77Z" fill="#D8D6CF" mask="url(#path-10-inside-3_2817_11623)"/>
<rect x="339" y="88" width="6" height="6" rx="3" fill="#9A988F"/>
<text fill="#6B6A64" style="white-space: pre" xml:space="preserve" font-family="Inter" font-size="12" letter-spacing="0em"><tspan x="353" y="95.3636">Telemetry gap</tspan></text>
<mask id="path-14-inside-4_2817_11623" fill="white">
<path d="M67 181H427V253H67V181Z"/>
</mask>
<path d="M67 181H427V253H67V181Z" fill="#F7F6F3"/>
<path d="M67 181V182H427V181V180H67V181ZM427 253V252H67V253V254H427V253Z" fill="#D8D6CF" mask="url(#path-14-inside-4_2817_11623)"/>
<path d="M67 182H71V254H67V182Z" fill="#C95D45"/>
<rect x="83" y="191" width="25" height="16" rx="2" fill="#FDF0ED"/>
<text fill="#9F341F" style="white-space: pre" xml:space="preserve" font-family="Inter" font-size="11" font-weight="500" letter-spacing="0em"><tspan x="89" y="203">P1</tspan></text>
<text fill="#37352F" style="white-space: pre" xml:space="preserve" font-family="JetBrains Mono" font-size="12" font-weight="500" letter-spacing="0.02em"><tspan x="116" y="203.32">T-MSK-0956</tspan></text>
<path d="M200 200.258C199.793 200.258 199.615 200.183 199.466 200.035C199.317 199.886 199.243 199.708 199.243 199.501C199.243 199.293 199.317 199.115 199.466 198.967C199.615 198.818 199.793 198.744 200 198.744C200.208 198.744 200.386 198.818 200.534 198.967C200.683 199.115 200.757 199.293 200.757 199.501C200.757 199.638 200.722 199.764 200.652 199.879C200.585 199.994 200.494 200.087 200.379 200.157C200.267 200.224 200.14 200.258 200 200.258Z" fill="#9A988F"/>
<text fill="#6B6A64" style="white-space: pre" xml:space="preserve" font-family="JetBrains Mono" font-size="12" letter-spacing="0.02em"><tspan x="209" y="203.32">now</tspan></text>
<text fill="#37352F" style="white-space: pre" xml:space="preserve" font-family="Inter" font-size="13" font-weight="500" letter-spacing="0em"><tspan x="83" y="221.727">Communication lost</tspan></text>
<text fill="#6B6A64" style="white-space: pre" xml:space="preserve" font-family="Inter" font-size="12" letter-spacing="0em"><tspan x="83" y="239.364">3 symptoms</tspan></text>
<path d="M158 236.258C157.793 236.258 157.615 236.183 157.466 236.035C157.317 235.886 157.243 235.708 157.243 235.501C157.243 235.293 157.317 235.115 157.466 234.967C157.615 234.818 157.793 234.744 158 234.744C158.208 234.744 158.386 234.818 158.534 234.967C158.683 235.115 158.757 235.293 158.757 235.501C158.757 235.638 158.722 235.764 158.652 235.879C158.585 235.994 158.494 236.087 158.379 236.157C158.267 236.224 158.14 236.258 158 236.258Z" fill="#9A988F"/>
<text fill="#9A988F" style="white-space: pre" xml:space="preserve" font-family="Inter" font-size="12" letter-spacing="0em"><tspan x="163" y="239.364">unassigned</tspan></text>
<path d="M101 106.969L101 125.469C101 134.305 108.163 141.469 117 141.469L211 141.469C219.837 141.469 227 148.632 227 157.469L227 175.969" stroke="#EDD6A2" stroke-linecap="round"/>
<path d="M227.54 179.911L229.886 176.137C230.158 175.698 229.915 175.136 229.457 175.021C229.345 174.993 229.228 175.02 229.12 175.059L227 175.823L224.88 175.059C224.771 175.02 224.655 174.993 224.543 175.021C224.092 175.135 223.847 175.683 224.105 176.122L226.328 179.895C226.602 180.361 227.254 180.37 227.54 179.911Z" fill="#EDD6A2"/>
<path d="M99 105C99 103.895 99.8954 103 101 103C102.105 103 103 103.895 103 105C103 106.105 102.105 107 101 107C99.8954 107 99 106.105 99 105Z" fill="white" stroke="#EDD6A2" stroke-width="2"/>
<path d="M247 107.323L247 176" stroke="#F2C8BD" stroke-linecap="round"/>
<path d="M247.54 179.911L249.886 176.137C250.158 175.698 249.915 175.136 249.457 175.021C249.345 174.993 249.228 175.02 249.12 175.059L247 175.823L244.88 175.059C244.771 175.02 244.655 174.993 244.543 175.021C244.092 175.135 243.847 175.683 244.105 176.122L246.328 179.895C246.602 180.361 247.254 180.37 247.54 179.911Z" fill="#F2C8BD"/>
<path d="M245 105C245 103.895 245.895 103 247 103C248.105 103 249 103.895 249 105C249 106.105 248.105 107 247 107C245.895 107 245 106.105 245 105Z" fill="white" stroke="#F2C8BD" stroke-width="2"/>
<path d="M388 106.969L388 125.469C388 134.305 380.837 141.469 372 141.469L283 141.469C274.163 141.469 267 148.632 267 157.469L267 175.969" stroke="#D8D6CF" stroke-linecap="round"/>
<path d="M266.46 179.911L264.114 176.137C263.842 175.698 264.085 175.136 264.543 175.021C264.655 174.993 264.772 175.02 264.88 175.059L267 175.823L269.12 175.059C269.229 175.02 269.345 174.993 269.457 175.021C269.908 175.135 270.153 175.683 269.895 176.122L267.672 179.895C267.398 180.361 266.746 180.37 266.46 179.911Z" fill="#D8D6CF"/>
<path d="M390 105C390 103.895 389.105 103 388 103C386.895 103 386 103.895 386 105C386 106.105 386.895 107 388 107C389.105 107 390 106.105 390 105Z" fill="white" stroke="#D8D6CF" stroke-width="2"/>
</svg>
