<svg width="496" height="310" viewBox="0 0 496 310" fill="none" xmlns="http://www.w3.org/2000/svg">
<path d="M8 0.5H488C492.142 0.5 495.5 3.85786 495.5 8V302C495.5 306.142 492.142 309.5 488 309.5H8C3.85787 309.5 0.5 306.142 0.5 302V8C0.5 3.85787 3.85786 0.5 8 0.5Z" fill="white"/>
<path d="M8 0.5H488C492.142 0.5 495.5 3.85786 495.5 8V302C495.5 306.142 492.142 309.5 488 309.5H8C3.85787 309.5 0.5 306.142 0.5 302V8C0.5 3.85787 3.85786 0.5 8 0.5Z" stroke="#EAE9E5"/>
<path d="M136 59C154.987 59 173.548 64.6303 189.335 75.1789C205.122 85.7275 217.426 100.721 224.692 118.262C231.958 135.804 233.86 155.106 230.155 173.729C226.451 192.351 217.308 209.456 203.882 222.882L169.941 188.941C176.654 182.228 181.226 173.675 183.078 164.364C184.93 155.053 183.979 145.402 180.346 136.631C176.713 127.86 170.561 120.364 162.667 115.089C154.774 109.815 145.493 107 136 107L136 59Z" fill="#CF6CA3" stroke="white"/>
<path d="M136 251C148.607 251 161.09 248.517 172.738 243.692C184.385 238.868 194.968 231.797 203.882 222.882L169.941 188.941C165.484 193.398 160.192 196.934 154.369 199.346C148.545 201.758 142.303 203 136 203L136 251Z" fill="#4F96E4" stroke="white"/>
<path d="M43.2711 179.847C48.7407 200.259 60.7931 218.297 77.5589 231.162C94.3248 244.027 114.867 251 136 251L136 203C125.434 203 115.162 199.513 106.779 193.081C98.3965 186.649 92.3704 177.63 89.6356 167.423L43.2711 179.847Z" fill="#DFB74F" stroke="white"/>
<path d="M136 59C127.61 59 119.257 60.0997 111.153 62.2711L123.577 108.636C127.629 107.55 131.805 107 136 107L136 59Z" fill="#9E7BD3" stroke="white"/>
<path d="M111.153 62.2711C98.976 65.534 87.5606 71.1635 77.5589 78.8381C67.5572 86.5127 59.165 96.0821 52.8616 107C46.5581 117.918 42.4668 129.97 40.8213 142.469C39.1758 154.969 40.0082 167.669 43.2711 179.847L89.6356 167.423C88.0041 161.335 87.5879 154.984 88.4106 148.735C89.2334 142.485 91.2791 136.459 94.4308 131C97.5825 125.541 101.779 120.756 106.779 116.919C111.78 113.082 117.488 110.267 123.577 108.636L111.153 62.2711Z" fill="#78BB91" stroke="white"/>
<circle cx="277.5" cy="71" r="5.5" stroke="#78BB91" stroke-width="2"/>
<text fill="#6B6A64" style="white-space: pre" xml:space="preserve" font-family="Inter" font-size="14" letter-spacing="0em"><tspan x="299" y="76.0909">Moving</tspan></text>
<text fill="#6B6A64" style="white-space: pre" xml:space="preserve" font-family="Inter" font-size="14" letter-spacing="0em"><tspan x="439" y="76.0909">25</tspan></text>
<text fill="#37352F" style="white-space: pre" xml:space="preserve" font-family="Inter" font-size="14" font-weight="500" letter-spacing="0em"><tspan x="272" y="112.091">Hasn&#x2019;t moved for:</tspan></text>
<circle cx="277.5" cy="143" r="5.5" stroke="#CF6CA3" stroke-width="2"/>
<text fill="#6B6A64" style="white-space: pre" xml:space="preserve" font-family="Inter" font-size="14" letter-spacing="0em"><tspan x="299" y="148.091">2&#x2013;3 hours</tspan></text>
<text fill="#6B6A64" style="white-space: pre" xml:space="preserve" font-family="Inter" font-size="14" letter-spacing="0em"><tspan x="438" y="148.091">38</tspan></text>
<circle cx="277.5" cy="175" r="5.5" stroke="#DFB74F" stroke-width="2"/>
<text fill="#6B6A64" style="white-space: pre" xml:space="preserve" font-family="Inter" font-size="14" letter-spacing="0em"><tspan x="299" y="180.091">3&#x2013;8 hours</tspan></text>
<text fill="#6B6A64" style="white-space: pre" xml:space="preserve" font-family="Inter" font-size="14" letter-spacing="0em"><tspan x="441" y="180.091">21</tspan></text>
<circle cx="277.5" cy="207" r="5.5" stroke="#4F96E4" stroke-width="2"/>
<text fill="#6B6A64" style="white-space: pre" xml:space="preserve" font-family="Inter" font-size="14" letter-spacing="0em"><tspan x="299" y="212.091">8&#x2013;72 hours</tspan></text>
<text fill="#6B6A64" style="white-space: pre" xml:space="preserve" font-family="Inter" font-size="14" letter-spacing="0em"><tspan x="441" y="212.091">12</tspan></text>
<circle cx="277.5" cy="239" r="5.5" stroke="#9E7BD3" stroke-width="2"/>
<text fill="#6B6A64" style="white-space: pre" xml:space="preserve" font-family="Inter" font-size="14" letter-spacing="0em"><tspan x="299" y="244.091">72+ hours</tspan></text>
<text fill="#6B6A64" style="white-space: pre" xml:space="preserve" font-family="Inter" font-size="14" letter-spacing="0em"><tspan x="447" y="244.091">4</tspan></text>
</svg>
