<svg width="752" height="412" viewBox="0 0 752 412" fill="none" xmlns="http://www.w3.org/2000/svg">
<path d="M8 0.5H744C748.142 0.5 751.5 3.85786 751.5 8V404C751.5 408.142 748.142 411.5 744 411.5H8C3.85786 411.5 0.5 408.142 0.5 404V8C0.5 3.85786 3.85786 0.5 8 0.5Z" fill="white"/>
<path d="M8 0.5H744C748.142 0.5 751.5 3.85786 751.5 8V404C751.5 408.142 748.142 411.5 744 411.5H8C3.85786 411.5 0.5 408.142 0.5 404V8C0.5 3.85786 3.85786 0.5 8 0.5Z" stroke="#EAE9E5"/>
<path d="M40 290C40 285.582 43.5817 282 48 282H176C180.418 282 184 285.582 184 290V338C184 342.418 180.418 346 176 346H48C43.5817 346 40 342.418 40 338V290Z" fill="#F7F6F3"/>
<path d="M40 290C40 285.582 43.5817 282 48 282H176C180.418 282 184 285.582 184 290V338C184 342.418 180.418 346 176 346H48C43.5817 346 40 342.418 40 338V290Z" stroke="#D8D6CF" stroke-linecap="round" stroke-linejoin="round"/>
<text fill="#37352F" style="white-space: pre" xml:space="preserve" font-family="Inter" font-size="14" font-weight="500" letter-spacing="0em"><tspan x="62.9795" y="319.091">&#x422;&#x435;&#x43b;&#x435;&#x43e;&#x43f;&#x435;&#x440;&#x430;&#x442;&#x43e;&#x440;</tspan></text>
<path d="M216 290C216 285.582 219.582 282 224 282H352C356.418 282 360 285.582 360 290V338C360 342.418 356.418 346 352 346H224C219.582 346 216 342.418 216 338V290Z" fill="#F7F6F3"/>
<path d="M216 290C216 285.582 219.582 282 224 282H352C356.418 282 360 285.582 360 290V338C360 342.418 356.418 346 352 346H224C219.582 346 216 342.418 216 338V290Z" stroke="#D8D6CF" stroke-linecap="round" stroke-linejoin="round"/>
<text fill="#37352F" style="white-space: pre" xml:space="preserve" font-family="Inter" font-size="14" font-weight="500" letter-spacing="0em"><tspan x="247.627" y="319.091">&#x41f;&#x43e;&#x434;&#x434;&#x435;&#x440;&#x436;&#x43a;&#x430;</tspan></text>
<path d="M392 290C392 285.582 395.582 282 400 282H528C532.418 282 536 285.582 536 290V338C536 342.418 532.418 346 528 346H400C395.582 346 392 342.418 392 338V290Z" fill="#F7F6F3"/>
<path d="M392 290C392 285.582 395.582 282 400 282H528C532.418 282 536 285.582 536 290V338C536 342.418 532.418 346 528 346H400C395.582 346 392 342.418 392 338V290Z" stroke="#D8D6CF" stroke-linecap="round" stroke-linejoin="round"/>
<text fill="#37352F" style="white-space: pre" xml:space="preserve" font-family="Inter" font-size="14" font-weight="500" letter-spacing="0em"><tspan x="428.275" y="308.591">&#x412;&#x44b;&#x435;&#x437;&#x434;&#x43d;&#x44b;&#x435; </tspan><tspan x="434.366" y="329.591">&#x431;&#x440;&#x438;&#x433;&#x430;&#x434;&#x44b;</tspan></text>
<path d="M568 290C568 285.582 571.582 282 576 282H704C708.418 282 712 285.582 712 290V338C712 342.418 708.418 346 704 346H576C571.582 346 568 342.418 568 338V290Z" fill="#F7F6F3"/>
<path d="M568 290C568 285.582 571.582 282 576 282H704C708.418 282 712 285.582 712 290V338C712 342.418 708.418 346 704 346H576C571.582 346 568 342.418 568 338V290Z" stroke="#D8D6CF" stroke-linecap="round" stroke-linejoin="round"/>
<text fill="#37352F" style="white-space: pre" xml:space="preserve" font-family="Inter" font-size="14" font-weight="500" letter-spacing="0em"><tspan x="608.691" y="308.591">&#x421;&#x442;&#x430;&#x440;&#x448;&#x438;&#x439; </tspan><tspan x="617.12" y="329.591">&#x441;&#x43c;&#x435;&#x43d;&#x44b;</tspan></text>
<rect x="128" y="66" width="144" height="24" rx="12" fill="#F7F6F3"/>
<rect x="128" y="66" width="144" height="24" rx="12" stroke="#D8D6CF"/>
<g clip-path="url(#clip0_2817_11524)">
<path d="M140 85.9997C142.122 85.9997 144.156 85.1568 145.657 83.6566C147.157 82.1563 148 80.1215 148 77.9998C148 75.8781 147.157 73.8434 145.657 72.3431C144.156 70.8428 142.122 70 140 70C137.878 70 135.843 70.8428 134.343 72.3431C132.843 73.8434 132 75.8781 132 77.9998C132 80.1215 132.843 82.1563 134.343 83.6566C135.843 85.1568 137.878 85.9997 140 85.9997ZM139 80.9998C139 80.7346 139.105 80.4803 139.293 80.2927C139.48 80.1052 139.735 79.9998 140 79.9998C140.265 79.9998 140.519 80.1052 140.707 80.2927C140.894 80.4803 141 80.7346 141 80.9998C141 81.2651 140.894 81.5194 140.707 81.7069C140.519 81.8945 140.265 81.9998 140 81.9998C139.735 81.9998 139.48 81.8945 139.293 81.7069C139.105 81.5194 139 81.2651 139 80.9998ZM139.344 74.5465C139.372 74.3928 139.453 74.2537 139.572 74.1536C139.692 74.0535 139.844 73.9986 140 73.9986C140.156 73.9986 140.307 74.0535 140.427 74.1536C140.547 74.2537 140.628 74.3928 140.656 74.5465L140.667 74.6665V77.9998L140.656 78.1198C140.628 78.2735 140.547 78.4126 140.427 78.5127C140.307 78.6129 140.156 78.6677 140 78.6677C139.844 78.6677 139.692 78.6129 139.572 78.5127C139.453 78.4126 139.372 78.2735 139.344 78.1198L139.333 77.9998V74.6665L139.344 74.5465Z" fill="#C07D0A"/>
</g>
<text fill="#37352F" style="white-space: pre" xml:space="preserve" font-family="Inter" font-size="10" font-weight="600" letter-spacing="0.05em"><tspan x="168.361" y="81.6364">ML-&#x414;&#x415;&#x422;&#x415;&#x41a;&#x426;&#x418;&#x42f;</tspan></text>
<rect x="304" y="66" width="144" height="24" rx="12" fill="#F7F6F3"/>
<rect x="304" y="66" width="144" height="24" rx="12" stroke="#D8D6CF"/>
<g clip-path="url(#clip1_2817_11524)">
<path d="M316 85.9997C318.122 85.9997 320.156 85.1568 321.657 83.6566C323.157 82.1563 324 80.1215 324 77.9998C324 75.8781 323.157 73.8434 321.657 72.3431C320.156 70.8428 318.122 70 316 70C313.878 70 311.843 70.8428 310.343 72.3431C308.843 73.8434 308 75.8781 308 77.9998C308 80.1215 308.843 82.1563 310.343 83.6566C311.843 85.1568 313.878 85.9997 316 85.9997ZM315 80.9998C315 80.7346 315.105 80.4803 315.293 80.2927C315.48 80.1052 315.735 79.9998 316 79.9998C316.265 79.9998 316.519 80.1052 316.707 80.2927C316.894 80.4803 317 80.7346 317 80.9998C317 81.2651 316.894 81.5194 316.707 81.7069C316.519 81.8945 316.265 81.9998 316 81.9998C315.735 81.9998 315.48 81.8945 315.293 81.7069C315.105 81.5194 315 81.2651 315 80.9998ZM315.344 74.5465C315.372 74.3928 315.453 74.2537 315.572 74.1536C315.692 74.0535 315.844 73.9986 316 73.9986C316.156 73.9986 316.307 74.0535 316.427 74.1536C316.547 74.2537 316.628 74.3928 316.656 74.5465L316.667 74.6665V77.9998L316.656 78.1198C316.628 78.2735 316.547 78.4126 316.427 78.5127C316.307 78.6129 316.156 78.6677 316 78.6677C315.844 78.6677 315.692 78.6129 315.572 78.5127C315.453 78.4126 315.372 78.2735 315.344 78.1198L315.333 77.9998V74.6665L315.344 74.5465Z" fill="#C07D0A"/>
</g>
<text fill="#37352F" style="white-space: pre" xml:space="preserve" font-family="Inter" font-size="10" font-weight="600" letter-spacing="0.05em"><tspan x="347.561" y="81.6364">&#x422;&#x415;&#x41b;&#x415;&#x41c;&#x415;&#x422;&#x420;&#x418;&#x42f;</tspan></text>
<rect x="480" y="66" width="144" height="24" rx="12" fill="#F7F6F3"/>
<rect x="480" y="66" width="144" height="24" rx="12" stroke="#D8D6CF"/>
<g clip-path="url(#clip2_2817_11524)">
<path d="M492 85.9997C494.122 85.9997 496.156 85.1568 497.657 83.6566C499.157 82.1563 500 80.1215 500 77.9998C500 75.8781 499.157 73.8434 497.657 72.3431C496.156 70.8428 494.122 70 492 70C489.878 70 487.843 70.8428 486.343 72.3431C484.843 73.8434 484 75.8781 484 77.9998C484 80.1215 484.843 82.1563 486.343 83.6566C487.843 85.1568 489.878 85.9997 492 85.9997ZM491 80.9998C491 80.7346 491.105 80.4803 491.293 80.2927C491.48 80.1052 491.735 79.9998 492 79.9998C492.265 79.9998 492.519 80.1052 492.707 80.2927C492.894 80.4803 493 80.7346 493 80.9998C493 81.2651 492.894 81.5194 492.707 81.7069C492.519 81.8945 492.265 81.9998 492 81.9998C491.735 81.9998 491.48 81.8945 491.293 81.7069C491.105 81.5194 491 81.2651 491 80.9998ZM491.344 74.5465C491.372 74.3928 491.453 74.2537 491.572 74.1536C491.692 74.0535 491.844 73.9986 492 73.9986C492.156 73.9986 492.307 74.0535 492.427 74.1536C492.547 74.2537 492.628 74.3928 492.656 74.5465L492.667 74.6665V77.9998L492.656 78.1198C492.628 78.2735 492.547 78.4126 492.427 78.5127C492.307 78.6129 492.156 78.6677 492 78.6677C491.844 78.6677 491.692 78.6129 491.572 78.5127C491.453 78.4126 491.372 78.2735 491.344 78.1198L491.333 77.9998V74.6665L491.344 74.5465Z" fill="#C07D0A"/>
</g>
<text fill="#37352F" style="white-space: pre" xml:space="preserve" font-family="Inter" font-size="10" font-weight="600" letter-spacing="0.05em"><tspan x="510.637" y="81.6364">&#x41e;&#x428;&#x418;&#x411;&#x41a;&#x418; &#x421; &#x411;&#x41e;&#x420;&#x422;&#x410;</tspan></text>
<rect x="304" y="154" width="144" height="64" rx="8" fill="#F7F6F3"/>
<rect x="304" y="154" width="144" height="64" rx="8" stroke="#D8D6CF" stroke-linecap="round" stroke-linejoin="round"/>
<text fill="#37352F" style="white-space: pre" xml:space="preserve" font-family="Inter" font-size="14" font-weight="500" letter-spacing="0em"><tspan x="344.274" y="191.091">&#x418;&#x43d;&#x436;&#x435;&#x43d;&#x435;&#x440;</tspan></text>
<path d="M200 91.9687L200 104.469C200 113.305 207.163 120.469 216 120.469L344 120.469C352.837 120.469 360 127.632 360 136.469L360 148.969" stroke="#D8D6CF" stroke-linecap="round"/>
<path d="M360.54 152.911L362.886 149.137C363.158 148.698 362.915 148.136 362.457 148.021C362.345 147.993 362.228 148.02 362.12 148.059L360 148.823L357.88 148.059C357.771 148.02 357.655 147.993 357.543 148.021C357.092 148.135 356.847 148.683 357.105 149.122L359.328 152.895C359.602 153.361 360.254 153.37 360.54 152.911Z" fill="#D8D6CF"/>
<path d="M198 90C198 88.8954 198.895 88 200 88C201.105 88 202 88.8954 202 90C202 91.1046 201.105 92 200 92C198.895 92 198 91.1046 198 90Z" fill="white" stroke="#D8D6CF" stroke-width="2"/>
<path d="M552 91.9687L552 104.469C552 113.305 544.837 120.469 536 120.469L408 120.469C399.163 120.469 392 127.632 392 136.469L392 148.969" stroke="#D8D6CF" stroke-linecap="round"/>
<path d="M391.46 152.911L389.114 149.137C388.842 148.698 389.085 148.136 389.543 148.021C389.655 147.993 389.772 148.02 389.88 148.059L392 148.823L394.12 148.059C394.229 148.02 394.345 147.993 394.457 148.021C394.908 148.135 395.153 148.683 394.895 149.122L392.672 152.895C392.398 153.361 391.746 153.37 391.46 152.911Z" fill="#D8D6CF"/>
<path d="M554 90C554 88.8954 553.105 88 552 88C550.895 88 550 88.8954 550 90C550 91.1046 550.895 92 552 92C553.105 92 554 91.1046 554 90Z" fill="white" stroke="#D8D6CF" stroke-width="2"/>
<path d="M376 92.3232L376 149" stroke="#D8D6CF" stroke-linecap="round"/>
<path d="M376.54 152.911L378.886 149.137C379.158 148.698 378.915 148.136 378.457 148.021C378.345 147.993 378.228 148.02 378.12 148.059L376 148.823L373.88 148.059C373.771 148.02 373.655 147.993 373.543 148.021C373.092 148.135 372.847 148.683 373.105 149.122L375.328 152.895C375.602 153.361 376.254 153.37 376.54 152.911Z" fill="#D8D6CF"/>
<path d="M374 90C374 88.8954 374.895 88 376 88C377.105 88 378 88.8954 378 90C378 91.1046 377.105 92 376 92C374.895 92 374 91.1046 374 90Z" fill="white" stroke="#D8D6CF" stroke-width="2"/>
<path d="M368 219.969L368 240.469C368 249.305 360.837 256.469 352 256.469L304 256.469C295.163 256.469 288 263.632 288 272.469L288 276.969" stroke="#D8D6CF" stroke-linecap="round"/>
<path d="M287.46 280.911L285.114 277.137C284.842 276.698 285.085 276.136 285.543 276.021C285.655 275.993 285.772 276.02 285.88 276.059L288 276.823L290.12 276.059C290.229 276.02 290.345 275.993 290.457 276.021C290.908 276.135 291.153 276.683 290.895 277.122L288.672 280.895C288.398 281.361 287.746 281.37 287.46 280.911Z" fill="#D8D6CF"/>
<path d="M370 218C370 216.895 369.105 216 368 216C366.895 216 366 216.895 366 218C366 219.105 366.895 220 368 220C369.105 220 370 219.105 370 218Z" fill="white" stroke="#D8D6CF" stroke-width="2"/>
<path d="M352 219.969L352 224.469C352 233.305 344.837 240.469 336 240.469L129 240.469C120.163 240.469 113 247.632 113 256.469L113 276.969" stroke="#D8D6CF" stroke-linecap="round"/>
<path d="M112.46 280.911L110.114 277.137C109.842 276.698 110.085 276.136 110.543 276.021C110.655 275.993 110.772 276.02 110.88 276.059L113 276.823L115.12 276.059C115.229 276.02 115.345 275.993 115.457 276.021C115.908 276.135 116.153 276.683 115.895 277.122L113.672 280.895C113.398 281.361 112.746 281.37 112.46 280.911Z" fill="#D8D6CF"/>
<path d="M354 218C354 216.895 353.105 216 352 216C350.895 216 350 216.895 350 218C350 219.105 350.895 220 352 220C353.105 220 354 219.105 354 218Z" fill="white" stroke="#D8D6CF" stroke-width="2"/>
<path d="M384 219.969L384 240.469C384 249.305 391.163 256.469 400 256.469L448 256.469C456.837 256.469 464 263.632 464 272.469L464 276.969" stroke="#D8D6CF" stroke-linecap="round"/>
<path d="M464.54 280.911L466.886 277.137C467.158 276.698 466.915 276.136 466.457 276.021C466.345 275.993 466.228 276.02 466.12 276.059L464 276.823L461.88 276.059C461.771 276.02 461.655 275.993 461.543 276.021C461.092 276.135 460.847 276.683 461.105 277.122L463.328 280.895C463.602 281.361 464.254 281.37 464.54 280.911Z" fill="#D8D6CF"/>
<path d="M382 218C382 216.895 382.895 216 384 216C385.105 216 386 216.895 386 218C386 219.105 385.105 220 384 220C382.895 220 382 219.105 382 218Z" fill="white" stroke="#D8D6CF" stroke-width="2"/>
<path d="M400 219.969L400 224.469C400 233.305 407.163 240.469 416 240.469L624 240.469C632.837 240.469 640 247.632 640 256.469L640 276.969" stroke="#D8D6CF" stroke-linecap="round"/>
<path d="M640.54 280.911L642.886 277.137C643.158 276.698 642.915 276.136 642.457 276.021C642.345 275.993 642.228 276.02 642.12 276.059L640 276.823L637.88 276.059C637.771 276.02 637.655 275.993 637.543 276.021C637.092 276.135 636.847 276.683 637.105 277.122L639.328 280.895C639.602 281.361 640.254 281.37 640.54 280.911Z" fill="#D8D6CF"/>
<path d="M398 218C398 216.895 398.895 216 400 216C401.105 216 402 216.895 402 218C402 219.105 401.105 220 400 220C398.895 220 398 219.105 398 218Z" fill="white" stroke="#D8D6CF" stroke-width="2"/>
<defs>
<clipPath id="clip0_2817_11524">
<rect width="16" height="16" fill="white" transform="translate(132 70)"/>
</clipPath>
<clipPath id="clip1_2817_11524">
<rect width="16" height="16" fill="white" transform="translate(308 70)"/>
</clipPath>
<clipPath id="clip2_2817_11524">
<rect width="16" height="16" fill="white" transform="translate(484 70)"/>
</clipPath>
</defs>
</svg>
