<svg width="672" height="657" viewBox="0 0 672 657" fill="none" xmlns="http://www.w3.org/2000/svg">
<path d="M8 0.5H664C668.142 0.500005 671.5 3.85787 671.5 8V649C671.5 653.142 668.142 656.5 664 656.5H8C3.85787 656.5 0.5 653.142 0.5 649V8C0.500005 3.98724 3.65139 0.710536 7.61426 0.509766L8 0.5Z" fill="white"/>
<path d="M8 0.5H664C668.142 0.500005 671.5 3.85787 671.5 8V649C671.5 653.142 668.142 656.5 664 656.5H8C3.85787 656.5 0.5 653.142 0.5 649V8C0.500005 3.98724 3.65139 0.710536 7.61426 0.509766L8 0.5Z" stroke="#EAE9E5"/>
<text transform="translate(40 422) rotate(-90)" fill="#9A988F" style="white-space: pre" xml:space="preserve" font-family="Inter" font-size="16" letter-spacing="0.2em"><tspan x="0.212502" y="16.3182">&#x423;&#x414;&#x41e;&#x412;&#x41b;&#x415;&#x422;&#x412;&#x41e;&#x420;&#x401;&#x41d;&#x41d;&#x41e;&#x421;&#x422;&#x42c;</tspan></text>
<text fill="#9A988F" style="white-space: pre" xml:space="preserve" font-family="Inter" font-size="12" letter-spacing="0em"><tspan x="75.4609" y="52.3636">10</tspan></text>
<text fill="#9A988F" style="white-space: pre" xml:space="preserve" font-family="Inter" font-size="12" letter-spacing="0em"><tspan x="78.2559" y="102.364">9</tspan></text>
<text fill="#9A988F" style="white-space: pre" xml:space="preserve" font-family="Inter" font-size="12" letter-spacing="0em"><tspan x="78.3027" y="153.364">8</tspan></text>
<text fill="#9A988F" style="white-space: pre" xml:space="preserve" font-family="Inter" font-size="12" letter-spacing="0em"><tspan x="78.0723" y="204.364">7</tspan></text>
<text fill="#9A988F" style="white-space: pre" xml:space="preserve" font-family="Inter" font-size="12" letter-spacing="0em"><tspan x="78.2559" y="255.364">6</tspan></text>
<text fill="#9A988F" style="white-space: pre" xml:space="preserve" font-family="Inter" font-size="12" letter-spacing="0em"><tspan x="78.3496" y="306.364">5</tspan></text>
<text fill="#9A988F" style="white-space: pre" xml:space="preserve" font-family="Inter" font-size="12" letter-spacing="0em"><tspan x="78.1504" y="357.364">4</tspan></text>
<text fill="#9A988F" style="white-space: pre" xml:space="preserve" font-family="Inter" font-size="12" letter-spacing="0em"><tspan x="78.1797" y="408.364">3</tspan></text>
<text fill="#9A988F" style="white-space: pre" xml:space="preserve" font-family="Inter" font-size="12" letter-spacing="0em"><tspan x="78.3672" y="459.364">2</tspan></text>
<text fill="#9A988F" style="white-space: pre" xml:space="preserve" font-family="Inter" font-size="12" letter-spacing="0em"><tspan x="79.2109" y="510.364">1</tspan></text>
<mask id="path-13-inside-1_2814_11330" fill="white">
<path d="M99 48H149.8V98.8H99V48Z"/>
</mask>
<path d="M99 48V47H98V48H99ZM99 48V49H149.8V48V47H99V48ZM99 98.8H100V48H99H98V98.8H99Z" fill="#EAE9E5" mask="url(#path-13-inside-1_2814_11330)"/>
<mask id="path-15-inside-2_2814_11330" fill="white">
<path d="M149.801 48H200.601V98.8H149.801V48Z"/>
</mask>
<path d="M149.801 48V47H148.801V48H149.801ZM149.801 48V49H200.601V48V47H149.801V48ZM149.801 98.8H150.801V48H149.801H148.801V98.8H149.801Z" fill="#EAE9E5" mask="url(#path-15-inside-2_2814_11330)"/>
<mask id="path-17-inside-3_2814_11330" fill="white">
<path d="M200.6 48H251.4V98.8H200.6V48Z"/>
</mask>
<path d="M200.6 48V47H199.6V48H200.6ZM200.6 48V49H251.4V48V47H200.6V48ZM200.6 98.8H201.6V48H200.6H199.6V98.8H200.6Z" fill="#EAE9E5" mask="url(#path-17-inside-3_2814_11330)"/>
<mask id="path-19-inside-4_2814_11330" fill="white">
<path d="M251.4 48H302.2V98.8H251.4V48Z"/>
</mask>
<path d="M251.4 48V47H250.4V48H251.4ZM251.4 48V49H302.2V48V47H251.4V48ZM251.4 98.8H252.4V48H251.4H250.4V98.8H251.4Z" fill="#EAE9E5" mask="url(#path-19-inside-4_2814_11330)"/>
<mask id="path-21-inside-5_2814_11330" fill="white">
<path d="M302.199 48H352.999V98.8H302.199V48Z"/>
</mask>
<path d="M302.199 48V47H301.199V48H302.199ZM302.199 48V49H352.999V48V47H302.199V48ZM302.199 98.8H303.199V48H302.199H301.199V98.8H302.199Z" fill="#EAE9E5" mask="url(#path-21-inside-5_2814_11330)"/>
<mask id="path-23-inside-6_2814_11330" fill="white">
<path d="M353 48H403.8V98.8H353V48Z"/>
</mask>
<path d="M353 48V47H352V48H353ZM353 48V49H403.8V48V47H353V48ZM353 98.8H354V48H353H352V98.8H353Z" fill="#EAE9E5" mask="url(#path-23-inside-6_2814_11330)"/>
<mask id="path-25-inside-7_2814_11330" fill="white">
<path d="M403.801 48H454.601V98.8H403.801V48Z"/>
</mask>
<path d="M403.801 48V47H402.801V48H403.801ZM403.801 48V49H454.601V48V47H403.801V48ZM403.801 98.8H404.801V48H403.801H402.801V98.8H403.801Z" fill="#EAE9E5" mask="url(#path-25-inside-7_2814_11330)"/>
<mask id="path-27-inside-8_2814_11330" fill="white">
<path d="M454.6 48H505.4V98.8H454.6V48Z"/>
</mask>
<path d="M454.6 48V47H453.6V48H454.6ZM454.6 48V49H505.4V48V47H454.6V48ZM454.6 98.8H455.6V48H454.6H453.6V98.8H454.6Z" fill="#EAE9E5" mask="url(#path-27-inside-8_2814_11330)"/>
<mask id="path-29-inside-9_2814_11330" fill="white">
<path d="M505.4 48H556.2V98.8H505.4V48Z"/>
</mask>
<path d="M505.4 48V47H504.4V48H505.4ZM505.4 48V49H556.2V48V47H505.4V48ZM505.4 98.8H506.4V48H505.4H504.4V98.8H505.4Z" fill="#EAE9E5" mask="url(#path-29-inside-9_2814_11330)"/>
<mask id="path-31-inside-10_2814_11330" fill="white">
<path d="M556.199 48H606.999V98.8H556.199V48Z"/>
</mask>
<path d="M556.199 48V47H555.199V48H556.199ZM606.999 48H607.999V47H606.999V48ZM556.199 48V49H606.999V48V47H556.199V48ZM606.999 48H605.999V98.8H606.999H607.999V48H606.999ZM556.199 98.8H557.199V48H556.199H555.199V98.8H556.199Z" fill="#EAE9E5" mask="url(#path-31-inside-10_2814_11330)"/>
<mask id="path-33-inside-11_2814_11330" fill="white">
<path d="M99 98.7998H149.8V149.6H99V98.7998Z"/>
</mask>
<path d="M99 98.7998V97.7998H98V98.7998H99ZM99 98.7998V99.7998H149.8V98.7998V97.7998H99V98.7998ZM99 149.6H100V98.7998H99H98V149.6H99Z" fill="#EAE9E5" mask="url(#path-33-inside-11_2814_11330)"/>
<mask id="path-35-inside-12_2814_11330" fill="white">
<path d="M149.801 98.7998H200.601V149.6H149.801V98.7998Z"/>
</mask>
<path d="M149.801 98.7998V97.7998H148.801V98.7998H149.801ZM149.801 98.7998V99.7998H200.601V98.7998V97.7998H149.801V98.7998ZM149.801 149.6H150.801V98.7998H149.801H148.801V149.6H149.801Z" fill="#EAE9E5" mask="url(#path-35-inside-12_2814_11330)"/>
<mask id="path-37-inside-13_2814_11330" fill="white">
<path d="M200.6 98.7998H251.4V149.6H200.6V98.7998Z"/>
</mask>
<path d="M200.6 98.7998V97.7998H199.6V98.7998H200.6ZM200.6 98.7998V99.7998H251.4V98.7998V97.7998H200.6V98.7998ZM200.6 149.6H201.6V98.7998H200.6H199.6V149.6H200.6Z" fill="#EAE9E5" mask="url(#path-37-inside-13_2814_11330)"/>
<mask id="path-39-inside-14_2814_11330" fill="white">
<path d="M251.4 98.7998H302.2V149.6H251.4V98.7998Z"/>
</mask>
<path d="M251.4 98.7998V97.7998H250.4V98.7998H251.4ZM251.4 98.7998V99.7998H302.2V98.7998V97.7998H251.4V98.7998ZM251.4 149.6H252.4V98.7998H251.4H250.4V149.6H251.4Z" fill="#EAE9E5" mask="url(#path-39-inside-14_2814_11330)"/>
<mask id="path-41-inside-15_2814_11330" fill="white">
<path d="M302.199 98.7998H352.999V149.6H302.199V98.7998Z"/>
</mask>
<path d="M302.199 98.7998V97.7998H301.199V98.7998H302.199ZM302.199 98.7998V99.7998H352.999V98.7998V97.7998H302.199V98.7998ZM302.199 149.6H303.199V98.7998H302.199H301.199V149.6H302.199Z" fill="#EAE9E5" mask="url(#path-41-inside-15_2814_11330)"/>
<mask id="path-43-inside-16_2814_11330" fill="white">
<path d="M353 98.7998H403.8V149.6H353V98.7998Z"/>
</mask>
<path d="M353 98.7998V97.7998H352V98.7998H353ZM353 98.7998V99.7998H403.8V98.7998V97.7998H353V98.7998ZM353 149.6H354V98.7998H353H352V149.6H353Z" fill="#EAE9E5" mask="url(#path-43-inside-16_2814_11330)"/>
<mask id="path-45-inside-17_2814_11330" fill="white">
<path d="M403.801 98.7998H454.601V149.6H403.801V98.7998Z"/>
</mask>
<path d="M403.801 98.7998V97.7998H402.801V98.7998H403.801ZM403.801 98.7998V99.7998H454.601V98.7998V97.7998H403.801V98.7998ZM403.801 149.6H404.801V98.7998H403.801H402.801V149.6H403.801Z" fill="#EAE9E5" mask="url(#path-45-inside-17_2814_11330)"/>
<mask id="path-47-inside-18_2814_11330" fill="white">
<path d="M454.6 98.7998H505.4V149.6H454.6V98.7998Z"/>
</mask>
<path d="M454.6 98.7998V97.7998H453.6V98.7998H454.6ZM454.6 98.7998V99.7998H505.4V98.7998V97.7998H454.6V98.7998ZM454.6 149.6H455.6V98.7998H454.6H453.6V149.6H454.6Z" fill="#EAE9E5" mask="url(#path-47-inside-18_2814_11330)"/>
<mask id="path-49-inside-19_2814_11330" fill="white">
<path d="M505.4 98.7998H556.2V149.6H505.4V98.7998Z"/>
</mask>
<path d="M505.4 98.7998V97.7998H504.4V98.7998H505.4ZM505.4 98.7998V99.7998H556.2V98.7998V97.7998H505.4V98.7998ZM505.4 149.6H506.4V98.7998H505.4H504.4V149.6H505.4Z" fill="#EAE9E5" mask="url(#path-49-inside-19_2814_11330)"/>
<mask id="path-51-inside-20_2814_11330" fill="white">
<path d="M556.199 98.7998H606.999V149.6H556.199V98.7998Z"/>
</mask>
<path d="M556.199 98.7998V97.7998H555.199V98.7998H556.199ZM606.999 98.7998H607.999V97.7998H606.999V98.7998ZM556.199 98.7998V99.7998H606.999V98.7998V97.7998H556.199V98.7998ZM606.999 98.7998H605.999V149.6H606.999H607.999V98.7998H606.999ZM556.199 149.6H557.199V98.7998H556.199H555.199V149.6H556.199Z" fill="#EAE9E5" mask="url(#path-51-inside-20_2814_11330)"/>
<mask id="path-53-inside-21_2814_11330" fill="white">
<path d="M99 149.6H149.8V200.4H99V149.6Z"/>
</mask>
<path d="M99 149.6V148.6H98V149.6H99ZM99 149.6V150.6H149.8V149.6V148.6H99V149.6ZM99 200.4H100V149.6H99H98V200.4H99Z" fill="#EAE9E5" mask="url(#path-53-inside-21_2814_11330)"/>
<mask id="path-55-inside-22_2814_11330" fill="white">
<path d="M149.801 149.6H200.601V200.4H149.801V149.6Z"/>
</mask>
<path d="M149.801 149.6V148.6H148.801V149.6H149.801ZM149.801 149.6V150.6H200.601V149.6V148.6H149.801V149.6ZM149.801 200.4H150.801V149.6H149.801H148.801V200.4H149.801Z" fill="#EAE9E5" mask="url(#path-55-inside-22_2814_11330)"/>
<mask id="path-57-inside-23_2814_11330" fill="white">
<path d="M200.6 149.6H251.4V200.4H200.6V149.6Z"/>
</mask>
<path d="M200.6 149.6V148.6H199.6V149.6H200.6ZM200.6 149.6V150.6H251.4V149.6V148.6H200.6V149.6ZM200.6 200.4H201.6V149.6H200.6H199.6V200.4H200.6Z" fill="#EAE9E5" mask="url(#path-57-inside-23_2814_11330)"/>
<mask id="path-59-inside-24_2814_11330" fill="white">
<path d="M251.4 149.6H302.2V200.4H251.4V149.6Z"/>
</mask>
<path d="M251.4 149.6V148.6H250.4V149.6H251.4ZM251.4 149.6V150.6H302.2V149.6V148.6H251.4V149.6ZM251.4 200.4H252.4V149.6H251.4H250.4V200.4H251.4Z" fill="#EAE9E5" mask="url(#path-59-inside-24_2814_11330)"/>
<mask id="path-61-inside-25_2814_11330" fill="white">
<path d="M302.199 149.6H352.999V200.4H302.199V149.6Z"/>
</mask>
<path d="M302.199 149.6V148.6H301.199V149.6H302.199ZM302.199 149.6V150.6H352.999V149.6V148.6H302.199V149.6ZM302.199 200.4H303.199V149.6H302.199H301.199V200.4H302.199Z" fill="#EAE9E5" mask="url(#path-61-inside-25_2814_11330)"/>
<mask id="path-63-inside-26_2814_11330" fill="white">
<path d="M353 149.6H403.8V200.4H353V149.6Z"/>
</mask>
<path d="M353 149.6V148.6H352V149.6H353ZM353 149.6V150.6H403.8V149.6V148.6H353V149.6ZM353 200.4H354V149.6H353H352V200.4H353Z" fill="#EAE9E5" mask="url(#path-63-inside-26_2814_11330)"/>
<mask id="path-65-inside-27_2814_11330" fill="white">
<path d="M403.801 149.6H454.601V200.4H403.801V149.6Z"/>
</mask>
<path d="M403.801 149.6V148.6H402.801V149.6H403.801ZM403.801 149.6V150.6H454.601V149.6V148.6H403.801V149.6ZM403.801 200.4H404.801V149.6H403.801H402.801V200.4H403.801Z" fill="#EAE9E5" mask="url(#path-65-inside-27_2814_11330)"/>
<mask id="path-67-inside-28_2814_11330" fill="white">
<path d="M454.6 149.6H505.4V200.4H454.6V149.6Z"/>
</mask>
<path d="M454.6 149.6V148.6H453.6V149.6H454.6ZM454.6 149.6V150.6H505.4V149.6V148.6H454.6V149.6ZM454.6 200.4H455.6V149.6H454.6H453.6V200.4H454.6Z" fill="#EAE9E5" mask="url(#path-67-inside-28_2814_11330)"/>
<mask id="path-69-inside-29_2814_11330" fill="white">
<path d="M505.4 149.6H556.2V200.4H505.4V149.6Z"/>
</mask>
<path d="M505.4 149.6V148.6H504.4V149.6H505.4ZM505.4 149.6V150.6H556.2V149.6V148.6H505.4V149.6ZM505.4 200.4H506.4V149.6H505.4H504.4V200.4H505.4Z" fill="#EAE9E5" mask="url(#path-69-inside-29_2814_11330)"/>
<mask id="path-71-inside-30_2814_11330" fill="white">
<path d="M556.199 149.6H606.999V200.4H556.199V149.6Z"/>
</mask>
<path d="M556.199 149.6V148.6H555.199V149.6H556.199ZM606.999 149.6H607.999V148.6H606.999V149.6ZM556.199 149.6V150.6H606.999V149.6V148.6H556.199V149.6ZM606.999 149.6H605.999V200.4H606.999H607.999V149.6H606.999ZM556.199 200.4H557.199V149.6H556.199H555.199V200.4H556.199Z" fill="#EAE9E5" mask="url(#path-71-inside-30_2814_11330)"/>
<mask id="path-73-inside-31_2814_11330" fill="white">
<path d="M99 200.4H149.8V251.2H99V200.4Z"/>
</mask>
<path d="M99 200.4V199.4H98V200.4H99ZM99 200.4V201.4H149.8V200.4V199.4H99V200.4ZM99 251.2H100V200.4H99H98V251.2H99Z" fill="#EAE9E5" mask="url(#path-73-inside-31_2814_11330)"/>
<mask id="path-75-inside-32_2814_11330" fill="white">
<path d="M149.801 200.4H200.601V251.2H149.801V200.4Z"/>
</mask>
<path d="M149.801 200.4V199.4H148.801V200.4H149.801ZM149.801 200.4V201.4H200.601V200.4V199.4H149.801V200.4ZM149.801 251.2H150.801V200.4H149.801H148.801V251.2H149.801Z" fill="#EAE9E5" mask="url(#path-75-inside-32_2814_11330)"/>
<mask id="path-77-inside-33_2814_11330" fill="white">
<path d="M200.6 200.4H251.4V251.2H200.6V200.4Z"/>
</mask>
<path d="M200.6 200.4V199.4H199.6V200.4H200.6ZM200.6 200.4V201.4H251.4V200.4V199.4H200.6V200.4ZM200.6 251.2H201.6V200.4H200.6H199.6V251.2H200.6Z" fill="#EAE9E5" mask="url(#path-77-inside-33_2814_11330)"/>
<mask id="path-79-inside-34_2814_11330" fill="white">
<path d="M251.4 200.4H302.2V251.2H251.4V200.4Z"/>
</mask>
<path d="M251.4 200.4V199.4H250.4V200.4H251.4ZM251.4 200.4V201.4H302.2V200.4V199.4H251.4V200.4ZM251.4 251.2H252.4V200.4H251.4H250.4V251.2H251.4Z" fill="#EAE9E5" mask="url(#path-79-inside-34_2814_11330)"/>
<mask id="path-81-inside-35_2814_11330" fill="white">
<path d="M302.199 200.4H352.999V251.2H302.199V200.4Z"/>
</mask>
<path d="M302.199 200.4V199.4H301.199V200.4H302.199ZM302.199 200.4V201.4H352.999V200.4V199.4H302.199V200.4ZM302.199 251.2H303.199V200.4H302.199H301.199V251.2H302.199Z" fill="#EAE9E5" mask="url(#path-81-inside-35_2814_11330)"/>
<mask id="path-83-inside-36_2814_11330" fill="white">
<path d="M353 200.4H403.8V251.2H353V200.4Z"/>
</mask>
<path d="M353 200.4V199.4H352V200.4H353ZM353 200.4V201.4H403.8V200.4V199.4H353V200.4ZM353 251.2H354V200.4H353H352V251.2H353Z" fill="#EAE9E5" mask="url(#path-83-inside-36_2814_11330)"/>
<mask id="path-85-inside-37_2814_11330" fill="white">
<path d="M403.801 200.4H454.601V251.2H403.801V200.4Z"/>
</mask>
<path d="M403.801 200.4V199.4H402.801V200.4H403.801ZM403.801 200.4V201.4H454.601V200.4V199.4H403.801V200.4ZM403.801 251.2H404.801V200.4H403.801H402.801V251.2H403.801Z" fill="#EAE9E5" mask="url(#path-85-inside-37_2814_11330)"/>
<mask id="path-87-inside-38_2814_11330" fill="white">
<path d="M454.6 200.4H505.4V251.2H454.6V200.4Z"/>
</mask>
<path d="M454.6 200.4V199.4H453.6V200.4H454.6ZM454.6 200.4V201.4H505.4V200.4V199.4H454.6V200.4ZM454.6 251.2H455.6V200.4H454.6H453.6V251.2H454.6Z" fill="#EAE9E5" mask="url(#path-87-inside-38_2814_11330)"/>
<mask id="path-89-inside-39_2814_11330" fill="white">
<path d="M505.4 200.4H556.2V251.2H505.4V200.4Z"/>
</mask>
<path d="M505.4 200.4V199.4H504.4V200.4H505.4ZM505.4 200.4V201.4H556.2V200.4V199.4H505.4V200.4ZM505.4 251.2H506.4V200.4H505.4H504.4V251.2H505.4Z" fill="#EAE9E5" mask="url(#path-89-inside-39_2814_11330)"/>
<mask id="path-91-inside-40_2814_11330" fill="white">
<path d="M556.199 200.4H606.999V251.2H556.199V200.4Z"/>
</mask>
<path d="M556.199 200.4V199.4H555.199V200.4H556.199ZM606.999 200.4H607.999V199.4H606.999V200.4ZM556.199 200.4V201.4H606.999V200.4V199.4H556.199V200.4ZM606.999 200.4H605.999V251.2H606.999H607.999V200.4H606.999ZM556.199 251.2H557.199V200.4H556.199H555.199V251.2H556.199Z" fill="#EAE9E5" mask="url(#path-91-inside-40_2814_11330)"/>
<mask id="path-93-inside-41_2814_11330" fill="white">
<path d="M99 251.2H149.8V302H99V251.2Z"/>
</mask>
<path d="M99 251.2V250.2H98V251.2H99ZM99 251.2V252.2H149.8V251.2V250.2H99V251.2ZM99 302H100V251.2H99H98V302H99Z" fill="#EAE9E5" mask="url(#path-93-inside-41_2814_11330)"/>
<mask id="path-95-inside-42_2814_11330" fill="white">
<path d="M149.801 251.2H200.601V302H149.801V251.2Z"/>
</mask>
<path d="M149.801 251.2V250.2H148.801V251.2H149.801ZM149.801 251.2V252.2H200.601V251.2V250.2H149.801V251.2ZM149.801 302H150.801V251.2H149.801H148.801V302H149.801Z" fill="#EAE9E5" mask="url(#path-95-inside-42_2814_11330)"/>
<mask id="path-97-inside-43_2814_11330" fill="white">
<path d="M200.6 251.2H251.4V302H200.6V251.2Z"/>
</mask>
<path d="M200.6 251.2V250.2H199.6V251.2H200.6ZM200.6 251.2V252.2H251.4V251.2V250.2H200.6V251.2ZM200.6 302H201.6V251.2H200.6H199.6V302H200.6Z" fill="#EAE9E5" mask="url(#path-97-inside-43_2814_11330)"/>
<mask id="path-99-inside-44_2814_11330" fill="white">
<path d="M251.4 251.2H302.2V302H251.4V251.2Z"/>
</mask>
<path d="M251.4 251.2V250.2H250.4V251.2H251.4ZM251.4 251.2V252.2H302.2V251.2V250.2H251.4V251.2ZM251.4 302H252.4V251.2H251.4H250.4V302H251.4Z" fill="#EAE9E5" mask="url(#path-99-inside-44_2814_11330)"/>
<mask id="path-101-inside-45_2814_11330" fill="white">
<path d="M302.199 251.2H352.999V302H302.199V251.2Z"/>
</mask>
<path d="M302.199 251.2V250.2H301.199V251.2H302.199ZM302.199 251.2V252.2H352.999V251.2V250.2H302.199V251.2ZM302.199 302H303.199V251.2H302.199H301.199V302H302.199Z" fill="#EAE9E5" mask="url(#path-101-inside-45_2814_11330)"/>
<mask id="path-103-inside-46_2814_11330" fill="white">
<path d="M353 251.2H403.8V302H353V251.2Z"/>
</mask>
<path d="M353 251.2V250.2H352V251.2H353ZM353 251.2V252.2H403.8V251.2V250.2H353V251.2ZM353 302H354V251.2H353H352V302H353Z" fill="#EAE9E5" mask="url(#path-103-inside-46_2814_11330)"/>
<mask id="path-105-inside-47_2814_11330" fill="white">
<path d="M403.801 251.2H454.601V302H403.801V251.2Z"/>
</mask>
<path d="M403.801 251.2V250.2H402.801V251.2H403.801ZM403.801 251.2V252.2H454.601V251.2V250.2H403.801V251.2ZM403.801 302H404.801V251.2H403.801H402.801V302H403.801Z" fill="#EAE9E5" mask="url(#path-105-inside-47_2814_11330)"/>
<mask id="path-107-inside-48_2814_11330" fill="white">
<path d="M454.6 251.2H505.4V302H454.6V251.2Z"/>
</mask>
<path d="M454.6 251.2V250.2H453.6V251.2H454.6ZM454.6 251.2V252.2H505.4V251.2V250.2H454.6V251.2ZM454.6 302H455.6V251.2H454.6H453.6V302H454.6Z" fill="#EAE9E5" mask="url(#path-107-inside-48_2814_11330)"/>
<mask id="path-109-inside-49_2814_11330" fill="white">
<path d="M505.4 251.2H556.2V302H505.4V251.2Z"/>
</mask>
<path d="M505.4 251.2V250.2H504.4V251.2H505.4ZM505.4 251.2V252.2H556.2V251.2V250.2H505.4V251.2ZM505.4 302H506.4V251.2H505.4H504.4V302H505.4Z" fill="#EAE9E5" mask="url(#path-109-inside-49_2814_11330)"/>
<mask id="path-111-inside-50_2814_11330" fill="white">
<path d="M556.199 251.2H606.999V302H556.199V251.2Z"/>
</mask>
<path d="M556.199 251.2V250.2H555.199V251.2H556.199ZM606.999 251.2H607.999V250.2H606.999V251.2ZM556.199 251.2V252.2H606.999V251.2V250.2H556.199V251.2ZM606.999 251.2H605.999V302H606.999H607.999V251.2H606.999ZM556.199 302H557.199V251.2H556.199H555.199V302H556.199Z" fill="#EAE9E5" mask="url(#path-111-inside-50_2814_11330)"/>
<mask id="path-113-inside-51_2814_11330" fill="white">
<path d="M99 302H149.8V352.8H99V302Z"/>
</mask>
<path d="M99 302V301H98V302H99ZM99 302V303H149.8V302V301H99V302ZM99 352.8H100V302H99H98V352.8H99Z" fill="#EAE9E5" mask="url(#path-113-inside-51_2814_11330)"/>
<mask id="path-115-inside-52_2814_11330" fill="white">
<path d="M149.801 302H200.601V352.8H149.801V302Z"/>
</mask>
<path d="M149.801 302V301H148.801V302H149.801ZM149.801 302V303H200.601V302V301H149.801V302ZM149.801 352.8H150.801V302H149.801H148.801V352.8H149.801Z" fill="#EAE9E5" mask="url(#path-115-inside-52_2814_11330)"/>
<mask id="path-117-inside-53_2814_11330" fill="white">
<path d="M200.6 302H251.4V352.8H200.6V302Z"/>
</mask>
<path d="M200.6 302V301H199.6V302H200.6ZM200.6 302V303H251.4V302V301H200.6V302ZM200.6 352.8H201.6V302H200.6H199.6V352.8H200.6Z" fill="#EAE9E5" mask="url(#path-117-inside-53_2814_11330)"/>
<mask id="path-119-inside-54_2814_11330" fill="white">
<path d="M251.4 302H302.2V352.8H251.4V302Z"/>
</mask>
<path d="M251.4 302V301H250.4V302H251.4ZM251.4 302V303H302.2V302V301H251.4V302ZM251.4 352.8H252.4V302H251.4H250.4V352.8H251.4Z" fill="#EAE9E5" mask="url(#path-119-inside-54_2814_11330)"/>
<mask id="path-121-inside-55_2814_11330" fill="white">
<path d="M302.199 302H352.999V352.8H302.199V302Z"/>
</mask>
<path d="M302.199 302V301H301.199V302H302.199ZM302.199 302V303H352.999V302V301H302.199V302ZM302.199 352.8H303.199V302H302.199H301.199V352.8H302.199Z" fill="#EAE9E5" mask="url(#path-121-inside-55_2814_11330)"/>
<mask id="path-123-inside-56_2814_11330" fill="white">
<path d="M353 302H403.8V352.8H353V302Z"/>
</mask>
<path d="M353 302V301H352V302H353ZM353 302V303H403.8V302V301H353V302ZM353 352.8H354V302H353H352V352.8H353Z" fill="#EAE9E5" mask="url(#path-123-inside-56_2814_11330)"/>
<mask id="path-125-inside-57_2814_11330" fill="white">
<path d="M403.801 302H454.601V352.8H403.801V302Z"/>
</mask>
<path d="M403.801 302V301H402.801V302H403.801ZM403.801 302V303H454.601V302V301H403.801V302ZM403.801 352.8H404.801V302H403.801H402.801V352.8H403.801Z" fill="#EAE9E5" mask="url(#path-125-inside-57_2814_11330)"/>
<mask id="path-127-inside-58_2814_11330" fill="white">
<path d="M454.6 302H505.4V352.8H454.6V302Z"/>
</mask>
<path d="M454.6 302V301H453.6V302H454.6ZM454.6 302V303H505.4V302V301H454.6V302ZM454.6 352.8H455.6V302H454.6H453.6V352.8H454.6Z" fill="#EAE9E5" mask="url(#path-127-inside-58_2814_11330)"/>
<mask id="path-129-inside-59_2814_11330" fill="white">
<path d="M505.4 302H556.2V352.8H505.4V302Z"/>
</mask>
<path d="M505.4 302V301H504.4V302H505.4ZM505.4 302V303H556.2V302V301H505.4V302ZM505.4 352.8H506.4V302H505.4H504.4V352.8H505.4Z" fill="#EAE9E5" mask="url(#path-129-inside-59_2814_11330)"/>
<mask id="path-131-inside-60_2814_11330" fill="white">
<path d="M556.199 302H606.999V352.8H556.199V302Z"/>
</mask>
<path d="M556.199 302V301H555.199V302H556.199ZM606.999 302H607.999V301H606.999V302ZM556.199 302V303H606.999V302V301H556.199V302ZM606.999 302H605.999V352.8H606.999H607.999V302H606.999ZM556.199 352.8H557.199V302H556.199H555.199V352.8H556.199Z" fill="#EAE9E5" mask="url(#path-131-inside-60_2814_11330)"/>
<mask id="path-133-inside-61_2814_11330" fill="white">
<path d="M99 352.8H149.8V403.6H99V352.8Z"/>
</mask>
<path d="M99 352.8V351.8H98V352.8H99ZM99 352.8V353.8H149.8V352.8V351.8H99V352.8ZM99 403.6H100V352.8H99H98V403.6H99Z" fill="#EAE9E5" mask="url(#path-133-inside-61_2814_11330)"/>
<mask id="path-135-inside-62_2814_11330" fill="white">
<path d="M149.801 352.8H200.601V403.6H149.801V352.8Z"/>
</mask>
<path d="M149.801 352.8V351.8H148.801V352.8H149.801ZM149.801 352.8V353.8H200.601V352.8V351.8H149.801V352.8ZM149.801 403.6H150.801V352.8H149.801H148.801V403.6H149.801Z" fill="#EAE9E5" mask="url(#path-135-inside-62_2814_11330)"/>
<mask id="path-137-inside-63_2814_11330" fill="white">
<path d="M200.6 352.8H251.4V403.6H200.6V352.8Z"/>
</mask>
<path d="M200.6 352.8V351.8H199.6V352.8H200.6ZM200.6 352.8V353.8H251.4V352.8V351.8H200.6V352.8ZM200.6 403.6H201.6V352.8H200.6H199.6V403.6H200.6Z" fill="#EAE9E5" mask="url(#path-137-inside-63_2814_11330)"/>
<mask id="path-139-inside-64_2814_11330" fill="white">
<path d="M251.4 352.8H302.2V403.6H251.4V352.8Z"/>
</mask>
<path d="M251.4 352.8V351.8H250.4V352.8H251.4ZM251.4 352.8V353.8H302.2V352.8V351.8H251.4V352.8ZM251.4 403.6H252.4V352.8H251.4H250.4V403.6H251.4Z" fill="#EAE9E5" mask="url(#path-139-inside-64_2814_11330)"/>
<mask id="path-141-inside-65_2814_11330" fill="white">
<path d="M302.199 352.8H352.999V403.6H302.199V352.8Z"/>
</mask>
<path d="M302.199 352.8V351.8H301.199V352.8H302.199ZM302.199 352.8V353.8H352.999V352.8V351.8H302.199V352.8ZM302.199 403.6H303.199V352.8H302.199H301.199V403.6H302.199Z" fill="#EAE9E5" mask="url(#path-141-inside-65_2814_11330)"/>
<mask id="path-143-inside-66_2814_11330" fill="white">
<path d="M353 352.8H403.8V403.6H353V352.8Z"/>
</mask>
<path d="M353 352.8V351.8H352V352.8H353ZM353 352.8V353.8H403.8V352.8V351.8H353V352.8ZM353 403.6H354V352.8H353H352V403.6H353Z" fill="#EAE9E5" mask="url(#path-143-inside-66_2814_11330)"/>
<mask id="path-145-inside-67_2814_11330" fill="white">
<path d="M403.801 352.8H454.601V403.6H403.801V352.8Z"/>
</mask>
<path d="M403.801 352.8V351.8H402.801V352.8H403.801ZM403.801 352.8V353.8H454.601V352.8V351.8H403.801V352.8ZM403.801 403.6H404.801V352.8H403.801H402.801V403.6H403.801Z" fill="#EAE9E5" mask="url(#path-145-inside-67_2814_11330)"/>
<mask id="path-147-inside-68_2814_11330" fill="white">
<path d="M454.6 352.8H505.4V403.6H454.6V352.8Z"/>
</mask>
<path d="M454.6 352.8V351.8H453.6V352.8H454.6ZM454.6 352.8V353.8H505.4V352.8V351.8H454.6V352.8ZM454.6 403.6H455.6V352.8H454.6H453.6V403.6H454.6Z" fill="#EAE9E5" mask="url(#path-147-inside-68_2814_11330)"/>
<mask id="path-149-inside-69_2814_11330" fill="white">
<path d="M505.4 352.8H556.2V403.6H505.4V352.8Z"/>
</mask>
<path d="M505.4 352.8V351.8H504.4V352.8H505.4ZM505.4 352.8V353.8H556.2V352.8V351.8H505.4V352.8ZM505.4 403.6H506.4V352.8H505.4H504.4V403.6H505.4Z" fill="#EAE9E5" mask="url(#path-149-inside-69_2814_11330)"/>
<mask id="path-151-inside-70_2814_11330" fill="white">
<path d="M556.199 352.8H606.999V403.6H556.199V352.8Z"/>
</mask>
<path d="M556.199 352.8V351.8H555.199V352.8H556.199ZM606.999 352.8H607.999V351.8H606.999V352.8ZM556.199 352.8V353.8H606.999V352.8V351.8H556.199V352.8ZM606.999 352.8H605.999V403.6H606.999H607.999V352.8H606.999ZM556.199 403.6H557.199V352.8H556.199H555.199V403.6H556.199Z" fill="#EAE9E5" mask="url(#path-151-inside-70_2814_11330)"/>
<mask id="path-153-inside-71_2814_11330" fill="white">
<path d="M99 403.6H149.8V454.4H99V403.6Z"/>
</mask>
<path d="M99 403.6V402.6H98V403.6H99ZM99 403.6V404.6H149.8V403.6V402.6H99V403.6ZM99 454.4H100V403.6H99H98V454.4H99Z" fill="#EAE9E5" mask="url(#path-153-inside-71_2814_11330)"/>
<mask id="path-155-inside-72_2814_11330" fill="white">
<path d="M149.801 403.6H200.601V454.4H149.801V403.6Z"/>
</mask>
<path d="M149.801 403.6V402.6H148.801V403.6H149.801ZM149.801 403.6V404.6H200.601V403.6V402.6H149.801V403.6ZM149.801 454.4H150.801V403.6H149.801H148.801V454.4H149.801Z" fill="#EAE9E5" mask="url(#path-155-inside-72_2814_11330)"/>
<mask id="path-157-inside-73_2814_11330" fill="white">
<path d="M200.6 403.6H251.4V454.4H200.6V403.6Z"/>
</mask>
<path d="M200.6 403.6V402.6H199.6V403.6H200.6ZM200.6 403.6V404.6H251.4V403.6V402.6H200.6V403.6ZM200.6 454.4H201.6V403.6H200.6H199.6V454.4H200.6Z" fill="#EAE9E5" mask="url(#path-157-inside-73_2814_11330)"/>
<mask id="path-159-inside-74_2814_11330" fill="white">
<path d="M251.4 403.6H302.2V454.4H251.4V403.6Z"/>
</mask>
<path d="M251.4 403.6V402.6H250.4V403.6H251.4ZM251.4 403.6V404.6H302.2V403.6V402.6H251.4V403.6ZM251.4 454.4H252.4V403.6H251.4H250.4V454.4H251.4Z" fill="#EAE9E5" mask="url(#path-159-inside-74_2814_11330)"/>
<mask id="path-161-inside-75_2814_11330" fill="white">
<path d="M302.199 403.6H352.999V454.4H302.199V403.6Z"/>
</mask>
<path d="M302.199 403.6V402.6H301.199V403.6H302.199ZM302.199 403.6V404.6H352.999V403.6V402.6H302.199V403.6ZM302.199 454.4H303.199V403.6H302.199H301.199V454.4H302.199Z" fill="#EAE9E5" mask="url(#path-161-inside-75_2814_11330)"/>
<mask id="path-163-inside-76_2814_11330" fill="white">
<path d="M353 403.6H403.8V454.4H353V403.6Z"/>
</mask>
<path d="M353 403.6V402.6H352V403.6H353ZM353 403.6V404.6H403.8V403.6V402.6H353V403.6ZM353 454.4H354V403.6H353H352V454.4H353Z" fill="#EAE9E5" mask="url(#path-163-inside-76_2814_11330)"/>
<mask id="path-165-inside-77_2814_11330" fill="white">
<path d="M403.801 403.6H454.601V454.4H403.801V403.6Z"/>
</mask>
<path d="M403.801 403.6V402.6H402.801V403.6H403.801ZM403.801 403.6V404.6H454.601V403.6V402.6H403.801V403.6ZM403.801 454.4H404.801V403.6H403.801H402.801V454.4H403.801Z" fill="#EAE9E5" mask="url(#path-165-inside-77_2814_11330)"/>
<mask id="path-167-inside-78_2814_11330" fill="white">
<path d="M454.6 403.6H505.4V454.4H454.6V403.6Z"/>
</mask>
<path d="M454.6 403.6V402.6H453.6V403.6H454.6ZM454.6 403.6V404.6H505.4V403.6V402.6H454.6V403.6ZM454.6 454.4H455.6V403.6H454.6H453.6V454.4H454.6Z" fill="#EAE9E5" mask="url(#path-167-inside-78_2814_11330)"/>
<mask id="path-169-inside-79_2814_11330" fill="white">
<path d="M505.4 403.6H556.2V454.4H505.4V403.6Z"/>
</mask>
<path d="M505.4 403.6V402.6H504.4V403.6H505.4ZM505.4 403.6V404.6H556.2V403.6V402.6H505.4V403.6ZM505.4 454.4H506.4V403.6H505.4H504.4V454.4H505.4Z" fill="#EAE9E5" mask="url(#path-169-inside-79_2814_11330)"/>
<mask id="path-171-inside-80_2814_11330" fill="white">
<path d="M556.199 403.6H606.999V454.4H556.199V403.6Z"/>
</mask>
<path d="M556.199 403.6V402.6H555.199V403.6H556.199ZM606.999 403.6H607.999V402.6H606.999V403.6ZM556.199 403.6V404.6H606.999V403.6V402.6H556.199V403.6ZM606.999 403.6H605.999V454.4H606.999H607.999V403.6H606.999ZM556.199 454.4H557.199V403.6H556.199H555.199V454.4H556.199Z" fill="#EAE9E5" mask="url(#path-171-inside-80_2814_11330)"/>
<mask id="path-173-inside-81_2814_11330" fill="white">
<path d="M99 454.4H149.8V505.2H99V454.4Z"/>
</mask>
<path d="M99 454.4V453.4H98V454.4H99ZM99 454.4V455.4H149.8V454.4V453.4H99V454.4ZM99 505.2H100V454.4H99H98V505.2H99Z" fill="#EAE9E5" mask="url(#path-173-inside-81_2814_11330)"/>
<mask id="path-175-inside-82_2814_11330" fill="white">
<path d="M149.801 454.4H200.601V505.2H149.801V454.4Z"/>
</mask>
<path d="M149.801 454.4V453.4H148.801V454.4H149.801ZM149.801 454.4V455.4H200.601V454.4V453.4H149.801V454.4ZM149.801 505.2H150.801V454.4H149.801H148.801V505.2H149.801Z" fill="#EAE9E5" mask="url(#path-175-inside-82_2814_11330)"/>
<mask id="path-177-inside-83_2814_11330" fill="white">
<path d="M200.6 454.4H251.4V505.2H200.6V454.4Z"/>
</mask>
<path d="M200.6 454.4V453.4H199.6V454.4H200.6ZM200.6 454.4V455.4H251.4V454.4V453.4H200.6V454.4ZM200.6 505.2H201.6V454.4H200.6H199.6V505.2H200.6Z" fill="#EAE9E5" mask="url(#path-177-inside-83_2814_11330)"/>
<mask id="path-179-inside-84_2814_11330" fill="white">
<path d="M251.4 454.4H302.2V505.2H251.4V454.4Z"/>
</mask>
<path d="M251.4 454.4V453.4H250.4V454.4H251.4ZM251.4 454.4V455.4H302.2V454.4V453.4H251.4V454.4ZM251.4 505.2H252.4V454.4H251.4H250.4V505.2H251.4Z" fill="#EAE9E5" mask="url(#path-179-inside-84_2814_11330)"/>
<mask id="path-181-inside-85_2814_11330" fill="white">
<path d="M302.199 454.4H352.999V505.2H302.199V454.4Z"/>
</mask>
<path d="M302.199 454.4V453.4H301.199V454.4H302.199ZM302.199 454.4V455.4H352.999V454.4V453.4H302.199V454.4ZM302.199 505.2H303.199V454.4H302.199H301.199V505.2H302.199Z" fill="#EAE9E5" mask="url(#path-181-inside-85_2814_11330)"/>
<mask id="path-183-inside-86_2814_11330" fill="white">
<path d="M353 454.4H403.8V505.2H353V454.4Z"/>
</mask>
<path d="M353 454.4V453.4H352V454.4H353ZM353 454.4V455.4H403.8V454.4V453.4H353V454.4ZM353 505.2H354V454.4H353H352V505.2H353Z" fill="#EAE9E5" mask="url(#path-183-inside-86_2814_11330)"/>
<mask id="path-185-inside-87_2814_11330" fill="white">
<path d="M403.801 454.4H454.601V505.2H403.801V454.4Z"/>
</mask>
<path d="M403.801 454.4V453.4H402.801V454.4H403.801ZM403.801 454.4V455.4H454.601V454.4V453.4H403.801V454.4ZM403.801 505.2H404.801V454.4H403.801H402.801V505.2H403.801Z" fill="#EAE9E5" mask="url(#path-185-inside-87_2814_11330)"/>
<mask id="path-187-inside-88_2814_11330" fill="white">
<path d="M454.6 454.4H505.4V505.2H454.6V454.4Z"/>
</mask>
<path d="M454.6 454.4V453.4H453.6V454.4H454.6ZM454.6 454.4V455.4H505.4V454.4V453.4H454.6V454.4ZM454.6 505.2H455.6V454.4H454.6H453.6V505.2H454.6Z" fill="#EAE9E5" mask="url(#path-187-inside-88_2814_11330)"/>
<mask id="path-189-inside-89_2814_11330" fill="white">
<path d="M505.4 454.4H556.2V505.2H505.4V454.4Z"/>
</mask>
<path d="M505.4 454.4V453.4H504.4V454.4H505.4ZM505.4 454.4V455.4H556.2V454.4V453.4H505.4V454.4ZM505.4 505.2H506.4V454.4H505.4H504.4V505.2H505.4Z" fill="#EAE9E5" mask="url(#path-189-inside-89_2814_11330)"/>
<mask id="path-191-inside-90_2814_11330" fill="white">
<path d="M556.199 454.4H606.999V505.2H556.199V454.4Z"/>
</mask>
<path d="M556.199 454.4V453.4H555.199V454.4H556.199ZM606.999 454.4H607.999V453.4H606.999V454.4ZM556.199 454.4V455.4H606.999V454.4V453.4H556.199V454.4ZM606.999 454.4H605.999V505.2H606.999H607.999V454.4H606.999ZM556.199 505.2H557.199V454.4H556.199H555.199V505.2H556.199Z" fill="#EAE9E5" mask="url(#path-191-inside-90_2814_11330)"/>
<mask id="path-193-inside-91_2814_11330" fill="white">
<path d="M99 505.2H149.8V556H99V505.2Z"/>
</mask>
<path d="M99 505.2V504.2H98V505.2H99ZM99 556H98V557H99V556ZM99 505.2V506.2H149.8V505.2V504.2H99V505.2ZM149.8 556V555H99V556V557H149.8V556ZM99 556H100V505.2H99H98V556H99Z" fill="#EAE9E5" mask="url(#path-193-inside-91_2814_11330)"/>
<mask id="path-195-inside-92_2814_11330" fill="white">
<path d="M149.801 505.2H200.601V556H149.801V505.2Z"/>
</mask>
<path d="M149.801 505.2V504.2H148.801V505.2H149.801ZM149.801 556H148.801V557H149.801V556ZM149.801 505.2V506.2H200.601V505.2V504.2H149.801V505.2ZM200.601 556V555H149.801V556V557H200.601V556ZM149.801 556H150.801V505.2H149.801H148.801V556H149.801Z" fill="#EAE9E5" mask="url(#path-195-inside-92_2814_11330)"/>
<mask id="path-197-inside-93_2814_11330" fill="white">
<path d="M200.6 505.2H251.4V556H200.6V505.2Z"/>
</mask>
<path d="M200.6 505.2V504.2H199.6V505.2H200.6ZM200.6 556H199.6V557H200.6V556ZM200.6 505.2V506.2H251.4V505.2V504.2H200.6V505.2ZM251.4 556V555H200.6V556V557H251.4V556ZM200.6 556H201.6V505.2H200.6H199.6V556H200.6Z" fill="#EAE9E5" mask="url(#path-197-inside-93_2814_11330)"/>
<mask id="path-199-inside-94_2814_11330" fill="white">
<path d="M251.4 505.2H302.2V556H251.4V505.2Z"/>
</mask>
<path d="M251.4 505.2V504.2H250.4V505.2H251.4ZM251.4 556H250.4V557H251.4V556ZM251.4 505.2V506.2H302.2V505.2V504.2H251.4V505.2ZM302.2 556V555H251.4V556V557H302.2V556ZM251.4 556H252.4V505.2H251.4H250.4V556H251.4Z" fill="#EAE9E5" mask="url(#path-199-inside-94_2814_11330)"/>
<mask id="path-201-inside-95_2814_11330" fill="white">
<path d="M302.199 505.2H352.999V556H302.199V505.2Z"/>
</mask>
<path d="M302.199 505.2V504.2H301.199V505.2H302.199ZM302.199 556H301.199V557H302.199V556ZM302.199 505.2V506.2H352.999V505.2V504.2H302.199V505.2ZM352.999 556V555H302.199V556V557H352.999V556ZM302.199 556H303.199V505.2H302.199H301.199V556H302.199Z" fill="#EAE9E5" mask="url(#path-201-inside-95_2814_11330)"/>
<mask id="path-203-inside-96_2814_11330" fill="white">
<path d="M353 505.2H403.8V556H353V505.2Z"/>
</mask>
<path d="M353 505.2V504.2H352V505.2H353ZM353 556H352V557H353V556ZM353 505.2V506.2H403.8V505.2V504.2H353V505.2ZM403.8 556V555H353V556V557H403.8V556ZM353 556H354V505.2H353H352V556H353Z" fill="#EAE9E5" mask="url(#path-203-inside-96_2814_11330)"/>
<mask id="path-205-inside-97_2814_11330" fill="white">
<path d="M403.801 505.2H454.601V556H403.801V505.2Z"/>
</mask>
<path d="M403.801 505.2V504.2H402.801V505.2H403.801ZM403.801 556H402.801V557H403.801V556ZM403.801 505.2V506.2H454.601V505.2V504.2H403.801V505.2ZM454.601 556V555H403.801V556V557H454.601V556ZM403.801 556H404.801V505.2H403.801H402.801V556H403.801Z" fill="#EAE9E5" mask="url(#path-205-inside-97_2814_11330)"/>
<mask id="path-207-inside-98_2814_11330" fill="white">
<path d="M454.6 505.2H505.4V556H454.6V505.2Z"/>
</mask>
<path d="M454.6 505.2V504.2H453.6V505.2H454.6ZM454.6 556H453.6V557H454.6V556ZM454.6 505.2V506.2H505.4V505.2V504.2H454.6V505.2ZM505.4 556V555H454.6V556V557H505.4V556ZM454.6 556H455.6V505.2H454.6H453.6V556H454.6Z" fill="#EAE9E5" mask="url(#path-207-inside-98_2814_11330)"/>
<mask id="path-209-inside-99_2814_11330" fill="white">
<path d="M505.4 505.2H556.2V556H505.4V505.2Z"/>
</mask>
<path d="M505.4 505.2V504.2H504.4V505.2H505.4ZM505.4 556H504.4V557H505.4V556ZM505.4 505.2V506.2H556.2V505.2V504.2H505.4V505.2ZM556.2 556V555H505.4V556V557H556.2V556ZM505.4 556H506.4V505.2H505.4H504.4V556H505.4Z" fill="#EAE9E5" mask="url(#path-209-inside-99_2814_11330)"/>
<mask id="path-211-inside-100_2814_11330" fill="white">
<path d="M556.199 505.2H606.999V556H556.199V505.2Z"/>
</mask>
<path d="M556.199 505.2V504.2H555.199V505.2H556.199ZM606.999 505.2H607.999V504.2H606.999V505.2ZM606.999 556V557H607.999V556H606.999ZM556.199 556H555.199V557H556.199V556ZM556.199 505.2V506.2H606.999V505.2V504.2H556.199V505.2ZM606.999 505.2H605.999V556H606.999H607.999V505.2H606.999ZM606.999 556V555H556.199V556V557H606.999V556ZM556.199 556H557.199V505.2H556.199H555.199V556H556.199Z" fill="#EAE9E5" mask="url(#path-211-inside-100_2814_11330)"/>
<text fill="#9A988F" style="white-space: pre" xml:space="preserve" font-family="Inter" font-size="12" letter-spacing="0em"><tspan x="96.25" y="576.364">0</tspan></text>
<text fill="#9A988F" style="white-space: pre" xml:space="preserve" font-family="Inter" font-size="12" letter-spacing="0em"><tspan x="147.811" y="576.364">1</tspan></text>
<text fill="#9A988F" style="white-space: pre" xml:space="preserve" font-family="Inter" font-size="12" letter-spacing="0em"><tspan x="197.566" y="576.364">2</tspan></text>
<text fill="#9A988F" style="white-space: pre" xml:space="preserve" font-family="Inter" font-size="12" letter-spacing="0em"><tspan x="247.98" y="576.364">3</tspan></text>
<text fill="#9A988F" style="white-space: pre" xml:space="preserve" font-family="Inter" font-size="12" letter-spacing="0em"><tspan x="298.551" y="576.364">4</tspan></text>
<text fill="#9A988F" style="white-space: pre" xml:space="preserve" font-family="Inter" font-size="12" letter-spacing="0em"><tspan x="349.35" y="576.364">5</tspan></text>
<text fill="#9A988F" style="white-space: pre" xml:space="preserve" font-family="Inter" font-size="12" letter-spacing="0em"><tspan x="399.855" y="576.364">6</tspan></text>
<text fill="#9A988F" style="white-space: pre" xml:space="preserve" font-family="Inter" font-size="12" letter-spacing="0em"><tspan x="450.271" y="576.364">7</tspan></text>
<text fill="#9A988F" style="white-space: pre" xml:space="preserve" font-family="Inter" font-size="12" letter-spacing="0em"><tspan x="501.104" y="576.364">8</tspan></text>
<text fill="#9A988F" style="white-space: pre" xml:space="preserve" font-family="Inter" font-size="12" letter-spacing="0em"><tspan x="551.656" y="576.364">9</tspan></text>
<text fill="#9A988F" style="white-space: pre" xml:space="preserve" font-family="Inter" font-size="12" letter-spacing="0em"><tspan x="599.461" y="576.364">10</tspan></text>
<path d="M452 404C452 402.343 453.343 401 455 401C456.657 401 458 402.343 458 404C458 405.657 456.657 407 455 407C453.343 407 452 405.657 452 404Z" fill="white" stroke="#D8D6CF" stroke-width="2"/>
<path d="M401 404C401 402.343 402.343 401 404 401C405.657 401 407 402.343 407 404C407 405.657 405.657 407 404 407C402.343 407 401 405.657 401 404Z" fill="white" stroke="#D8D6CF" stroke-width="2"/>
<path d="M603 405C603 403.343 604.343 402 606 402C607.657 402 609 403.343 609 405C609 406.657 607.657 408 606 408C604.343 408 603 406.657 603 405Z" fill="white" stroke="#D8D6CF" stroke-width="2"/>
<path d="M603 353C603 351.343 604.343 350 606 350C607.657 350 609 351.343 609 353C609 354.657 607.657 356 606 356C604.343 356 603 354.657 603 353Z" fill="white" stroke="#D8D6CF" stroke-width="2"/>
<path d="M452 353C452 351.343 453.343 350 455 350C456.657 350 458 351.343 458 353C458 354.657 456.657 356 455 356C453.343 356 452 354.657 452 353Z" fill="white" stroke="#D8D6CF" stroke-width="2"/>
<text fill="#9A988F" style="white-space: pre" xml:space="preserve" font-family="Inter" font-size="16" letter-spacing="0.2em"><tspan x="295.402" y="612.318">&#x412;&#x410;&#x416;&#x41d;&#x41e;&#x421;&#x422;&#x42c;</tspan></text>
<path d="M284 266.5H474C478.142 266.5 481.5 269.858 481.5 274V313C481.5 317.142 478.142 320.5 474 320.5H284C279.858 320.5 276.5 317.142 276.5 313V274C276.5 269.858 279.858 266.5 284 266.5Z" fill="#F7F6F3"/>
<path d="M284 266.5H474C478.142 266.5 481.5 269.858 481.5 274V313C481.5 317.142 478.142 320.5 474 320.5H284C279.858 320.5 276.5 317.142 276.5 313V274C276.5 269.858 279.858 266.5 284 266.5Z" stroke="#EAE9E5"/>
<text fill="#37352F" style="white-space: pre" xml:space="preserve" font-family="Inter" font-size="14" font-weight="500" letter-spacing="0em"><tspan x="293" y="298.591">&#x412;&#x438;&#x434;&#x435;&#x442;&#x44c; &#x441;&#x43e;&#x441;&#x442;&#x43e;&#x44f;&#x43d;&#x438;&#x435; &#x444;&#x43b;&#x43e;&#x442;&#x430;</tspan></text>
<mask id="path-232-inside-101_2814_11330" fill="white">
<path d="M445 320.899L454.899 311L464.799 320.899L454.899 330.799L445 320.899Z"/>
</mask>
<path d="M445 320.899L454.899 311L464.799 320.899L454.899 330.799L445 320.899Z" fill="#F7F6F3"/>
<path d="M454.899 330.799L454.192 331.506L454.899 332.213L455.607 331.506L454.899 330.799ZM464.799 320.899L464.092 320.192L454.192 330.092L454.899 330.799L455.607 331.506L465.506 321.607L464.799 320.899ZM454.899 330.799L455.607 330.092L445.707 320.192L445 320.899L444.293 321.607L454.192 331.506L454.899 330.799Z" fill="#EAE9E5" mask="url(#path-232-inside-101_2814_11330)"/>
<path d="M186 424.5H474C478.142 424.5 481.5 427.858 481.5 432V471C481.5 475.142 478.142 478.5 474 478.5H186C181.858 478.5 178.5 475.142 178.5 471V432C178.5 427.858 181.858 424.5 186 424.5Z" fill="#F7F6F3"/>
<path d="M186 424.5H474C478.142 424.5 481.5 427.858 481.5 432V471C481.5 475.142 478.142 478.5 474 478.5H186C181.858 478.5 178.5 475.142 178.5 471V432C178.5 427.858 181.858 424.5 186 424.5Z" stroke="#EAE9E5"/>
<text fill="#37352F" style="white-space: pre" xml:space="preserve" font-family="Inter" font-size="14" font-weight="500" letter-spacing="0em"><tspan x="195" y="456.591">&#x41d;&#x435; &#x43f;&#x440;&#x43e;&#x43f;&#x443;&#x441;&#x43a;&#x430;&#x442;&#x44c; &#x43f;&#x430;&#x440;&#x430;&#x43b;&#x43b;&#x435;&#x43b;&#x44c;&#x43d;&#x44b;&#x435; &#x441;&#x43e;&#x431;&#x44b;&#x442;&#x438;&#x44f;</tspan></text>
<mask id="path-236-inside-102_2814_11330" fill="white">
<path d="M464.799 423.899L454.899 433.799L445 423.899L454.899 414L464.799 423.899Z"/>
</mask>
<path d="M464.799 423.899L454.899 433.799L445 423.899L454.899 414L464.799 423.899Z" fill="#F7F6F3"/>
<path d="M454.899 414L455.606 413.293L454.899 412.586L454.192 413.293L454.899 414ZM445 423.899L445.707 424.607L455.606 414.707L454.899 414L454.192 413.293L444.293 423.192L445 423.899ZM454.899 414L454.192 414.707L464.092 424.607L464.799 423.899L465.506 423.192L455.606 413.293L454.899 414Z" fill="#EAE9E5" mask="url(#path-236-inside-102_2814_11330)"/>
<path d="M213 329.5H422C426.142 329.5 429.5 332.858 429.5 337V376C429.5 380.142 426.142 383.5 422 383.5H213C208.858 383.5 205.5 380.142 205.5 376V337C205.5 332.987 208.651 329.711 212.614 329.51L213 329.5Z" fill="#F7F6F3"/>
<path d="M213 329.5H422C426.142 329.5 429.5 332.858 429.5 337V376C429.5 380.142 426.142 383.5 422 383.5H213C208.858 383.5 205.5 380.142 205.5 376V337C205.5 332.987 208.651 329.711 212.614 329.51L213 329.5Z" stroke="#EAE9E5"/>
<text fill="#37352F" style="white-space: pre" xml:space="preserve" font-family="Inter" font-size="14" font-weight="500" letter-spacing="0em"><tspan x="222" y="361.591">&#x421;&#x434;&#x430;&#x432;&#x430;&#x442;&#x44c; &#x441;&#x43c;&#x435;&#x43d;&#x443; &#x431;&#x435;&#x437; &#x445;&#x432;&#x43e;&#x441;&#x442;&#x43e;&#x432;</tspan></text>
<mask id="path-240-inside-103_2814_11330" fill="white">
<path d="M394 383.899L403.899 374L413.799 383.899L403.899 393.799L394 383.899Z"/>
</mask>
<path d="M394 383.899L403.899 374L413.799 383.899L403.899 393.799L394 383.899Z" fill="#F7F6F3"/>
<path d="M403.899 393.799L403.192 394.506L403.899 395.213L404.607 394.506L403.899 393.799ZM413.799 383.899L413.092 383.192L403.192 393.092L403.899 393.799L404.607 394.506L414.506 384.607L413.799 383.899ZM403.899 393.799L404.607 393.092L394.707 383.192L394 383.899L393.293 384.607L403.192 394.506L403.899 393.799Z" fill="#EAE9E5" mask="url(#path-240-inside-103_2814_11330)"/>
<path d="M504 425.5H624C628.142 425.5 631.5 428.858 631.5 433V493C631.5 497.142 628.142 500.5 624 500.5H504C499.858 500.5 496.5 497.142 496.5 493V433C496.5 428.858 499.858 425.5 504 425.5Z" fill="#F7F6F3"/>
<path d="M504 425.5H624C628.142 425.5 631.5 428.858 631.5 433V493C631.5 497.142 628.142 500.5 624 500.5H504C499.858 500.5 496.5 497.142 496.5 493V433C496.5 428.858 499.858 425.5 504 425.5Z" stroke="#EAE9E5"/>
<text fill="#37352F" style="white-space: pre" xml:space="preserve" font-family="Inter" font-size="14" font-weight="500" letter-spacing="0em"><tspan x="513.223" y="457.591">&#x422;&#x440;&#x438;&#x430;&#x436;&#x438;&#x440;&#x43e;&#x432;&#x430;&#x442;&#x44c; </tspan><tspan x="534.25" y="478.591">&#x441;&#x43e;&#x431;&#x44b;&#x442;&#x438;&#x44f;</tspan></text>
<mask id="path-244-inside-104_2814_11330" fill="white">
<path d="M616 424.899L606.101 434.799L596.201 424.899L606.101 415L616 424.899Z"/>
</mask>
<path d="M616 424.899L606.101 434.799L596.201 424.899L606.101 415L616 424.899Z" fill="#F7F6F3"/>
<path d="M606.101 415L606.808 414.293L606.101 413.586L605.393 414.293L606.101 415ZM596.201 424.899L596.908 425.607L606.808 415.707L606.101 415L605.393 414.293L595.494 424.192L596.201 424.899ZM606.101 415L605.393 415.707L615.293 425.607L616 424.899L616.707 424.192L606.808 414.293L606.101 415Z" fill="#EAE9E5" mask="url(#path-244-inside-104_2814_11330)"/>
<path d="M527 257.5H624C628.142 257.5 631.5 260.858 631.5 265V325C631.5 329.142 628.142 332.5 624 332.5H527C522.858 332.5 519.5 329.142 519.5 325V265C519.5 260.858 522.858 257.5 527 257.5Z" fill="#F7F6F3"/>
<path d="M527 257.5H624C628.142 257.5 631.5 260.858 631.5 265V325C631.5 329.142 628.142 332.5 624 332.5H527C522.858 332.5 519.5 329.142 519.5 325V265C519.5 260.858 522.858 257.5 527 257.5Z" stroke="#EAE9E5"/>
<text fill="#37352F" style="white-space: pre" xml:space="preserve" font-family="Inter" font-size="14" font-weight="500" letter-spacing="0em"><tspan x="536.209" y="289.591">&#x417;&#x430;&#x43a;&#x440;&#x44b;&#x432;&#x430;&#x442;&#x44c; &#10;</tspan><tspan x="537.699" y="310.591">&#x438;&#x43d;&#x446;&#x438;&#x434;&#x435;&#x43d;&#x442;&#x44b;</tspan></text>
<mask id="path-248-inside-105_2814_11330" fill="white">
<path d="M596 332.899L605.899 323L615.799 332.899L605.899 342.799L596 332.899Z"/>
</mask>
<path d="M596 332.899L605.899 323L615.799 332.899L605.899 342.799L596 332.899Z" fill="#F7F6F3"/>
<path d="M605.899 342.799L605.192 343.506L605.899 344.213L606.607 343.506L605.899 342.799ZM615.799 332.899L615.092 332.192L605.192 342.092L605.899 342.799L606.607 343.506L616.506 333.607L615.799 332.899ZM605.899 342.799L606.607 342.092L596.707 332.192L596 332.899L595.293 333.607L605.192 343.506L605.899 342.799Z" fill="#EAE9E5" mask="url(#path-248-inside-105_2814_11330)"/>
</svg>
