<svg width="708" height="186" viewBox="0 0 708 186" fill="none" xmlns="http://www.w3.org/2000/svg">
<path d="M6 8.5H244C247.038 8.5 249.5 10.9624 249.5 14V172C249.5 175.038 247.038 177.5 244 177.5H6C2.96243 177.5 0.5 175.038 0.5 172V14C0.5 10.9624 2.96243 8.5 6 8.5Z" fill="white"/>
<path d="M6 8.5H244C247.038 8.5 249.5 10.9624 249.5 14V172C249.5 175.038 247.038 177.5 244 177.5H6C2.96243 177.5 0.5 175.038 0.5 172V14C0.5 10.9624 2.96243 8.5 6 8.5Z" stroke="#eae9e5"/>
<path d="M43.2722 41.5409L40.2722 34.0409C40.2227 33.9172 40.1308 33.8151 40.0131 33.7528C39.8953 33.6905 39.7592 33.672 39.6291 33.7006L33.5625 35.0487V32.75C33.5625 32.6008 33.5032 32.4577 33.3977 32.3523C33.2923 32.2468 33.1492 32.1875 33 32.1875C32.8508 32.1875 32.7077 32.2468 32.6023 32.3523C32.4968 32.4577 32.4375 32.6008 32.4375 32.75V35.2991L26.1281 36.7053C26.0387 36.7252 25.9556 36.7666 25.8858 36.8259C25.816 36.8852 25.7618 36.9606 25.7278 37.0456L22.7278 44.5456C22.702 44.6107 22.6883 44.68 22.6875 44.75C22.6875 46.7994 24.8728 47.5625 26.25 47.5625C27.6272 47.5625 29.8125 46.7994 29.8125 44.75C29.8123 44.6784 29.7986 44.6075 29.7722 44.5409L27.0178 37.6559L32.4375 36.4513V48.6875H30.75C30.6008 48.6875 30.4577 48.7468 30.3523 48.8523C30.2468 48.9577 30.1875 49.1008 30.1875 49.25C30.1875 49.3992 30.2468 49.5423 30.3523 49.6477C30.4577 49.7532 30.6008 49.8125 30.75 49.8125H35.25C35.3992 49.8125 35.5423 49.7532 35.6477 49.6477C35.7532 49.5423 35.8125 49.3992 35.8125 49.25C35.8125 49.1008 35.7532 48.9577 35.6477 48.8523C35.5423 48.7468 35.3992 48.6875 35.25 48.6875H33.5625V36.2009L38.8322 35.03L36.2278 41.5409C36.2014 41.6075 36.1877 41.6784 36.1875 41.75C36.1875 43.7994 38.3728 44.5625 39.75 44.5625C41.1272 44.5625 43.3125 43.7994 43.3125 41.75C43.3123 41.6784 43.2986 41.6075 43.2722 41.5409ZM26.25 46.4375C25.6768 46.433 25.1136 46.2861 24.6113 46.01C24.1078 45.7166 23.8472 45.3369 23.8153 44.8503L26.2528 38.765L28.6903 44.8503C28.5994 46.1422 26.8669 46.4375 26.25 46.4375ZM39.75 43.4375C39.1768 43.433 38.6136 43.2861 38.1112 43.01C37.6078 42.7166 37.3472 42.3369 37.3153 41.8503L39.7528 35.765L42.1903 41.8503C42.0994 43.1422 40.3669 43.4375 39.75 43.4375Z" fill="#6b6a64"/>
<text fill="#37352f" style="white-space: pre" xml:space="preserve" font-family="Inter" font-size="14" font-weight="600" letter-spacing="0em"><tspan x="21" y="80.0909">&#x417;&#x430;&#x43a;&#x443;&#x43f;&#x43e;&#x447;&#x43d;&#x44b;&#x439; &#x43e;&#x440;&#x434;&#x435;&#x440; &#x43d;&#x435; &#x441;&#x445;&#x43e;&#x434;</tspan></text>
<text fill="#6b6a64" style="white-space: pre" xml:space="preserve" font-family="Inter" font-size="13" letter-spacing="0em"><tspan x="21" y="111.727">&#x426;&#x435;&#x43d;&#x430; &#x438;&#x43b;&#x438; &#x43a;&#x43e;&#x43b;&#x438;&#x447;&#x435;&#x441;&#x442;&#x432;&#x43e; &#x432; &#x441;&#x447;&#x451;&#x442;&#x435; &#10;</tspan><tspan x="21" y="131.727">&#x43d;&#x435; &#x441;&#x43e;&#x432;&#x43f;&#x430;&#x434;&#x430;&#x44e;&#x442; &#x441; &#x43e;&#x440;&#x434;&#x435;&#x440;&#x43e;&#x43c;</tspan></text>
<path d="M288 8.5H526C529.038 8.5 531.5 10.9624 531.5 14V172C531.5 175.038 529.038 177.5 526 177.5H288C284.962 177.5 282.5 175.038 282.5 172V14C282.5 10.9624 284.962 8.5 288 8.5Z" fill="white"/>
<path d="M288 8.5H526C529.038 8.5 531.5 10.9624 531.5 14V172C531.5 175.038 529.038 177.5 526 177.5H288C284.962 177.5 282.5 175.038 282.5 172V14C282.5 10.9624 284.962 8.5 288 8.5Z" stroke="#eae9e5"/>
<path d="M322.898 35.3525L319.148 31.6025C319.042 31.497 318.899 31.4376 318.75 31.4375H311.25C310.902 31.4375 310.568 31.5758 310.322 31.8219C310.076 32.0681 309.938 32.4019 309.938 32.75V34.4375H308.25C307.902 34.4375 307.568 34.5758 307.322 34.8219C307.076 35.0681 306.938 35.4019 306.938 35.75V49.25C306.938 49.5981 307.076 49.9319 307.322 50.1781C307.568 50.4242 307.902 50.5625 308.25 50.5625H318.75C319.098 50.5625 319.432 50.4242 319.678 50.1781C319.924 49.9319 320.062 49.5981 320.062 49.25V47.5625H321.75C322.098 47.5625 322.432 47.4242 322.678 47.1781C322.924 46.9319 323.062 46.5981 323.062 46.25V35.75C323.062 35.6009 323.003 35.4579 322.898 35.3525ZM318.938 49.25C318.938 49.2997 318.918 49.3474 318.883 49.3826C318.847 49.4177 318.8 49.4375 318.75 49.4375H308.25C308.2 49.4375 308.153 49.4177 308.117 49.3826C308.082 49.3474 308.062 49.2997 308.062 49.25V35.75C308.062 35.7003 308.082 35.6526 308.117 35.6174C308.153 35.5823 308.2 35.5625 308.25 35.5625H315.517L318.938 38.9834V49.25ZM321.938 46.25C321.938 46.2997 321.918 46.3474 321.883 46.3826C321.847 46.4177 321.8 46.4375 321.75 46.4375H320.062V38.75C320.062 38.6009 320.003 38.4579 319.898 38.3525L316.148 34.6025C316.042 34.497 315.899 34.4376 315.75 34.4375H311.062V32.75C311.062 32.7003 311.082 32.6526 311.117 32.6174C311.153 32.5823 311.2 32.5625 311.25 32.5625H318.517L321.938 35.9834V46.25ZM316.312 43.25C316.312 43.3992 316.253 43.5423 316.148 43.6477C316.042 43.7532 315.899 43.8125 315.75 43.8125H311.25C311.101 43.8125 310.958 43.7532 310.852 43.6477C310.747 43.5423 310.688 43.3992 310.688 43.25C310.688 43.1008 310.747 42.9577 310.852 42.8523C310.958 42.7468 311.101 42.6875 311.25 42.6875H315.75C315.899 42.6875 316.042 42.7468 316.148 42.8523C316.253 42.9577 316.312 43.1008 316.312 43.25ZM316.312 46.25C316.312 46.3992 316.253 46.5423 316.148 46.6477C316.042 46.7532 315.899 46.8125 315.75 46.8125H311.25C311.101 46.8125 310.958 46.7532 310.852 46.6477C310.747 46.5423 310.688 46.3992 310.688 46.25C310.688 46.1008 310.747 45.9577 310.852 45.8523C310.958 45.7468 311.101 45.6875 311.25 45.6875H315.75C315.899 45.6875 316.042 45.7468 316.148 45.8523C316.253 45.9577 316.312 46.1008 316.312 46.25Z" fill="#6b6a64"/>
<text fill="#37352f" style="white-space: pre" xml:space="preserve" font-family="Inter" font-size="14" font-weight="600" letter-spacing="0em"><tspan x="303" y="80.0909">&#x414;&#x443;&#x431;&#x43b;&#x438;&#x43a;&#x430;&#x442; &#x441;&#x447;&#x435;&#x442;&#x430;</tspan></text>
<text fill="#6b6a64" style="white-space: pre" xml:space="preserve" font-family="Inter" font-size="13" letter-spacing="0em"><tspan x="303" y="111.727">&#x422;&#x43e;&#x442; &#x436;&#x435; &#x441;&#x447;&#x451;&#x442; &#x43f;&#x43e;&#x432;&#x442;&#x43e;&#x440;&#x43d;&#x43e; &#x447;&#x435;&#x440;&#x435;&#x437; </tspan><tspan x="303" y="131.727">&#x434;&#x440;&#x443;&#x433;&#x43e;&#x439; &#x43a;&#x430;&#x43d;&#x430;&#x43b; &#x438;&#x43b;&#x438; &#x441; &#x438;&#x437;&#x43c;&#x435;&#x43d;&#x451;&#x43d;&#x43d;&#x44b;&#x43c; </tspan><tspan x="303" y="151.727">&#x43d;&#x43e;&#x43c;&#x435;&#x440;&#x43e;&#x43c;</tspan></text>
</svg>
